M48
; DRILL file {KiCad 5.1.8} date Thu Jan  7 17:22:49 2021
; FORMAT={-:-/ absolute / metric / decimal}
; #@! TF.CreationDate,2021-01-07T17:22:49+01:00
; #@! TF.GenerationSoftware,Kicad,Pcbnew,5.1.8
; #@! TF.FileFunction,Plated,1,2,PTH
FMAT,2
METRIC
T1C0.800
T2C1.000
T3C3.200
%
G90
G05
T1
X78.74Y-81.28
X78.74Y-96.52
X81.28Y-81.28
X81.28Y-96.52
X83.82Y-81.28
X83.82Y-96.52
X86.36Y-81.28
X86.36Y-96.52
X88.9Y-81.28
X88.9Y-96.52
X91.44Y-81.28
X91.44Y-96.52
X93.98Y-81.28
X93.98Y-96.52
X96.52Y-81.28
X96.52Y-96.52
X99.06Y-81.28
X99.06Y-96.52
X101.6Y-81.28
X101.6Y-96.52
X104.14Y-81.28
X104.14Y-96.52
X106.68Y-81.28
X106.68Y-96.52
X99.187Y-71.247
X99.187Y-73.787
X99.187Y-76.327
X106.807Y-71.247
X106.807Y-73.787
X106.807Y-76.327
T2
X111.633Y-78.486
X111.633Y-81.256
X111.633Y-84.026
X111.633Y-86.796
X111.633Y-89.566
X111.633Y-92.336
X111.633Y-95.106
X111.633Y-97.876
X114.473Y-79.871
X114.473Y-82.641
X114.473Y-85.411
X114.473Y-88.181
X114.473Y-90.951
X114.473Y-93.721
X114.473Y-96.491
T3
X113.053Y-71.531
X113.053Y-104.831
T0
M30
