%TF.GenerationSoftware,KiCad,Pcbnew,5.1.8*%
%TF.CreationDate,2021-01-07T17:22:46+01:00*%
%TF.ProjectId,gameport-adapter,67616d65-706f-4727-942d-616461707465,0.1*%
%TF.SameCoordinates,Original*%
%TF.FileFunction,Copper,L2,Bot*%
%TF.FilePolarity,Positive*%
%FSLAX46Y46*%
G04 Gerber Fmt 4.6, Leading zero omitted, Abs format (unit mm)*
G04 Created by KiCad (PCBNEW 5.1.8) date 2021-01-07 17:22:46*
%MOMM*%
%LPD*%
G01*
G04 APERTURE LIST*
%TA.AperFunction,ComponentPad*%
%ADD10O,1.600000X1.600000*%
%TD*%
%TA.AperFunction,ComponentPad*%
%ADD11R,1.600000X1.600000*%
%TD*%
%TA.AperFunction,ComponentPad*%
%ADD12C,4.000000*%
%TD*%
%TA.AperFunction,ComponentPad*%
%ADD13C,1.600000*%
%TD*%
%TA.AperFunction,Conductor*%
%ADD14C,0.450000*%
%TD*%
%TA.AperFunction,Conductor*%
%ADD15C,0.500000*%
%TD*%
%TA.AperFunction,Conductor*%
%ADD16C,0.254000*%
%TD*%
%TA.AperFunction,Conductor*%
%ADD17C,0.100000*%
%TD*%
G04 APERTURE END LIST*
D10*
%TO.P,SW1,6*%
%TO.N,GND*%
X99187000Y-76327000D03*
%TO.P,SW1,3*%
%TO.N,SW3*%
X106807000Y-71247000D03*
%TO.P,SW1,5*%
%TO.N,GND*%
X99187000Y-73787000D03*
%TO.P,SW1,2*%
%TO.N,SW2*%
X106807000Y-73787000D03*
%TO.P,SW1,4*%
%TO.N,GND*%
X99187000Y-71247000D03*
D11*
%TO.P,SW1,1*%
%TO.N,SW1*%
X106807000Y-76327000D03*
%TD*%
D10*
%TO.P,U1,24*%
%TO.N,N/C*%
X78740000Y-81280000D03*
%TO.P,U1,12*%
%TO.N,MIDI_RXD*%
X106680000Y-96520000D03*
%TO.P,U1,23*%
%TO.N,GND*%
X81280000Y-81280000D03*
%TO.P,U1,11*%
%TO.N,Button_2*%
X104140000Y-96520000D03*
%TO.P,U1,22*%
%TO.N,N/C*%
X83820000Y-81280000D03*
%TO.P,U1,10*%
%TO.N,Button_4*%
X101600000Y-96520000D03*
%TO.P,U1,21*%
%TO.N,VCC*%
X86360000Y-81280000D03*
%TO.P,U1,9*%
%TO.N,AxisY_1*%
X99060000Y-96520000D03*
%TO.P,U1,20*%
%TO.N,SW3*%
X88900000Y-81280000D03*
%TO.P,U1,8*%
%TO.N,N/C*%
X96520000Y-96520000D03*
%TO.P,U1,19*%
%TO.N,MIDI_TXD*%
X91440000Y-81280000D03*
%TO.P,U1,7*%
%TO.N,AxisY_2*%
X93980000Y-96520000D03*
%TO.P,U1,18*%
%TO.N,AxisX_2*%
X93980000Y-81280000D03*
%TO.P,U1,6*%
%TO.N,N/C*%
X91440000Y-96520000D03*
%TO.P,U1,17*%
%TO.N,AxisX_1*%
X96520000Y-81280000D03*
%TO.P,U1,5*%
%TO.N,N/C*%
X88900000Y-96520000D03*
%TO.P,U1,16*%
%TO.N,SW2*%
X99060000Y-81280000D03*
%TO.P,U1,4*%
%TO.N,GND*%
X86360000Y-96520000D03*
%TO.P,U1,15*%
%TO.N,SW1*%
X101600000Y-81280000D03*
%TO.P,U1,3*%
%TO.N,GND*%
X83820000Y-96520000D03*
%TO.P,U1,14*%
%TO.N,Button_3*%
X104140000Y-81280000D03*
%TO.P,U1,2*%
%TO.N,N/C*%
X81280000Y-96520000D03*
%TO.P,U1,13*%
%TO.N,Button_1*%
X106680000Y-81280000D03*
D11*
%TO.P,U1,1*%
%TO.N,N/C*%
X78740000Y-96520000D03*
%TD*%
D12*
%TO.P,CONN1,0*%
%TO.N,N/C*%
X113053000Y-71531000D03*
X113053000Y-104831000D03*
D13*
%TO.P,CONN1,15*%
%TO.N,MIDI_RXD*%
X114473000Y-96491000D03*
%TO.P,CONN1,14*%
%TO.N,Button_4*%
X114473000Y-93721000D03*
%TO.P,CONN1,13*%
%TO.N,AxisY_2*%
X114473000Y-90951000D03*
%TO.P,CONN1,12*%
%TO.N,MIDI_TXD*%
X114473000Y-88181000D03*
%TO.P,CONN1,11*%
%TO.N,AxisX_2*%
X114473000Y-85411000D03*
%TO.P,CONN1,10*%
%TO.N,Button_3*%
X114473000Y-82641000D03*
%TO.P,CONN1,9*%
%TO.N,VCC*%
X114473000Y-79871000D03*
%TO.P,CONN1,8*%
X111633000Y-97876000D03*
%TO.P,CONN1,7*%
%TO.N,Button_2*%
X111633000Y-95106000D03*
%TO.P,CONN1,6*%
%TO.N,AxisY_1*%
X111633000Y-92336000D03*
%TO.P,CONN1,5*%
%TO.N,GND*%
X111633000Y-89566000D03*
%TO.P,CONN1,4*%
X111633000Y-86796000D03*
%TO.P,CONN1,3*%
%TO.N,AxisX_1*%
X111633000Y-84026000D03*
%TO.P,CONN1,2*%
%TO.N,Button_1*%
X111633000Y-81256000D03*
D11*
%TO.P,CONN1,1*%
%TO.N,VCC*%
X111633000Y-78486000D03*
%TD*%
D14*
%TO.N,VCC*%
X89027000Y-78486000D02*
X86233000Y-81280000D01*
X111633000Y-78486000D02*
X89027000Y-78486000D01*
X113030000Y-78486000D02*
X111633000Y-78486000D01*
X114415000Y-79871000D02*
X113030000Y-78486000D01*
X114473000Y-79871000D02*
X114415000Y-79871000D01*
D15*
X108966000Y-95209000D02*
X111633000Y-97876000D01*
X108966000Y-81153000D02*
X108966000Y-95209000D01*
X111633000Y-78486000D02*
X108966000Y-81153000D01*
%TD*%
D16*
%TO.N,GND*%
X111373285Y-69484262D02*
X111006262Y-69851285D01*
X110717893Y-70282859D01*
X110519261Y-70762399D01*
X110418000Y-71271475D01*
X110418000Y-71790525D01*
X110519261Y-72299601D01*
X110717893Y-72779141D01*
X111006262Y-73210715D01*
X111373285Y-73577738D01*
X111804859Y-73866107D01*
X112284399Y-74064739D01*
X112793475Y-74166000D01*
X113312525Y-74166000D01*
X113821601Y-74064739D01*
X114301141Y-73866107D01*
X114732715Y-73577738D01*
X115099738Y-73210715D01*
X115388107Y-72779141D01*
X115586739Y-72299601D01*
X115688000Y-71790525D01*
X115688000Y-71271475D01*
X115586739Y-70762399D01*
X115388107Y-70282859D01*
X115099738Y-69851285D01*
X114732715Y-69484262D01*
X114367152Y-69240000D01*
X121895000Y-69240000D01*
X121895001Y-107290000D01*
X114002037Y-107290000D01*
X114301141Y-107166107D01*
X114732715Y-106877738D01*
X115099738Y-106510715D01*
X115388107Y-106079141D01*
X115586739Y-105599601D01*
X115688000Y-105090525D01*
X115688000Y-104571475D01*
X115586739Y-104062399D01*
X115388107Y-103582859D01*
X115099738Y-103151285D01*
X114732715Y-102784262D01*
X114301141Y-102495893D01*
X113821601Y-102297261D01*
X113312525Y-102196000D01*
X112793475Y-102196000D01*
X112284399Y-102297261D01*
X111804859Y-102495893D01*
X111373285Y-102784262D01*
X111006262Y-103151285D01*
X110717893Y-103582859D01*
X110519261Y-104062399D01*
X110418000Y-104571475D01*
X110418000Y-105090525D01*
X110519261Y-105599601D01*
X110717893Y-106079141D01*
X111006262Y-106510715D01*
X111373285Y-106877738D01*
X111804859Y-107166107D01*
X112103963Y-107290000D01*
X94151023Y-107290000D01*
X77495000Y-98036655D01*
X77495000Y-97776261D01*
X77585506Y-97850537D01*
X77695820Y-97909502D01*
X77815518Y-97945812D01*
X77940000Y-97958072D01*
X79540000Y-97958072D01*
X79664482Y-97945812D01*
X79784180Y-97909502D01*
X79894494Y-97850537D01*
X79991185Y-97771185D01*
X80070537Y-97674494D01*
X80129502Y-97564180D01*
X80165812Y-97444482D01*
X80166643Y-97436039D01*
X80365241Y-97634637D01*
X80600273Y-97791680D01*
X80861426Y-97899853D01*
X81138665Y-97955000D01*
X81421335Y-97955000D01*
X81698574Y-97899853D01*
X81959727Y-97791680D01*
X82194759Y-97634637D01*
X82394637Y-97434759D01*
X82551680Y-97199727D01*
X82556067Y-97189135D01*
X82667615Y-97375131D01*
X82856586Y-97583519D01*
X83082580Y-97751037D01*
X83336913Y-97871246D01*
X83470961Y-97911904D01*
X83693000Y-97789915D01*
X83693000Y-96647000D01*
X83947000Y-96647000D01*
X83947000Y-97789915D01*
X84169039Y-97911904D01*
X84303087Y-97871246D01*
X84557420Y-97751037D01*
X84783414Y-97583519D01*
X84972385Y-97375131D01*
X85090000Y-97179018D01*
X85207615Y-97375131D01*
X85396586Y-97583519D01*
X85622580Y-97751037D01*
X85876913Y-97871246D01*
X86010961Y-97911904D01*
X86233000Y-97789915D01*
X86233000Y-96647000D01*
X83947000Y-96647000D01*
X83693000Y-96647000D01*
X83673000Y-96647000D01*
X83673000Y-96393000D01*
X83693000Y-96393000D01*
X83693000Y-95250085D01*
X83947000Y-95250085D01*
X83947000Y-96393000D01*
X86233000Y-96393000D01*
X86233000Y-95250085D01*
X86487000Y-95250085D01*
X86487000Y-96393000D01*
X86507000Y-96393000D01*
X86507000Y-96647000D01*
X86487000Y-96647000D01*
X86487000Y-97789915D01*
X86709039Y-97911904D01*
X86843087Y-97871246D01*
X87097420Y-97751037D01*
X87323414Y-97583519D01*
X87512385Y-97375131D01*
X87623933Y-97189135D01*
X87628320Y-97199727D01*
X87785363Y-97434759D01*
X87985241Y-97634637D01*
X88220273Y-97791680D01*
X88481426Y-97899853D01*
X88758665Y-97955000D01*
X89041335Y-97955000D01*
X89318574Y-97899853D01*
X89579727Y-97791680D01*
X89814759Y-97634637D01*
X90014637Y-97434759D01*
X90170000Y-97202241D01*
X90325363Y-97434759D01*
X90525241Y-97634637D01*
X90760273Y-97791680D01*
X91021426Y-97899853D01*
X91298665Y-97955000D01*
X91581335Y-97955000D01*
X91858574Y-97899853D01*
X92119727Y-97791680D01*
X92354759Y-97634637D01*
X92554637Y-97434759D01*
X92710000Y-97202241D01*
X92865363Y-97434759D01*
X93065241Y-97634637D01*
X93300273Y-97791680D01*
X93561426Y-97899853D01*
X93838665Y-97955000D01*
X94121335Y-97955000D01*
X94398574Y-97899853D01*
X94659727Y-97791680D01*
X94894759Y-97634637D01*
X95094637Y-97434759D01*
X95250000Y-97202241D01*
X95405363Y-97434759D01*
X95605241Y-97634637D01*
X95840273Y-97791680D01*
X96101426Y-97899853D01*
X96378665Y-97955000D01*
X96661335Y-97955000D01*
X96938574Y-97899853D01*
X97199727Y-97791680D01*
X97434759Y-97634637D01*
X97634637Y-97434759D01*
X97790000Y-97202241D01*
X97945363Y-97434759D01*
X98145241Y-97634637D01*
X98380273Y-97791680D01*
X98641426Y-97899853D01*
X98918665Y-97955000D01*
X99201335Y-97955000D01*
X99478574Y-97899853D01*
X99739727Y-97791680D01*
X99974759Y-97634637D01*
X100174637Y-97434759D01*
X100330000Y-97202241D01*
X100485363Y-97434759D01*
X100685241Y-97634637D01*
X100920273Y-97791680D01*
X101181426Y-97899853D01*
X101458665Y-97955000D01*
X101741335Y-97955000D01*
X102018574Y-97899853D01*
X102279727Y-97791680D01*
X102514759Y-97634637D01*
X102714637Y-97434759D01*
X102870000Y-97202241D01*
X103025363Y-97434759D01*
X103225241Y-97634637D01*
X103460273Y-97791680D01*
X103721426Y-97899853D01*
X103998665Y-97955000D01*
X104281335Y-97955000D01*
X104558574Y-97899853D01*
X104819727Y-97791680D01*
X105054759Y-97634637D01*
X105254637Y-97434759D01*
X105410000Y-97202241D01*
X105565363Y-97434759D01*
X105765241Y-97634637D01*
X106000273Y-97791680D01*
X106261426Y-97899853D01*
X106538665Y-97955000D01*
X106821335Y-97955000D01*
X107098574Y-97899853D01*
X107359727Y-97791680D01*
X107594759Y-97634637D01*
X107794637Y-97434759D01*
X107951680Y-97199727D01*
X108059853Y-96938574D01*
X108115000Y-96661335D01*
X108115000Y-96378665D01*
X108059853Y-96101426D01*
X107951680Y-95840273D01*
X107794637Y-95605241D01*
X107594759Y-95405363D01*
X107359727Y-95248320D01*
X107098574Y-95140147D01*
X106821335Y-95085000D01*
X106538665Y-95085000D01*
X106261426Y-95140147D01*
X106000273Y-95248320D01*
X105765241Y-95405363D01*
X105565363Y-95605241D01*
X105410000Y-95837759D01*
X105254637Y-95605241D01*
X105054759Y-95405363D01*
X104819727Y-95248320D01*
X104558574Y-95140147D01*
X104281335Y-95085000D01*
X103998665Y-95085000D01*
X103721426Y-95140147D01*
X103460273Y-95248320D01*
X103225241Y-95405363D01*
X103025363Y-95605241D01*
X102870000Y-95837759D01*
X102714637Y-95605241D01*
X102514759Y-95405363D01*
X102279727Y-95248320D01*
X102018574Y-95140147D01*
X101741335Y-95085000D01*
X101458665Y-95085000D01*
X101181426Y-95140147D01*
X100920273Y-95248320D01*
X100685241Y-95405363D01*
X100485363Y-95605241D01*
X100330000Y-95837759D01*
X100174637Y-95605241D01*
X99974759Y-95405363D01*
X99739727Y-95248320D01*
X99478574Y-95140147D01*
X99201335Y-95085000D01*
X98918665Y-95085000D01*
X98641426Y-95140147D01*
X98380273Y-95248320D01*
X98145241Y-95405363D01*
X97945363Y-95605241D01*
X97790000Y-95837759D01*
X97634637Y-95605241D01*
X97434759Y-95405363D01*
X97199727Y-95248320D01*
X96938574Y-95140147D01*
X96661335Y-95085000D01*
X96378665Y-95085000D01*
X96101426Y-95140147D01*
X95840273Y-95248320D01*
X95605241Y-95405363D01*
X95405363Y-95605241D01*
X95250000Y-95837759D01*
X95094637Y-95605241D01*
X94894759Y-95405363D01*
X94659727Y-95248320D01*
X94398574Y-95140147D01*
X94121335Y-95085000D01*
X93838665Y-95085000D01*
X93561426Y-95140147D01*
X93300273Y-95248320D01*
X93065241Y-95405363D01*
X92865363Y-95605241D01*
X92710000Y-95837759D01*
X92554637Y-95605241D01*
X92354759Y-95405363D01*
X92119727Y-95248320D01*
X91858574Y-95140147D01*
X91581335Y-95085000D01*
X91298665Y-95085000D01*
X91021426Y-95140147D01*
X90760273Y-95248320D01*
X90525241Y-95405363D01*
X90325363Y-95605241D01*
X90170000Y-95837759D01*
X90014637Y-95605241D01*
X89814759Y-95405363D01*
X89579727Y-95248320D01*
X89318574Y-95140147D01*
X89041335Y-95085000D01*
X88758665Y-95085000D01*
X88481426Y-95140147D01*
X88220273Y-95248320D01*
X87985241Y-95405363D01*
X87785363Y-95605241D01*
X87628320Y-95840273D01*
X87623933Y-95850865D01*
X87512385Y-95664869D01*
X87323414Y-95456481D01*
X87097420Y-95288963D01*
X86843087Y-95168754D01*
X86709039Y-95128096D01*
X86487000Y-95250085D01*
X86233000Y-95250085D01*
X86010961Y-95128096D01*
X85876913Y-95168754D01*
X85622580Y-95288963D01*
X85396586Y-95456481D01*
X85207615Y-95664869D01*
X85090000Y-95860982D01*
X84972385Y-95664869D01*
X84783414Y-95456481D01*
X84557420Y-95288963D01*
X84303087Y-95168754D01*
X84169039Y-95128096D01*
X83947000Y-95250085D01*
X83693000Y-95250085D01*
X83470961Y-95128096D01*
X83336913Y-95168754D01*
X83082580Y-95288963D01*
X82856586Y-95456481D01*
X82667615Y-95664869D01*
X82556067Y-95850865D01*
X82551680Y-95840273D01*
X82394637Y-95605241D01*
X82194759Y-95405363D01*
X81959727Y-95248320D01*
X81698574Y-95140147D01*
X81421335Y-95085000D01*
X81138665Y-95085000D01*
X80861426Y-95140147D01*
X80600273Y-95248320D01*
X80365241Y-95405363D01*
X80166643Y-95603961D01*
X80165812Y-95595518D01*
X80129502Y-95475820D01*
X80070537Y-95365506D01*
X79991185Y-95268815D01*
X79894494Y-95189463D01*
X79784180Y-95130498D01*
X79664482Y-95094188D01*
X79540000Y-95081928D01*
X77940000Y-95081928D01*
X77815518Y-95094188D01*
X77695820Y-95130498D01*
X77585506Y-95189463D01*
X77495000Y-95263739D01*
X77495000Y-81999657D01*
X77625363Y-82194759D01*
X77825241Y-82394637D01*
X78060273Y-82551680D01*
X78321426Y-82659853D01*
X78598665Y-82715000D01*
X78881335Y-82715000D01*
X79158574Y-82659853D01*
X79419727Y-82551680D01*
X79654759Y-82394637D01*
X79854637Y-82194759D01*
X80011680Y-81959727D01*
X80016067Y-81949135D01*
X80127615Y-82135131D01*
X80316586Y-82343519D01*
X80542580Y-82511037D01*
X80796913Y-82631246D01*
X80930961Y-82671904D01*
X81153000Y-82549915D01*
X81153000Y-81407000D01*
X81133000Y-81407000D01*
X81133000Y-81153000D01*
X81153000Y-81153000D01*
X81153000Y-80010085D01*
X81407000Y-80010085D01*
X81407000Y-81153000D01*
X81427000Y-81153000D01*
X81427000Y-81407000D01*
X81407000Y-81407000D01*
X81407000Y-82549915D01*
X81629039Y-82671904D01*
X81763087Y-82631246D01*
X82017420Y-82511037D01*
X82243414Y-82343519D01*
X82432385Y-82135131D01*
X82543933Y-81949135D01*
X82548320Y-81959727D01*
X82705363Y-82194759D01*
X82905241Y-82394637D01*
X83140273Y-82551680D01*
X83401426Y-82659853D01*
X83678665Y-82715000D01*
X83961335Y-82715000D01*
X84238574Y-82659853D01*
X84499727Y-82551680D01*
X84734759Y-82394637D01*
X84934637Y-82194759D01*
X85090000Y-81962241D01*
X85245363Y-82194759D01*
X85445241Y-82394637D01*
X85680273Y-82551680D01*
X85941426Y-82659853D01*
X86218665Y-82715000D01*
X86501335Y-82715000D01*
X86778574Y-82659853D01*
X87039727Y-82551680D01*
X87274759Y-82394637D01*
X87474637Y-82194759D01*
X87630000Y-81962241D01*
X87785363Y-82194759D01*
X87985241Y-82394637D01*
X88220273Y-82551680D01*
X88481426Y-82659853D01*
X88758665Y-82715000D01*
X89041335Y-82715000D01*
X89318574Y-82659853D01*
X89579727Y-82551680D01*
X89814759Y-82394637D01*
X90014637Y-82194759D01*
X90170000Y-81962241D01*
X90325363Y-82194759D01*
X90525241Y-82394637D01*
X90760273Y-82551680D01*
X91021426Y-82659853D01*
X91298665Y-82715000D01*
X91581335Y-82715000D01*
X91858574Y-82659853D01*
X92119727Y-82551680D01*
X92354759Y-82394637D01*
X92554637Y-82194759D01*
X92710000Y-81962241D01*
X92865363Y-82194759D01*
X93065241Y-82394637D01*
X93300273Y-82551680D01*
X93561426Y-82659853D01*
X93838665Y-82715000D01*
X94121335Y-82715000D01*
X94398574Y-82659853D01*
X94659727Y-82551680D01*
X94894759Y-82394637D01*
X95094637Y-82194759D01*
X95250000Y-81962241D01*
X95405363Y-82194759D01*
X95605241Y-82394637D01*
X95840273Y-82551680D01*
X96101426Y-82659853D01*
X96378665Y-82715000D01*
X96661335Y-82715000D01*
X96938574Y-82659853D01*
X97199727Y-82551680D01*
X97434759Y-82394637D01*
X97634637Y-82194759D01*
X97790000Y-81962241D01*
X97945363Y-82194759D01*
X98145241Y-82394637D01*
X98380273Y-82551680D01*
X98641426Y-82659853D01*
X98918665Y-82715000D01*
X99201335Y-82715000D01*
X99478574Y-82659853D01*
X99739727Y-82551680D01*
X99974759Y-82394637D01*
X100174637Y-82194759D01*
X100330000Y-81962241D01*
X100485363Y-82194759D01*
X100685241Y-82394637D01*
X100920273Y-82551680D01*
X101181426Y-82659853D01*
X101458665Y-82715000D01*
X101741335Y-82715000D01*
X102018574Y-82659853D01*
X102279727Y-82551680D01*
X102514759Y-82394637D01*
X102714637Y-82194759D01*
X102870000Y-81962241D01*
X103025363Y-82194759D01*
X103225241Y-82394637D01*
X103460273Y-82551680D01*
X103721426Y-82659853D01*
X103998665Y-82715000D01*
X104281335Y-82715000D01*
X104558574Y-82659853D01*
X104819727Y-82551680D01*
X105054759Y-82394637D01*
X105254637Y-82194759D01*
X105410000Y-81962241D01*
X105565363Y-82194759D01*
X105765241Y-82394637D01*
X106000273Y-82551680D01*
X106261426Y-82659853D01*
X106538665Y-82715000D01*
X106821335Y-82715000D01*
X107098574Y-82659853D01*
X107359727Y-82551680D01*
X107594759Y-82394637D01*
X107794637Y-82194759D01*
X107951680Y-81959727D01*
X108059853Y-81698574D01*
X108081000Y-81592262D01*
X108081001Y-95165521D01*
X108076719Y-95209000D01*
X108093805Y-95382490D01*
X108144412Y-95549313D01*
X108226590Y-95703059D01*
X108309468Y-95804046D01*
X108309471Y-95804049D01*
X108337184Y-95837817D01*
X108370951Y-95865529D01*
X110204983Y-97699561D01*
X110198000Y-97734665D01*
X110198000Y-98017335D01*
X110253147Y-98294574D01*
X110361320Y-98555727D01*
X110518363Y-98790759D01*
X110718241Y-98990637D01*
X110953273Y-99147680D01*
X111214426Y-99255853D01*
X111491665Y-99311000D01*
X111774335Y-99311000D01*
X112051574Y-99255853D01*
X112312727Y-99147680D01*
X112547759Y-98990637D01*
X112747637Y-98790759D01*
X112904680Y-98555727D01*
X113012853Y-98294574D01*
X113068000Y-98017335D01*
X113068000Y-97734665D01*
X113012853Y-97457426D01*
X112904680Y-97196273D01*
X112747637Y-96961241D01*
X112547759Y-96761363D01*
X112312727Y-96604320D01*
X112051574Y-96496147D01*
X112025699Y-96491000D01*
X112051574Y-96485853D01*
X112312727Y-96377680D01*
X112547759Y-96220637D01*
X112747637Y-96020759D01*
X112904680Y-95785727D01*
X113012853Y-95524574D01*
X113068000Y-95247335D01*
X113068000Y-94964665D01*
X113012853Y-94687426D01*
X112904680Y-94426273D01*
X112747637Y-94191241D01*
X112547759Y-93991363D01*
X112312727Y-93834320D01*
X112051574Y-93726147D01*
X112025699Y-93721000D01*
X112051574Y-93715853D01*
X112312727Y-93607680D01*
X112547759Y-93450637D01*
X112747637Y-93250759D01*
X112904680Y-93015727D01*
X113012853Y-92754574D01*
X113068000Y-92477335D01*
X113068000Y-92194665D01*
X113012853Y-91917426D01*
X112904680Y-91656273D01*
X112747637Y-91421241D01*
X112547759Y-91221363D01*
X112312727Y-91064320D01*
X112051574Y-90956147D01*
X112023118Y-90950487D01*
X112249292Y-90869603D01*
X112374514Y-90802671D01*
X112446097Y-90558702D01*
X111633000Y-89745605D01*
X110819903Y-90558702D01*
X110891486Y-90802671D01*
X111146996Y-90923571D01*
X111249289Y-90949212D01*
X111214426Y-90956147D01*
X110953273Y-91064320D01*
X110718241Y-91221363D01*
X110518363Y-91421241D01*
X110361320Y-91656273D01*
X110253147Y-91917426D01*
X110198000Y-92194665D01*
X110198000Y-92477335D01*
X110253147Y-92754574D01*
X110361320Y-93015727D01*
X110518363Y-93250759D01*
X110718241Y-93450637D01*
X110953273Y-93607680D01*
X111214426Y-93715853D01*
X111240301Y-93721000D01*
X111214426Y-93726147D01*
X110953273Y-93834320D01*
X110718241Y-93991363D01*
X110518363Y-94191241D01*
X110361320Y-94426273D01*
X110253147Y-94687426D01*
X110198000Y-94964665D01*
X110198000Y-95189422D01*
X109851000Y-94842422D01*
X109851000Y-89636512D01*
X110192783Y-89636512D01*
X110234213Y-89916130D01*
X110329397Y-90182292D01*
X110396329Y-90307514D01*
X110640298Y-90379097D01*
X111453395Y-89566000D01*
X111812605Y-89566000D01*
X112625702Y-90379097D01*
X112869671Y-90307514D01*
X112990571Y-90052004D01*
X113059300Y-89777816D01*
X113073217Y-89495488D01*
X113031787Y-89215870D01*
X112936603Y-88949708D01*
X112869671Y-88824486D01*
X112625702Y-88752903D01*
X111812605Y-89566000D01*
X111453395Y-89566000D01*
X110640298Y-88752903D01*
X110396329Y-88824486D01*
X110275429Y-89079996D01*
X110206700Y-89354184D01*
X110192783Y-89636512D01*
X109851000Y-89636512D01*
X109851000Y-87788702D01*
X110819903Y-87788702D01*
X110891486Y-88032671D01*
X111146996Y-88153571D01*
X111249305Y-88179216D01*
X111016708Y-88262397D01*
X110891486Y-88329329D01*
X110819903Y-88573298D01*
X111633000Y-89386395D01*
X112446097Y-88573298D01*
X112374514Y-88329329D01*
X112119004Y-88208429D01*
X112016695Y-88182784D01*
X112249292Y-88099603D01*
X112374514Y-88032671D01*
X112446097Y-87788702D01*
X111633000Y-86975605D01*
X110819903Y-87788702D01*
X109851000Y-87788702D01*
X109851000Y-86866512D01*
X110192783Y-86866512D01*
X110234213Y-87146130D01*
X110329397Y-87412292D01*
X110396329Y-87537514D01*
X110640298Y-87609097D01*
X111453395Y-86796000D01*
X111812605Y-86796000D01*
X112625702Y-87609097D01*
X112869671Y-87537514D01*
X112990571Y-87282004D01*
X113059300Y-87007816D01*
X113073217Y-86725488D01*
X113031787Y-86445870D01*
X112936603Y-86179708D01*
X112869671Y-86054486D01*
X112625702Y-85982903D01*
X111812605Y-86796000D01*
X111453395Y-86796000D01*
X110640298Y-85982903D01*
X110396329Y-86054486D01*
X110275429Y-86309996D01*
X110206700Y-86584184D01*
X110192783Y-86866512D01*
X109851000Y-86866512D01*
X109851000Y-81519578D01*
X110198000Y-81172578D01*
X110198000Y-81397335D01*
X110253147Y-81674574D01*
X110361320Y-81935727D01*
X110518363Y-82170759D01*
X110718241Y-82370637D01*
X110953273Y-82527680D01*
X111214426Y-82635853D01*
X111240301Y-82641000D01*
X111214426Y-82646147D01*
X110953273Y-82754320D01*
X110718241Y-82911363D01*
X110518363Y-83111241D01*
X110361320Y-83346273D01*
X110253147Y-83607426D01*
X110198000Y-83884665D01*
X110198000Y-84167335D01*
X110253147Y-84444574D01*
X110361320Y-84705727D01*
X110518363Y-84940759D01*
X110718241Y-85140637D01*
X110953273Y-85297680D01*
X111214426Y-85405853D01*
X111242882Y-85411513D01*
X111016708Y-85492397D01*
X110891486Y-85559329D01*
X110819903Y-85803298D01*
X111633000Y-86616395D01*
X112446097Y-85803298D01*
X112374514Y-85559329D01*
X112119004Y-85438429D01*
X112016711Y-85412788D01*
X112051574Y-85405853D01*
X112312727Y-85297680D01*
X112547759Y-85140637D01*
X112747637Y-84940759D01*
X112904680Y-84705727D01*
X113012853Y-84444574D01*
X113068000Y-84167335D01*
X113068000Y-83884665D01*
X113012853Y-83607426D01*
X112904680Y-83346273D01*
X112747637Y-83111241D01*
X112547759Y-82911363D01*
X112312727Y-82754320D01*
X112051574Y-82646147D01*
X112025699Y-82641000D01*
X112051574Y-82635853D01*
X112312727Y-82527680D01*
X112547759Y-82370637D01*
X112747637Y-82170759D01*
X112904680Y-81935727D01*
X113012853Y-81674574D01*
X113068000Y-81397335D01*
X113068000Y-81114665D01*
X113012853Y-80837426D01*
X112904680Y-80576273D01*
X112747637Y-80341241D01*
X112547759Y-80141363D01*
X112312727Y-79984320D01*
X112167275Y-79924072D01*
X112433000Y-79924072D01*
X112557482Y-79911812D01*
X112677180Y-79875502D01*
X112787494Y-79816537D01*
X112884185Y-79737185D01*
X112963537Y-79640494D01*
X112965186Y-79637409D01*
X113041226Y-79713449D01*
X113038000Y-79729665D01*
X113038000Y-80012335D01*
X113093147Y-80289574D01*
X113201320Y-80550727D01*
X113358363Y-80785759D01*
X113558241Y-80985637D01*
X113793273Y-81142680D01*
X114054426Y-81250853D01*
X114080301Y-81256000D01*
X114054426Y-81261147D01*
X113793273Y-81369320D01*
X113558241Y-81526363D01*
X113358363Y-81726241D01*
X113201320Y-81961273D01*
X113093147Y-82222426D01*
X113038000Y-82499665D01*
X113038000Y-82782335D01*
X113093147Y-83059574D01*
X113201320Y-83320727D01*
X113358363Y-83555759D01*
X113558241Y-83755637D01*
X113793273Y-83912680D01*
X114054426Y-84020853D01*
X114080301Y-84026000D01*
X114054426Y-84031147D01*
X113793273Y-84139320D01*
X113558241Y-84296363D01*
X113358363Y-84496241D01*
X113201320Y-84731273D01*
X113093147Y-84992426D01*
X113038000Y-85269665D01*
X113038000Y-85552335D01*
X113093147Y-85829574D01*
X113201320Y-86090727D01*
X113358363Y-86325759D01*
X113558241Y-86525637D01*
X113793273Y-86682680D01*
X114054426Y-86790853D01*
X114080301Y-86796000D01*
X114054426Y-86801147D01*
X113793273Y-86909320D01*
X113558241Y-87066363D01*
X113358363Y-87266241D01*
X113201320Y-87501273D01*
X113093147Y-87762426D01*
X113038000Y-88039665D01*
X113038000Y-88322335D01*
X113093147Y-88599574D01*
X113201320Y-88860727D01*
X113358363Y-89095759D01*
X113558241Y-89295637D01*
X113793273Y-89452680D01*
X114054426Y-89560853D01*
X114080301Y-89566000D01*
X114054426Y-89571147D01*
X113793273Y-89679320D01*
X113558241Y-89836363D01*
X113358363Y-90036241D01*
X113201320Y-90271273D01*
X113093147Y-90532426D01*
X113038000Y-90809665D01*
X113038000Y-91092335D01*
X113093147Y-91369574D01*
X113201320Y-91630727D01*
X113358363Y-91865759D01*
X113558241Y-92065637D01*
X113793273Y-92222680D01*
X114054426Y-92330853D01*
X114080301Y-92336000D01*
X114054426Y-92341147D01*
X113793273Y-92449320D01*
X113558241Y-92606363D01*
X113358363Y-92806241D01*
X113201320Y-93041273D01*
X113093147Y-93302426D01*
X113038000Y-93579665D01*
X113038000Y-93862335D01*
X113093147Y-94139574D01*
X113201320Y-94400727D01*
X113358363Y-94635759D01*
X113558241Y-94835637D01*
X113793273Y-94992680D01*
X114054426Y-95100853D01*
X114080301Y-95106000D01*
X114054426Y-95111147D01*
X113793273Y-95219320D01*
X113558241Y-95376363D01*
X113358363Y-95576241D01*
X113201320Y-95811273D01*
X113093147Y-96072426D01*
X113038000Y-96349665D01*
X113038000Y-96632335D01*
X113093147Y-96909574D01*
X113201320Y-97170727D01*
X113358363Y-97405759D01*
X113558241Y-97605637D01*
X113793273Y-97762680D01*
X114054426Y-97870853D01*
X114331665Y-97926000D01*
X114614335Y-97926000D01*
X114891574Y-97870853D01*
X115152727Y-97762680D01*
X115387759Y-97605637D01*
X115587637Y-97405759D01*
X115744680Y-97170727D01*
X115852853Y-96909574D01*
X115908000Y-96632335D01*
X115908000Y-96349665D01*
X115852853Y-96072426D01*
X115744680Y-95811273D01*
X115587637Y-95576241D01*
X115387759Y-95376363D01*
X115152727Y-95219320D01*
X114891574Y-95111147D01*
X114865699Y-95106000D01*
X114891574Y-95100853D01*
X115152727Y-94992680D01*
X115387759Y-94835637D01*
X115587637Y-94635759D01*
X115744680Y-94400727D01*
X115852853Y-94139574D01*
X115908000Y-93862335D01*
X115908000Y-93579665D01*
X115852853Y-93302426D01*
X115744680Y-93041273D01*
X115587637Y-92806241D01*
X115387759Y-92606363D01*
X115152727Y-92449320D01*
X114891574Y-92341147D01*
X114865699Y-92336000D01*
X114891574Y-92330853D01*
X115152727Y-92222680D01*
X115387759Y-92065637D01*
X115587637Y-91865759D01*
X115744680Y-91630727D01*
X115852853Y-91369574D01*
X115908000Y-91092335D01*
X115908000Y-90809665D01*
X115852853Y-90532426D01*
X115744680Y-90271273D01*
X115587637Y-90036241D01*
X115387759Y-89836363D01*
X115152727Y-89679320D01*
X114891574Y-89571147D01*
X114865699Y-89566000D01*
X114891574Y-89560853D01*
X115152727Y-89452680D01*
X115387759Y-89295637D01*
X115587637Y-89095759D01*
X115744680Y-88860727D01*
X115852853Y-88599574D01*
X115908000Y-88322335D01*
X115908000Y-88039665D01*
X115852853Y-87762426D01*
X115744680Y-87501273D01*
X115587637Y-87266241D01*
X115387759Y-87066363D01*
X115152727Y-86909320D01*
X114891574Y-86801147D01*
X114865699Y-86796000D01*
X114891574Y-86790853D01*
X115152727Y-86682680D01*
X115387759Y-86525637D01*
X115587637Y-86325759D01*
X115744680Y-86090727D01*
X115852853Y-85829574D01*
X115908000Y-85552335D01*
X115908000Y-85269665D01*
X115852853Y-84992426D01*
X115744680Y-84731273D01*
X115587637Y-84496241D01*
X115387759Y-84296363D01*
X115152727Y-84139320D01*
X114891574Y-84031147D01*
X114865699Y-84026000D01*
X114891574Y-84020853D01*
X115152727Y-83912680D01*
X115387759Y-83755637D01*
X115587637Y-83555759D01*
X115744680Y-83320727D01*
X115852853Y-83059574D01*
X115908000Y-82782335D01*
X115908000Y-82499665D01*
X115852853Y-82222426D01*
X115744680Y-81961273D01*
X115587637Y-81726241D01*
X115387759Y-81526363D01*
X115152727Y-81369320D01*
X114891574Y-81261147D01*
X114865699Y-81256000D01*
X114891574Y-81250853D01*
X115152727Y-81142680D01*
X115387759Y-80985637D01*
X115587637Y-80785759D01*
X115744680Y-80550727D01*
X115852853Y-80289574D01*
X115908000Y-80012335D01*
X115908000Y-79729665D01*
X115852853Y-79452426D01*
X115744680Y-79191273D01*
X115587637Y-78956241D01*
X115387759Y-78756363D01*
X115152727Y-78599320D01*
X114891574Y-78491147D01*
X114614335Y-78436000D01*
X114331665Y-78436000D01*
X114218695Y-78458471D01*
X113667988Y-77907765D01*
X113641054Y-77874946D01*
X113510102Y-77767476D01*
X113360700Y-77687619D01*
X113198589Y-77638444D01*
X113072246Y-77626000D01*
X113072239Y-77626000D01*
X113065093Y-77625296D01*
X113058812Y-77561518D01*
X113022502Y-77441820D01*
X112963537Y-77331506D01*
X112884185Y-77234815D01*
X112787494Y-77155463D01*
X112677180Y-77096498D01*
X112557482Y-77060188D01*
X112433000Y-77047928D01*
X110833000Y-77047928D01*
X110708518Y-77060188D01*
X110588820Y-77096498D01*
X110478506Y-77155463D01*
X110381815Y-77234815D01*
X110302463Y-77331506D01*
X110243498Y-77441820D01*
X110207188Y-77561518D01*
X110200837Y-77626000D01*
X107999922Y-77626000D01*
X108058185Y-77578185D01*
X108137537Y-77481494D01*
X108196502Y-77371180D01*
X108232812Y-77251482D01*
X108245072Y-77127000D01*
X108245072Y-75527000D01*
X108232812Y-75402518D01*
X108196502Y-75282820D01*
X108137537Y-75172506D01*
X108058185Y-75075815D01*
X107961494Y-74996463D01*
X107851180Y-74937498D01*
X107731482Y-74901188D01*
X107723039Y-74900357D01*
X107921637Y-74701759D01*
X108078680Y-74466727D01*
X108186853Y-74205574D01*
X108242000Y-73928335D01*
X108242000Y-73645665D01*
X108186853Y-73368426D01*
X108078680Y-73107273D01*
X107921637Y-72872241D01*
X107721759Y-72672363D01*
X107489241Y-72517000D01*
X107721759Y-72361637D01*
X107921637Y-72161759D01*
X108078680Y-71926727D01*
X108186853Y-71665574D01*
X108242000Y-71388335D01*
X108242000Y-71105665D01*
X108186853Y-70828426D01*
X108078680Y-70567273D01*
X107921637Y-70332241D01*
X107721759Y-70132363D01*
X107486727Y-69975320D01*
X107225574Y-69867147D01*
X106948335Y-69812000D01*
X106665665Y-69812000D01*
X106388426Y-69867147D01*
X106127273Y-69975320D01*
X105892241Y-70132363D01*
X105692363Y-70332241D01*
X105535320Y-70567273D01*
X105427147Y-70828426D01*
X105372000Y-71105665D01*
X105372000Y-71388335D01*
X105427147Y-71665574D01*
X105535320Y-71926727D01*
X105692363Y-72161759D01*
X105892241Y-72361637D01*
X106124759Y-72517000D01*
X105892241Y-72672363D01*
X105692363Y-72872241D01*
X105535320Y-73107273D01*
X105427147Y-73368426D01*
X105372000Y-73645665D01*
X105372000Y-73928335D01*
X105427147Y-74205574D01*
X105535320Y-74466727D01*
X105692363Y-74701759D01*
X105890961Y-74900357D01*
X105882518Y-74901188D01*
X105762820Y-74937498D01*
X105652506Y-74996463D01*
X105555815Y-75075815D01*
X105476463Y-75172506D01*
X105417498Y-75282820D01*
X105381188Y-75402518D01*
X105368928Y-75527000D01*
X105368928Y-77127000D01*
X105381188Y-77251482D01*
X105417498Y-77371180D01*
X105476463Y-77481494D01*
X105555815Y-77578185D01*
X105614078Y-77626000D01*
X99795491Y-77626000D01*
X99800881Y-77624070D01*
X100042131Y-77479385D01*
X100250519Y-77290414D01*
X100418037Y-77064420D01*
X100538246Y-76810087D01*
X100578904Y-76676039D01*
X100456915Y-76454000D01*
X99314000Y-76454000D01*
X99314000Y-76474000D01*
X99060000Y-76474000D01*
X99060000Y-76454000D01*
X97917085Y-76454000D01*
X97795096Y-76676039D01*
X97835754Y-76810087D01*
X97955963Y-77064420D01*
X98123481Y-77290414D01*
X98331869Y-77479385D01*
X98573119Y-77624070D01*
X98578509Y-77626000D01*
X89069246Y-77626000D01*
X89027000Y-77621839D01*
X88858410Y-77638444D01*
X88696299Y-77687619D01*
X88644259Y-77715436D01*
X88546898Y-77767476D01*
X88415946Y-77874946D01*
X88389017Y-77907759D01*
X86451777Y-79845000D01*
X86218665Y-79845000D01*
X85941426Y-79900147D01*
X85680273Y-80008320D01*
X85445241Y-80165363D01*
X85245363Y-80365241D01*
X85090000Y-80597759D01*
X84934637Y-80365241D01*
X84734759Y-80165363D01*
X84499727Y-80008320D01*
X84238574Y-79900147D01*
X83961335Y-79845000D01*
X83678665Y-79845000D01*
X83401426Y-79900147D01*
X83140273Y-80008320D01*
X82905241Y-80165363D01*
X82705363Y-80365241D01*
X82548320Y-80600273D01*
X82543933Y-80610865D01*
X82432385Y-80424869D01*
X82243414Y-80216481D01*
X82017420Y-80048963D01*
X81763087Y-79928754D01*
X81629039Y-79888096D01*
X81407000Y-80010085D01*
X81153000Y-80010085D01*
X80930961Y-79888096D01*
X80796913Y-79928754D01*
X80542580Y-80048963D01*
X80316586Y-80216481D01*
X80127615Y-80424869D01*
X80016067Y-80610865D01*
X80011680Y-80600273D01*
X79854637Y-80365241D01*
X79654759Y-80165363D01*
X79419727Y-80008320D01*
X79158574Y-79900147D01*
X78881335Y-79845000D01*
X78598665Y-79845000D01*
X78321426Y-79900147D01*
X78060273Y-80008320D01*
X77825241Y-80165363D01*
X77625363Y-80365241D01*
X77495000Y-80560343D01*
X77495000Y-79739370D01*
X86394409Y-74136039D01*
X97795096Y-74136039D01*
X97835754Y-74270087D01*
X97955963Y-74524420D01*
X98123481Y-74750414D01*
X98331869Y-74939385D01*
X98527982Y-75057000D01*
X98331869Y-75174615D01*
X98123481Y-75363586D01*
X97955963Y-75589580D01*
X97835754Y-75843913D01*
X97795096Y-75977961D01*
X97917085Y-76200000D01*
X99060000Y-76200000D01*
X99060000Y-73914000D01*
X99314000Y-73914000D01*
X99314000Y-76200000D01*
X100456915Y-76200000D01*
X100578904Y-75977961D01*
X100538246Y-75843913D01*
X100418037Y-75589580D01*
X100250519Y-75363586D01*
X100042131Y-75174615D01*
X99846018Y-75057000D01*
X100042131Y-74939385D01*
X100250519Y-74750414D01*
X100418037Y-74524420D01*
X100538246Y-74270087D01*
X100578904Y-74136039D01*
X100456915Y-73914000D01*
X99314000Y-73914000D01*
X99060000Y-73914000D01*
X97917085Y-73914000D01*
X97795096Y-74136039D01*
X86394409Y-74136039D01*
X90428527Y-71596039D01*
X97795096Y-71596039D01*
X97835754Y-71730087D01*
X97955963Y-71984420D01*
X98123481Y-72210414D01*
X98331869Y-72399385D01*
X98527982Y-72517000D01*
X98331869Y-72634615D01*
X98123481Y-72823586D01*
X97955963Y-73049580D01*
X97835754Y-73303913D01*
X97795096Y-73437961D01*
X97917085Y-73660000D01*
X99060000Y-73660000D01*
X99060000Y-71374000D01*
X99314000Y-71374000D01*
X99314000Y-73660000D01*
X100456915Y-73660000D01*
X100578904Y-73437961D01*
X100538246Y-73303913D01*
X100418037Y-73049580D01*
X100250519Y-72823586D01*
X100042131Y-72634615D01*
X99846018Y-72517000D01*
X100042131Y-72399385D01*
X100250519Y-72210414D01*
X100418037Y-71984420D01*
X100538246Y-71730087D01*
X100578904Y-71596039D01*
X100456915Y-71374000D01*
X99314000Y-71374000D01*
X99060000Y-71374000D01*
X97917085Y-71374000D01*
X97795096Y-71596039D01*
X90428527Y-71596039D01*
X91537239Y-70897961D01*
X97795096Y-70897961D01*
X97917085Y-71120000D01*
X99060000Y-71120000D01*
X99060000Y-69976376D01*
X99314000Y-69976376D01*
X99314000Y-71120000D01*
X100456915Y-71120000D01*
X100578904Y-70897961D01*
X100538246Y-70763913D01*
X100418037Y-70509580D01*
X100250519Y-70283586D01*
X100042131Y-70094615D01*
X99800881Y-69949930D01*
X99536040Y-69855091D01*
X99314000Y-69976376D01*
X99060000Y-69976376D01*
X98837960Y-69855091D01*
X98573119Y-69949930D01*
X98331869Y-70094615D01*
X98123481Y-70283586D01*
X97955963Y-70509580D01*
X97835754Y-70763913D01*
X97795096Y-70897961D01*
X91537239Y-70897961D01*
X94170473Y-69240000D01*
X111738848Y-69240000D01*
X111373285Y-69484262D01*
%TA.AperFunction,Conductor*%
D17*
G36*
X111373285Y-69484262D02*
G01*
X111006262Y-69851285D01*
X110717893Y-70282859D01*
X110519261Y-70762399D01*
X110418000Y-71271475D01*
X110418000Y-71790525D01*
X110519261Y-72299601D01*
X110717893Y-72779141D01*
X111006262Y-73210715D01*
X111373285Y-73577738D01*
X111804859Y-73866107D01*
X112284399Y-74064739D01*
X112793475Y-74166000D01*
X113312525Y-74166000D01*
X113821601Y-74064739D01*
X114301141Y-73866107D01*
X114732715Y-73577738D01*
X115099738Y-73210715D01*
X115388107Y-72779141D01*
X115586739Y-72299601D01*
X115688000Y-71790525D01*
X115688000Y-71271475D01*
X115586739Y-70762399D01*
X115388107Y-70282859D01*
X115099738Y-69851285D01*
X114732715Y-69484262D01*
X114367152Y-69240000D01*
X121895000Y-69240000D01*
X121895001Y-107290000D01*
X114002037Y-107290000D01*
X114301141Y-107166107D01*
X114732715Y-106877738D01*
X115099738Y-106510715D01*
X115388107Y-106079141D01*
X115586739Y-105599601D01*
X115688000Y-105090525D01*
X115688000Y-104571475D01*
X115586739Y-104062399D01*
X115388107Y-103582859D01*
X115099738Y-103151285D01*
X114732715Y-102784262D01*
X114301141Y-102495893D01*
X113821601Y-102297261D01*
X113312525Y-102196000D01*
X112793475Y-102196000D01*
X112284399Y-102297261D01*
X111804859Y-102495893D01*
X111373285Y-102784262D01*
X111006262Y-103151285D01*
X110717893Y-103582859D01*
X110519261Y-104062399D01*
X110418000Y-104571475D01*
X110418000Y-105090525D01*
X110519261Y-105599601D01*
X110717893Y-106079141D01*
X111006262Y-106510715D01*
X111373285Y-106877738D01*
X111804859Y-107166107D01*
X112103963Y-107290000D01*
X94151023Y-107290000D01*
X77495000Y-98036655D01*
X77495000Y-97776261D01*
X77585506Y-97850537D01*
X77695820Y-97909502D01*
X77815518Y-97945812D01*
X77940000Y-97958072D01*
X79540000Y-97958072D01*
X79664482Y-97945812D01*
X79784180Y-97909502D01*
X79894494Y-97850537D01*
X79991185Y-97771185D01*
X80070537Y-97674494D01*
X80129502Y-97564180D01*
X80165812Y-97444482D01*
X80166643Y-97436039D01*
X80365241Y-97634637D01*
X80600273Y-97791680D01*
X80861426Y-97899853D01*
X81138665Y-97955000D01*
X81421335Y-97955000D01*
X81698574Y-97899853D01*
X81959727Y-97791680D01*
X82194759Y-97634637D01*
X82394637Y-97434759D01*
X82551680Y-97199727D01*
X82556067Y-97189135D01*
X82667615Y-97375131D01*
X82856586Y-97583519D01*
X83082580Y-97751037D01*
X83336913Y-97871246D01*
X83470961Y-97911904D01*
X83693000Y-97789915D01*
X83693000Y-96647000D01*
X83947000Y-96647000D01*
X83947000Y-97789915D01*
X84169039Y-97911904D01*
X84303087Y-97871246D01*
X84557420Y-97751037D01*
X84783414Y-97583519D01*
X84972385Y-97375131D01*
X85090000Y-97179018D01*
X85207615Y-97375131D01*
X85396586Y-97583519D01*
X85622580Y-97751037D01*
X85876913Y-97871246D01*
X86010961Y-97911904D01*
X86233000Y-97789915D01*
X86233000Y-96647000D01*
X83947000Y-96647000D01*
X83693000Y-96647000D01*
X83673000Y-96647000D01*
X83673000Y-96393000D01*
X83693000Y-96393000D01*
X83693000Y-95250085D01*
X83947000Y-95250085D01*
X83947000Y-96393000D01*
X86233000Y-96393000D01*
X86233000Y-95250085D01*
X86487000Y-95250085D01*
X86487000Y-96393000D01*
X86507000Y-96393000D01*
X86507000Y-96647000D01*
X86487000Y-96647000D01*
X86487000Y-97789915D01*
X86709039Y-97911904D01*
X86843087Y-97871246D01*
X87097420Y-97751037D01*
X87323414Y-97583519D01*
X87512385Y-97375131D01*
X87623933Y-97189135D01*
X87628320Y-97199727D01*
X87785363Y-97434759D01*
X87985241Y-97634637D01*
X88220273Y-97791680D01*
X88481426Y-97899853D01*
X88758665Y-97955000D01*
X89041335Y-97955000D01*
X89318574Y-97899853D01*
X89579727Y-97791680D01*
X89814759Y-97634637D01*
X90014637Y-97434759D01*
X90170000Y-97202241D01*
X90325363Y-97434759D01*
X90525241Y-97634637D01*
X90760273Y-97791680D01*
X91021426Y-97899853D01*
X91298665Y-97955000D01*
X91581335Y-97955000D01*
X91858574Y-97899853D01*
X92119727Y-97791680D01*
X92354759Y-97634637D01*
X92554637Y-97434759D01*
X92710000Y-97202241D01*
X92865363Y-97434759D01*
X93065241Y-97634637D01*
X93300273Y-97791680D01*
X93561426Y-97899853D01*
X93838665Y-97955000D01*
X94121335Y-97955000D01*
X94398574Y-97899853D01*
X94659727Y-97791680D01*
X94894759Y-97634637D01*
X95094637Y-97434759D01*
X95250000Y-97202241D01*
X95405363Y-97434759D01*
X95605241Y-97634637D01*
X95840273Y-97791680D01*
X96101426Y-97899853D01*
X96378665Y-97955000D01*
X96661335Y-97955000D01*
X96938574Y-97899853D01*
X97199727Y-97791680D01*
X97434759Y-97634637D01*
X97634637Y-97434759D01*
X97790000Y-97202241D01*
X97945363Y-97434759D01*
X98145241Y-97634637D01*
X98380273Y-97791680D01*
X98641426Y-97899853D01*
X98918665Y-97955000D01*
X99201335Y-97955000D01*
X99478574Y-97899853D01*
X99739727Y-97791680D01*
X99974759Y-97634637D01*
X100174637Y-97434759D01*
X100330000Y-97202241D01*
X100485363Y-97434759D01*
X100685241Y-97634637D01*
X100920273Y-97791680D01*
X101181426Y-97899853D01*
X101458665Y-97955000D01*
X101741335Y-97955000D01*
X102018574Y-97899853D01*
X102279727Y-97791680D01*
X102514759Y-97634637D01*
X102714637Y-97434759D01*
X102870000Y-97202241D01*
X103025363Y-97434759D01*
X103225241Y-97634637D01*
X103460273Y-97791680D01*
X103721426Y-97899853D01*
X103998665Y-97955000D01*
X104281335Y-97955000D01*
X104558574Y-97899853D01*
X104819727Y-97791680D01*
X105054759Y-97634637D01*
X105254637Y-97434759D01*
X105410000Y-97202241D01*
X105565363Y-97434759D01*
X105765241Y-97634637D01*
X106000273Y-97791680D01*
X106261426Y-97899853D01*
X106538665Y-97955000D01*
X106821335Y-97955000D01*
X107098574Y-97899853D01*
X107359727Y-97791680D01*
X107594759Y-97634637D01*
X107794637Y-97434759D01*
X107951680Y-97199727D01*
X108059853Y-96938574D01*
X108115000Y-96661335D01*
X108115000Y-96378665D01*
X108059853Y-96101426D01*
X107951680Y-95840273D01*
X107794637Y-95605241D01*
X107594759Y-95405363D01*
X107359727Y-95248320D01*
X107098574Y-95140147D01*
X106821335Y-95085000D01*
X106538665Y-95085000D01*
X106261426Y-95140147D01*
X106000273Y-95248320D01*
X105765241Y-95405363D01*
X105565363Y-95605241D01*
X105410000Y-95837759D01*
X105254637Y-95605241D01*
X105054759Y-95405363D01*
X104819727Y-95248320D01*
X104558574Y-95140147D01*
X104281335Y-95085000D01*
X103998665Y-95085000D01*
X103721426Y-95140147D01*
X103460273Y-95248320D01*
X103225241Y-95405363D01*
X103025363Y-95605241D01*
X102870000Y-95837759D01*
X102714637Y-95605241D01*
X102514759Y-95405363D01*
X102279727Y-95248320D01*
X102018574Y-95140147D01*
X101741335Y-95085000D01*
X101458665Y-95085000D01*
X101181426Y-95140147D01*
X100920273Y-95248320D01*
X100685241Y-95405363D01*
X100485363Y-95605241D01*
X100330000Y-95837759D01*
X100174637Y-95605241D01*
X99974759Y-95405363D01*
X99739727Y-95248320D01*
X99478574Y-95140147D01*
X99201335Y-95085000D01*
X98918665Y-95085000D01*
X98641426Y-95140147D01*
X98380273Y-95248320D01*
X98145241Y-95405363D01*
X97945363Y-95605241D01*
X97790000Y-95837759D01*
X97634637Y-95605241D01*
X97434759Y-95405363D01*
X97199727Y-95248320D01*
X96938574Y-95140147D01*
X96661335Y-95085000D01*
X96378665Y-95085000D01*
X96101426Y-95140147D01*
X95840273Y-95248320D01*
X95605241Y-95405363D01*
X95405363Y-95605241D01*
X95250000Y-95837759D01*
X95094637Y-95605241D01*
X94894759Y-95405363D01*
X94659727Y-95248320D01*
X94398574Y-95140147D01*
X94121335Y-95085000D01*
X93838665Y-95085000D01*
X93561426Y-95140147D01*
X93300273Y-95248320D01*
X93065241Y-95405363D01*
X92865363Y-95605241D01*
X92710000Y-95837759D01*
X92554637Y-95605241D01*
X92354759Y-95405363D01*
X92119727Y-95248320D01*
X91858574Y-95140147D01*
X91581335Y-95085000D01*
X91298665Y-95085000D01*
X91021426Y-95140147D01*
X90760273Y-95248320D01*
X90525241Y-95405363D01*
X90325363Y-95605241D01*
X90170000Y-95837759D01*
X90014637Y-95605241D01*
X89814759Y-95405363D01*
X89579727Y-95248320D01*
X89318574Y-95140147D01*
X89041335Y-95085000D01*
X88758665Y-95085000D01*
X88481426Y-95140147D01*
X88220273Y-95248320D01*
X87985241Y-95405363D01*
X87785363Y-95605241D01*
X87628320Y-95840273D01*
X87623933Y-95850865D01*
X87512385Y-95664869D01*
X87323414Y-95456481D01*
X87097420Y-95288963D01*
X86843087Y-95168754D01*
X86709039Y-95128096D01*
X86487000Y-95250085D01*
X86233000Y-95250085D01*
X86010961Y-95128096D01*
X85876913Y-95168754D01*
X85622580Y-95288963D01*
X85396586Y-95456481D01*
X85207615Y-95664869D01*
X85090000Y-95860982D01*
X84972385Y-95664869D01*
X84783414Y-95456481D01*
X84557420Y-95288963D01*
X84303087Y-95168754D01*
X84169039Y-95128096D01*
X83947000Y-95250085D01*
X83693000Y-95250085D01*
X83470961Y-95128096D01*
X83336913Y-95168754D01*
X83082580Y-95288963D01*
X82856586Y-95456481D01*
X82667615Y-95664869D01*
X82556067Y-95850865D01*
X82551680Y-95840273D01*
X82394637Y-95605241D01*
X82194759Y-95405363D01*
X81959727Y-95248320D01*
X81698574Y-95140147D01*
X81421335Y-95085000D01*
X81138665Y-95085000D01*
X80861426Y-95140147D01*
X80600273Y-95248320D01*
X80365241Y-95405363D01*
X80166643Y-95603961D01*
X80165812Y-95595518D01*
X80129502Y-95475820D01*
X80070537Y-95365506D01*
X79991185Y-95268815D01*
X79894494Y-95189463D01*
X79784180Y-95130498D01*
X79664482Y-95094188D01*
X79540000Y-95081928D01*
X77940000Y-95081928D01*
X77815518Y-95094188D01*
X77695820Y-95130498D01*
X77585506Y-95189463D01*
X77495000Y-95263739D01*
X77495000Y-81999657D01*
X77625363Y-82194759D01*
X77825241Y-82394637D01*
X78060273Y-82551680D01*
X78321426Y-82659853D01*
X78598665Y-82715000D01*
X78881335Y-82715000D01*
X79158574Y-82659853D01*
X79419727Y-82551680D01*
X79654759Y-82394637D01*
X79854637Y-82194759D01*
X80011680Y-81959727D01*
X80016067Y-81949135D01*
X80127615Y-82135131D01*
X80316586Y-82343519D01*
X80542580Y-82511037D01*
X80796913Y-82631246D01*
X80930961Y-82671904D01*
X81153000Y-82549915D01*
X81153000Y-81407000D01*
X81133000Y-81407000D01*
X81133000Y-81153000D01*
X81153000Y-81153000D01*
X81153000Y-80010085D01*
X81407000Y-80010085D01*
X81407000Y-81153000D01*
X81427000Y-81153000D01*
X81427000Y-81407000D01*
X81407000Y-81407000D01*
X81407000Y-82549915D01*
X81629039Y-82671904D01*
X81763087Y-82631246D01*
X82017420Y-82511037D01*
X82243414Y-82343519D01*
X82432385Y-82135131D01*
X82543933Y-81949135D01*
X82548320Y-81959727D01*
X82705363Y-82194759D01*
X82905241Y-82394637D01*
X83140273Y-82551680D01*
X83401426Y-82659853D01*
X83678665Y-82715000D01*
X83961335Y-82715000D01*
X84238574Y-82659853D01*
X84499727Y-82551680D01*
X84734759Y-82394637D01*
X84934637Y-82194759D01*
X85090000Y-81962241D01*
X85245363Y-82194759D01*
X85445241Y-82394637D01*
X85680273Y-82551680D01*
X85941426Y-82659853D01*
X86218665Y-82715000D01*
X86501335Y-82715000D01*
X86778574Y-82659853D01*
X87039727Y-82551680D01*
X87274759Y-82394637D01*
X87474637Y-82194759D01*
X87630000Y-81962241D01*
X87785363Y-82194759D01*
X87985241Y-82394637D01*
X88220273Y-82551680D01*
X88481426Y-82659853D01*
X88758665Y-82715000D01*
X89041335Y-82715000D01*
X89318574Y-82659853D01*
X89579727Y-82551680D01*
X89814759Y-82394637D01*
X90014637Y-82194759D01*
X90170000Y-81962241D01*
X90325363Y-82194759D01*
X90525241Y-82394637D01*
X90760273Y-82551680D01*
X91021426Y-82659853D01*
X91298665Y-82715000D01*
X91581335Y-82715000D01*
X91858574Y-82659853D01*
X92119727Y-82551680D01*
X92354759Y-82394637D01*
X92554637Y-82194759D01*
X92710000Y-81962241D01*
X92865363Y-82194759D01*
X93065241Y-82394637D01*
X93300273Y-82551680D01*
X93561426Y-82659853D01*
X93838665Y-82715000D01*
X94121335Y-82715000D01*
X94398574Y-82659853D01*
X94659727Y-82551680D01*
X94894759Y-82394637D01*
X95094637Y-82194759D01*
X95250000Y-81962241D01*
X95405363Y-82194759D01*
X95605241Y-82394637D01*
X95840273Y-82551680D01*
X96101426Y-82659853D01*
X96378665Y-82715000D01*
X96661335Y-82715000D01*
X96938574Y-82659853D01*
X97199727Y-82551680D01*
X97434759Y-82394637D01*
X97634637Y-82194759D01*
X97790000Y-81962241D01*
X97945363Y-82194759D01*
X98145241Y-82394637D01*
X98380273Y-82551680D01*
X98641426Y-82659853D01*
X98918665Y-82715000D01*
X99201335Y-82715000D01*
X99478574Y-82659853D01*
X99739727Y-82551680D01*
X99974759Y-82394637D01*
X100174637Y-82194759D01*
X100330000Y-81962241D01*
X100485363Y-82194759D01*
X100685241Y-82394637D01*
X100920273Y-82551680D01*
X101181426Y-82659853D01*
X101458665Y-82715000D01*
X101741335Y-82715000D01*
X102018574Y-82659853D01*
X102279727Y-82551680D01*
X102514759Y-82394637D01*
X102714637Y-82194759D01*
X102870000Y-81962241D01*
X103025363Y-82194759D01*
X103225241Y-82394637D01*
X103460273Y-82551680D01*
X103721426Y-82659853D01*
X103998665Y-82715000D01*
X104281335Y-82715000D01*
X104558574Y-82659853D01*
X104819727Y-82551680D01*
X105054759Y-82394637D01*
X105254637Y-82194759D01*
X105410000Y-81962241D01*
X105565363Y-82194759D01*
X105765241Y-82394637D01*
X106000273Y-82551680D01*
X106261426Y-82659853D01*
X106538665Y-82715000D01*
X106821335Y-82715000D01*
X107098574Y-82659853D01*
X107359727Y-82551680D01*
X107594759Y-82394637D01*
X107794637Y-82194759D01*
X107951680Y-81959727D01*
X108059853Y-81698574D01*
X108081000Y-81592262D01*
X108081001Y-95165521D01*
X108076719Y-95209000D01*
X108093805Y-95382490D01*
X108144412Y-95549313D01*
X108226590Y-95703059D01*
X108309468Y-95804046D01*
X108309471Y-95804049D01*
X108337184Y-95837817D01*
X108370951Y-95865529D01*
X110204983Y-97699561D01*
X110198000Y-97734665D01*
X110198000Y-98017335D01*
X110253147Y-98294574D01*
X110361320Y-98555727D01*
X110518363Y-98790759D01*
X110718241Y-98990637D01*
X110953273Y-99147680D01*
X111214426Y-99255853D01*
X111491665Y-99311000D01*
X111774335Y-99311000D01*
X112051574Y-99255853D01*
X112312727Y-99147680D01*
X112547759Y-98990637D01*
X112747637Y-98790759D01*
X112904680Y-98555727D01*
X113012853Y-98294574D01*
X113068000Y-98017335D01*
X113068000Y-97734665D01*
X113012853Y-97457426D01*
X112904680Y-97196273D01*
X112747637Y-96961241D01*
X112547759Y-96761363D01*
X112312727Y-96604320D01*
X112051574Y-96496147D01*
X112025699Y-96491000D01*
X112051574Y-96485853D01*
X112312727Y-96377680D01*
X112547759Y-96220637D01*
X112747637Y-96020759D01*
X112904680Y-95785727D01*
X113012853Y-95524574D01*
X113068000Y-95247335D01*
X113068000Y-94964665D01*
X113012853Y-94687426D01*
X112904680Y-94426273D01*
X112747637Y-94191241D01*
X112547759Y-93991363D01*
X112312727Y-93834320D01*
X112051574Y-93726147D01*
X112025699Y-93721000D01*
X112051574Y-93715853D01*
X112312727Y-93607680D01*
X112547759Y-93450637D01*
X112747637Y-93250759D01*
X112904680Y-93015727D01*
X113012853Y-92754574D01*
X113068000Y-92477335D01*
X113068000Y-92194665D01*
X113012853Y-91917426D01*
X112904680Y-91656273D01*
X112747637Y-91421241D01*
X112547759Y-91221363D01*
X112312727Y-91064320D01*
X112051574Y-90956147D01*
X112023118Y-90950487D01*
X112249292Y-90869603D01*
X112374514Y-90802671D01*
X112446097Y-90558702D01*
X111633000Y-89745605D01*
X110819903Y-90558702D01*
X110891486Y-90802671D01*
X111146996Y-90923571D01*
X111249289Y-90949212D01*
X111214426Y-90956147D01*
X110953273Y-91064320D01*
X110718241Y-91221363D01*
X110518363Y-91421241D01*
X110361320Y-91656273D01*
X110253147Y-91917426D01*
X110198000Y-92194665D01*
X110198000Y-92477335D01*
X110253147Y-92754574D01*
X110361320Y-93015727D01*
X110518363Y-93250759D01*
X110718241Y-93450637D01*
X110953273Y-93607680D01*
X111214426Y-93715853D01*
X111240301Y-93721000D01*
X111214426Y-93726147D01*
X110953273Y-93834320D01*
X110718241Y-93991363D01*
X110518363Y-94191241D01*
X110361320Y-94426273D01*
X110253147Y-94687426D01*
X110198000Y-94964665D01*
X110198000Y-95189422D01*
X109851000Y-94842422D01*
X109851000Y-89636512D01*
X110192783Y-89636512D01*
X110234213Y-89916130D01*
X110329397Y-90182292D01*
X110396329Y-90307514D01*
X110640298Y-90379097D01*
X111453395Y-89566000D01*
X111812605Y-89566000D01*
X112625702Y-90379097D01*
X112869671Y-90307514D01*
X112990571Y-90052004D01*
X113059300Y-89777816D01*
X113073217Y-89495488D01*
X113031787Y-89215870D01*
X112936603Y-88949708D01*
X112869671Y-88824486D01*
X112625702Y-88752903D01*
X111812605Y-89566000D01*
X111453395Y-89566000D01*
X110640298Y-88752903D01*
X110396329Y-88824486D01*
X110275429Y-89079996D01*
X110206700Y-89354184D01*
X110192783Y-89636512D01*
X109851000Y-89636512D01*
X109851000Y-87788702D01*
X110819903Y-87788702D01*
X110891486Y-88032671D01*
X111146996Y-88153571D01*
X111249305Y-88179216D01*
X111016708Y-88262397D01*
X110891486Y-88329329D01*
X110819903Y-88573298D01*
X111633000Y-89386395D01*
X112446097Y-88573298D01*
X112374514Y-88329329D01*
X112119004Y-88208429D01*
X112016695Y-88182784D01*
X112249292Y-88099603D01*
X112374514Y-88032671D01*
X112446097Y-87788702D01*
X111633000Y-86975605D01*
X110819903Y-87788702D01*
X109851000Y-87788702D01*
X109851000Y-86866512D01*
X110192783Y-86866512D01*
X110234213Y-87146130D01*
X110329397Y-87412292D01*
X110396329Y-87537514D01*
X110640298Y-87609097D01*
X111453395Y-86796000D01*
X111812605Y-86796000D01*
X112625702Y-87609097D01*
X112869671Y-87537514D01*
X112990571Y-87282004D01*
X113059300Y-87007816D01*
X113073217Y-86725488D01*
X113031787Y-86445870D01*
X112936603Y-86179708D01*
X112869671Y-86054486D01*
X112625702Y-85982903D01*
X111812605Y-86796000D01*
X111453395Y-86796000D01*
X110640298Y-85982903D01*
X110396329Y-86054486D01*
X110275429Y-86309996D01*
X110206700Y-86584184D01*
X110192783Y-86866512D01*
X109851000Y-86866512D01*
X109851000Y-81519578D01*
X110198000Y-81172578D01*
X110198000Y-81397335D01*
X110253147Y-81674574D01*
X110361320Y-81935727D01*
X110518363Y-82170759D01*
X110718241Y-82370637D01*
X110953273Y-82527680D01*
X111214426Y-82635853D01*
X111240301Y-82641000D01*
X111214426Y-82646147D01*
X110953273Y-82754320D01*
X110718241Y-82911363D01*
X110518363Y-83111241D01*
X110361320Y-83346273D01*
X110253147Y-83607426D01*
X110198000Y-83884665D01*
X110198000Y-84167335D01*
X110253147Y-84444574D01*
X110361320Y-84705727D01*
X110518363Y-84940759D01*
X110718241Y-85140637D01*
X110953273Y-85297680D01*
X111214426Y-85405853D01*
X111242882Y-85411513D01*
X111016708Y-85492397D01*
X110891486Y-85559329D01*
X110819903Y-85803298D01*
X111633000Y-86616395D01*
X112446097Y-85803298D01*
X112374514Y-85559329D01*
X112119004Y-85438429D01*
X112016711Y-85412788D01*
X112051574Y-85405853D01*
X112312727Y-85297680D01*
X112547759Y-85140637D01*
X112747637Y-84940759D01*
X112904680Y-84705727D01*
X113012853Y-84444574D01*
X113068000Y-84167335D01*
X113068000Y-83884665D01*
X113012853Y-83607426D01*
X112904680Y-83346273D01*
X112747637Y-83111241D01*
X112547759Y-82911363D01*
X112312727Y-82754320D01*
X112051574Y-82646147D01*
X112025699Y-82641000D01*
X112051574Y-82635853D01*
X112312727Y-82527680D01*
X112547759Y-82370637D01*
X112747637Y-82170759D01*
X112904680Y-81935727D01*
X113012853Y-81674574D01*
X113068000Y-81397335D01*
X113068000Y-81114665D01*
X113012853Y-80837426D01*
X112904680Y-80576273D01*
X112747637Y-80341241D01*
X112547759Y-80141363D01*
X112312727Y-79984320D01*
X112167275Y-79924072D01*
X112433000Y-79924072D01*
X112557482Y-79911812D01*
X112677180Y-79875502D01*
X112787494Y-79816537D01*
X112884185Y-79737185D01*
X112963537Y-79640494D01*
X112965186Y-79637409D01*
X113041226Y-79713449D01*
X113038000Y-79729665D01*
X113038000Y-80012335D01*
X113093147Y-80289574D01*
X113201320Y-80550727D01*
X113358363Y-80785759D01*
X113558241Y-80985637D01*
X113793273Y-81142680D01*
X114054426Y-81250853D01*
X114080301Y-81256000D01*
X114054426Y-81261147D01*
X113793273Y-81369320D01*
X113558241Y-81526363D01*
X113358363Y-81726241D01*
X113201320Y-81961273D01*
X113093147Y-82222426D01*
X113038000Y-82499665D01*
X113038000Y-82782335D01*
X113093147Y-83059574D01*
X113201320Y-83320727D01*
X113358363Y-83555759D01*
X113558241Y-83755637D01*
X113793273Y-83912680D01*
X114054426Y-84020853D01*
X114080301Y-84026000D01*
X114054426Y-84031147D01*
X113793273Y-84139320D01*
X113558241Y-84296363D01*
X113358363Y-84496241D01*
X113201320Y-84731273D01*
X113093147Y-84992426D01*
X113038000Y-85269665D01*
X113038000Y-85552335D01*
X113093147Y-85829574D01*
X113201320Y-86090727D01*
X113358363Y-86325759D01*
X113558241Y-86525637D01*
X113793273Y-86682680D01*
X114054426Y-86790853D01*
X114080301Y-86796000D01*
X114054426Y-86801147D01*
X113793273Y-86909320D01*
X113558241Y-87066363D01*
X113358363Y-87266241D01*
X113201320Y-87501273D01*
X113093147Y-87762426D01*
X113038000Y-88039665D01*
X113038000Y-88322335D01*
X113093147Y-88599574D01*
X113201320Y-88860727D01*
X113358363Y-89095759D01*
X113558241Y-89295637D01*
X113793273Y-89452680D01*
X114054426Y-89560853D01*
X114080301Y-89566000D01*
X114054426Y-89571147D01*
X113793273Y-89679320D01*
X113558241Y-89836363D01*
X113358363Y-90036241D01*
X113201320Y-90271273D01*
X113093147Y-90532426D01*
X113038000Y-90809665D01*
X113038000Y-91092335D01*
X113093147Y-91369574D01*
X113201320Y-91630727D01*
X113358363Y-91865759D01*
X113558241Y-92065637D01*
X113793273Y-92222680D01*
X114054426Y-92330853D01*
X114080301Y-92336000D01*
X114054426Y-92341147D01*
X113793273Y-92449320D01*
X113558241Y-92606363D01*
X113358363Y-92806241D01*
X113201320Y-93041273D01*
X113093147Y-93302426D01*
X113038000Y-93579665D01*
X113038000Y-93862335D01*
X113093147Y-94139574D01*
X113201320Y-94400727D01*
X113358363Y-94635759D01*
X113558241Y-94835637D01*
X113793273Y-94992680D01*
X114054426Y-95100853D01*
X114080301Y-95106000D01*
X114054426Y-95111147D01*
X113793273Y-95219320D01*
X113558241Y-95376363D01*
X113358363Y-95576241D01*
X113201320Y-95811273D01*
X113093147Y-96072426D01*
X113038000Y-96349665D01*
X113038000Y-96632335D01*
X113093147Y-96909574D01*
X113201320Y-97170727D01*
X113358363Y-97405759D01*
X113558241Y-97605637D01*
X113793273Y-97762680D01*
X114054426Y-97870853D01*
X114331665Y-97926000D01*
X114614335Y-97926000D01*
X114891574Y-97870853D01*
X115152727Y-97762680D01*
X115387759Y-97605637D01*
X115587637Y-97405759D01*
X115744680Y-97170727D01*
X115852853Y-96909574D01*
X115908000Y-96632335D01*
X115908000Y-96349665D01*
X115852853Y-96072426D01*
X115744680Y-95811273D01*
X115587637Y-95576241D01*
X115387759Y-95376363D01*
X115152727Y-95219320D01*
X114891574Y-95111147D01*
X114865699Y-95106000D01*
X114891574Y-95100853D01*
X115152727Y-94992680D01*
X115387759Y-94835637D01*
X115587637Y-94635759D01*
X115744680Y-94400727D01*
X115852853Y-94139574D01*
X115908000Y-93862335D01*
X115908000Y-93579665D01*
X115852853Y-93302426D01*
X115744680Y-93041273D01*
X115587637Y-92806241D01*
X115387759Y-92606363D01*
X115152727Y-92449320D01*
X114891574Y-92341147D01*
X114865699Y-92336000D01*
X114891574Y-92330853D01*
X115152727Y-92222680D01*
X115387759Y-92065637D01*
X115587637Y-91865759D01*
X115744680Y-91630727D01*
X115852853Y-91369574D01*
X115908000Y-91092335D01*
X115908000Y-90809665D01*
X115852853Y-90532426D01*
X115744680Y-90271273D01*
X115587637Y-90036241D01*
X115387759Y-89836363D01*
X115152727Y-89679320D01*
X114891574Y-89571147D01*
X114865699Y-89566000D01*
X114891574Y-89560853D01*
X115152727Y-89452680D01*
X115387759Y-89295637D01*
X115587637Y-89095759D01*
X115744680Y-88860727D01*
X115852853Y-88599574D01*
X115908000Y-88322335D01*
X115908000Y-88039665D01*
X115852853Y-87762426D01*
X115744680Y-87501273D01*
X115587637Y-87266241D01*
X115387759Y-87066363D01*
X115152727Y-86909320D01*
X114891574Y-86801147D01*
X114865699Y-86796000D01*
X114891574Y-86790853D01*
X115152727Y-86682680D01*
X115387759Y-86525637D01*
X115587637Y-86325759D01*
X115744680Y-86090727D01*
X115852853Y-85829574D01*
X115908000Y-85552335D01*
X115908000Y-85269665D01*
X115852853Y-84992426D01*
X115744680Y-84731273D01*
X115587637Y-84496241D01*
X115387759Y-84296363D01*
X115152727Y-84139320D01*
X114891574Y-84031147D01*
X114865699Y-84026000D01*
X114891574Y-84020853D01*
X115152727Y-83912680D01*
X115387759Y-83755637D01*
X115587637Y-83555759D01*
X115744680Y-83320727D01*
X115852853Y-83059574D01*
X115908000Y-82782335D01*
X115908000Y-82499665D01*
X115852853Y-82222426D01*
X115744680Y-81961273D01*
X115587637Y-81726241D01*
X115387759Y-81526363D01*
X115152727Y-81369320D01*
X114891574Y-81261147D01*
X114865699Y-81256000D01*
X114891574Y-81250853D01*
X115152727Y-81142680D01*
X115387759Y-80985637D01*
X115587637Y-80785759D01*
X115744680Y-80550727D01*
X115852853Y-80289574D01*
X115908000Y-80012335D01*
X115908000Y-79729665D01*
X115852853Y-79452426D01*
X115744680Y-79191273D01*
X115587637Y-78956241D01*
X115387759Y-78756363D01*
X115152727Y-78599320D01*
X114891574Y-78491147D01*
X114614335Y-78436000D01*
X114331665Y-78436000D01*
X114218695Y-78458471D01*
X113667988Y-77907765D01*
X113641054Y-77874946D01*
X113510102Y-77767476D01*
X113360700Y-77687619D01*
X113198589Y-77638444D01*
X113072246Y-77626000D01*
X113072239Y-77626000D01*
X113065093Y-77625296D01*
X113058812Y-77561518D01*
X113022502Y-77441820D01*
X112963537Y-77331506D01*
X112884185Y-77234815D01*
X112787494Y-77155463D01*
X112677180Y-77096498D01*
X112557482Y-77060188D01*
X112433000Y-77047928D01*
X110833000Y-77047928D01*
X110708518Y-77060188D01*
X110588820Y-77096498D01*
X110478506Y-77155463D01*
X110381815Y-77234815D01*
X110302463Y-77331506D01*
X110243498Y-77441820D01*
X110207188Y-77561518D01*
X110200837Y-77626000D01*
X107999922Y-77626000D01*
X108058185Y-77578185D01*
X108137537Y-77481494D01*
X108196502Y-77371180D01*
X108232812Y-77251482D01*
X108245072Y-77127000D01*
X108245072Y-75527000D01*
X108232812Y-75402518D01*
X108196502Y-75282820D01*
X108137537Y-75172506D01*
X108058185Y-75075815D01*
X107961494Y-74996463D01*
X107851180Y-74937498D01*
X107731482Y-74901188D01*
X107723039Y-74900357D01*
X107921637Y-74701759D01*
X108078680Y-74466727D01*
X108186853Y-74205574D01*
X108242000Y-73928335D01*
X108242000Y-73645665D01*
X108186853Y-73368426D01*
X108078680Y-73107273D01*
X107921637Y-72872241D01*
X107721759Y-72672363D01*
X107489241Y-72517000D01*
X107721759Y-72361637D01*
X107921637Y-72161759D01*
X108078680Y-71926727D01*
X108186853Y-71665574D01*
X108242000Y-71388335D01*
X108242000Y-71105665D01*
X108186853Y-70828426D01*
X108078680Y-70567273D01*
X107921637Y-70332241D01*
X107721759Y-70132363D01*
X107486727Y-69975320D01*
X107225574Y-69867147D01*
X106948335Y-69812000D01*
X106665665Y-69812000D01*
X106388426Y-69867147D01*
X106127273Y-69975320D01*
X105892241Y-70132363D01*
X105692363Y-70332241D01*
X105535320Y-70567273D01*
X105427147Y-70828426D01*
X105372000Y-71105665D01*
X105372000Y-71388335D01*
X105427147Y-71665574D01*
X105535320Y-71926727D01*
X105692363Y-72161759D01*
X105892241Y-72361637D01*
X106124759Y-72517000D01*
X105892241Y-72672363D01*
X105692363Y-72872241D01*
X105535320Y-73107273D01*
X105427147Y-73368426D01*
X105372000Y-73645665D01*
X105372000Y-73928335D01*
X105427147Y-74205574D01*
X105535320Y-74466727D01*
X105692363Y-74701759D01*
X105890961Y-74900357D01*
X105882518Y-74901188D01*
X105762820Y-74937498D01*
X105652506Y-74996463D01*
X105555815Y-75075815D01*
X105476463Y-75172506D01*
X105417498Y-75282820D01*
X105381188Y-75402518D01*
X105368928Y-75527000D01*
X105368928Y-77127000D01*
X105381188Y-77251482D01*
X105417498Y-77371180D01*
X105476463Y-77481494D01*
X105555815Y-77578185D01*
X105614078Y-77626000D01*
X99795491Y-77626000D01*
X99800881Y-77624070D01*
X100042131Y-77479385D01*
X100250519Y-77290414D01*
X100418037Y-77064420D01*
X100538246Y-76810087D01*
X100578904Y-76676039D01*
X100456915Y-76454000D01*
X99314000Y-76454000D01*
X99314000Y-76474000D01*
X99060000Y-76474000D01*
X99060000Y-76454000D01*
X97917085Y-76454000D01*
X97795096Y-76676039D01*
X97835754Y-76810087D01*
X97955963Y-77064420D01*
X98123481Y-77290414D01*
X98331869Y-77479385D01*
X98573119Y-77624070D01*
X98578509Y-77626000D01*
X89069246Y-77626000D01*
X89027000Y-77621839D01*
X88858410Y-77638444D01*
X88696299Y-77687619D01*
X88644259Y-77715436D01*
X88546898Y-77767476D01*
X88415946Y-77874946D01*
X88389017Y-77907759D01*
X86451777Y-79845000D01*
X86218665Y-79845000D01*
X85941426Y-79900147D01*
X85680273Y-80008320D01*
X85445241Y-80165363D01*
X85245363Y-80365241D01*
X85090000Y-80597759D01*
X84934637Y-80365241D01*
X84734759Y-80165363D01*
X84499727Y-80008320D01*
X84238574Y-79900147D01*
X83961335Y-79845000D01*
X83678665Y-79845000D01*
X83401426Y-79900147D01*
X83140273Y-80008320D01*
X82905241Y-80165363D01*
X82705363Y-80365241D01*
X82548320Y-80600273D01*
X82543933Y-80610865D01*
X82432385Y-80424869D01*
X82243414Y-80216481D01*
X82017420Y-80048963D01*
X81763087Y-79928754D01*
X81629039Y-79888096D01*
X81407000Y-80010085D01*
X81153000Y-80010085D01*
X80930961Y-79888096D01*
X80796913Y-79928754D01*
X80542580Y-80048963D01*
X80316586Y-80216481D01*
X80127615Y-80424869D01*
X80016067Y-80610865D01*
X80011680Y-80600273D01*
X79854637Y-80365241D01*
X79654759Y-80165363D01*
X79419727Y-80008320D01*
X79158574Y-79900147D01*
X78881335Y-79845000D01*
X78598665Y-79845000D01*
X78321426Y-79900147D01*
X78060273Y-80008320D01*
X77825241Y-80165363D01*
X77625363Y-80365241D01*
X77495000Y-80560343D01*
X77495000Y-79739370D01*
X86394409Y-74136039D01*
X97795096Y-74136039D01*
X97835754Y-74270087D01*
X97955963Y-74524420D01*
X98123481Y-74750414D01*
X98331869Y-74939385D01*
X98527982Y-75057000D01*
X98331869Y-75174615D01*
X98123481Y-75363586D01*
X97955963Y-75589580D01*
X97835754Y-75843913D01*
X97795096Y-75977961D01*
X97917085Y-76200000D01*
X99060000Y-76200000D01*
X99060000Y-73914000D01*
X99314000Y-73914000D01*
X99314000Y-76200000D01*
X100456915Y-76200000D01*
X100578904Y-75977961D01*
X100538246Y-75843913D01*
X100418037Y-75589580D01*
X100250519Y-75363586D01*
X100042131Y-75174615D01*
X99846018Y-75057000D01*
X100042131Y-74939385D01*
X100250519Y-74750414D01*
X100418037Y-74524420D01*
X100538246Y-74270087D01*
X100578904Y-74136039D01*
X100456915Y-73914000D01*
X99314000Y-73914000D01*
X99060000Y-73914000D01*
X97917085Y-73914000D01*
X97795096Y-74136039D01*
X86394409Y-74136039D01*
X90428527Y-71596039D01*
X97795096Y-71596039D01*
X97835754Y-71730087D01*
X97955963Y-71984420D01*
X98123481Y-72210414D01*
X98331869Y-72399385D01*
X98527982Y-72517000D01*
X98331869Y-72634615D01*
X98123481Y-72823586D01*
X97955963Y-73049580D01*
X97835754Y-73303913D01*
X97795096Y-73437961D01*
X97917085Y-73660000D01*
X99060000Y-73660000D01*
X99060000Y-71374000D01*
X99314000Y-71374000D01*
X99314000Y-73660000D01*
X100456915Y-73660000D01*
X100578904Y-73437961D01*
X100538246Y-73303913D01*
X100418037Y-73049580D01*
X100250519Y-72823586D01*
X100042131Y-72634615D01*
X99846018Y-72517000D01*
X100042131Y-72399385D01*
X100250519Y-72210414D01*
X100418037Y-71984420D01*
X100538246Y-71730087D01*
X100578904Y-71596039D01*
X100456915Y-71374000D01*
X99314000Y-71374000D01*
X99060000Y-71374000D01*
X97917085Y-71374000D01*
X97795096Y-71596039D01*
X90428527Y-71596039D01*
X91537239Y-70897961D01*
X97795096Y-70897961D01*
X97917085Y-71120000D01*
X99060000Y-71120000D01*
X99060000Y-69976376D01*
X99314000Y-69976376D01*
X99314000Y-71120000D01*
X100456915Y-71120000D01*
X100578904Y-70897961D01*
X100538246Y-70763913D01*
X100418037Y-70509580D01*
X100250519Y-70283586D01*
X100042131Y-70094615D01*
X99800881Y-69949930D01*
X99536040Y-69855091D01*
X99314000Y-69976376D01*
X99060000Y-69976376D01*
X98837960Y-69855091D01*
X98573119Y-69949930D01*
X98331869Y-70094615D01*
X98123481Y-70283586D01*
X97955963Y-70509580D01*
X97835754Y-70763913D01*
X97795096Y-70897961D01*
X91537239Y-70897961D01*
X94170473Y-69240000D01*
X111738848Y-69240000D01*
X111373285Y-69484262D01*
G37*
%TD.AperFunction*%
%TD*%
M02*
