%TF.GenerationSoftware,KiCad,Pcbnew,5.1.8*%
%TF.CreationDate,2021-01-07T17:22:46+01:00*%
%TF.ProjectId,gameport-adapter,67616d65-706f-4727-942d-616461707465,0.1*%
%TF.SameCoordinates,Original*%
%TF.FileFunction,Soldermask,Bot*%
%TF.FilePolarity,Negative*%
%FSLAX46Y46*%
G04 Gerber Fmt 4.6, Leading zero omitted, Abs format (unit mm)*
G04 Created by KiCad (PCBNEW 5.1.8) date 2021-01-07 17:22:46*
%MOMM*%
%LPD*%
G01*
G04 APERTURE LIST*
%ADD10O,1.600000X1.600000*%
%ADD11R,1.600000X1.600000*%
%ADD12C,4.000000*%
%ADD13C,1.600000*%
G04 APERTURE END LIST*
D10*
%TO.C,SW1*%
X99187000Y-76327000D03*
X106807000Y-71247000D03*
X99187000Y-73787000D03*
X106807000Y-73787000D03*
X99187000Y-71247000D03*
D11*
X106807000Y-76327000D03*
%TD*%
D10*
%TO.C,U1*%
X78740000Y-81280000D03*
X106680000Y-96520000D03*
X81280000Y-81280000D03*
X104140000Y-96520000D03*
X83820000Y-81280000D03*
X101600000Y-96520000D03*
X86360000Y-81280000D03*
X99060000Y-96520000D03*
X88900000Y-81280000D03*
X96520000Y-96520000D03*
X91440000Y-81280000D03*
X93980000Y-96520000D03*
X93980000Y-81280000D03*
X91440000Y-96520000D03*
X96520000Y-81280000D03*
X88900000Y-96520000D03*
X99060000Y-81280000D03*
X86360000Y-96520000D03*
X101600000Y-81280000D03*
X83820000Y-96520000D03*
X104140000Y-81280000D03*
X81280000Y-96520000D03*
X106680000Y-81280000D03*
D11*
X78740000Y-96520000D03*
%TD*%
D12*
%TO.C,CONN1*%
X113053000Y-71531000D03*
X113053000Y-104831000D03*
D13*
X114473000Y-96491000D03*
X114473000Y-93721000D03*
X114473000Y-90951000D03*
X114473000Y-88181000D03*
X114473000Y-85411000D03*
X114473000Y-82641000D03*
X114473000Y-79871000D03*
X111633000Y-97876000D03*
X111633000Y-95106000D03*
X111633000Y-92336000D03*
X111633000Y-89566000D03*
X111633000Y-86796000D03*
X111633000Y-84026000D03*
X111633000Y-81256000D03*
D11*
X111633000Y-78486000D03*
%TD*%
M02*
