%TF.GenerationSoftware,KiCad,Pcbnew,5.1.7*%
%TF.CreationDate,2020-11-23T17:15:20+01:00*%
%TF.ProjectId,gameport-adapter,67616d65-706f-4727-942d-616461707465,0.1*%
%TF.SameCoordinates,Original*%
%TF.FileFunction,Legend,Top*%
%TF.FilePolarity,Positive*%
%FSLAX46Y46*%
G04 Gerber Fmt 4.6, Leading zero omitted, Abs format (unit mm)*
G04 Created by KiCad (PCBNEW 5.1.7) date 2020-11-23 17:15:20*
%MOMM*%
%LPD*%
G01*
G04 APERTURE LIST*
%ADD10C,0.200000*%
%ADD11C,0.350000*%
%ADD12C,0.120000*%
%ADD13C,0.150000*%
G04 APERTURE END LIST*
D10*
X96574285Y-102142857D02*
X96174285Y-101571428D01*
X95888571Y-102142857D02*
X95888571Y-100942857D01*
X96345714Y-100942857D01*
X96460000Y-101000000D01*
X96517142Y-101057142D01*
X96574285Y-101171428D01*
X96574285Y-101342857D01*
X96517142Y-101457142D01*
X96460000Y-101514285D01*
X96345714Y-101571428D01*
X95888571Y-101571428D01*
X97545714Y-102085714D02*
X97431428Y-102142857D01*
X97202857Y-102142857D01*
X97088571Y-102085714D01*
X97031428Y-101971428D01*
X97031428Y-101514285D01*
X97088571Y-101400000D01*
X97202857Y-101342857D01*
X97431428Y-101342857D01*
X97545714Y-101400000D01*
X97602857Y-101514285D01*
X97602857Y-101628571D01*
X97031428Y-101742857D01*
X98002857Y-101342857D02*
X98288571Y-102142857D01*
X98574285Y-101342857D01*
X100174285Y-100942857D02*
X100288571Y-100942857D01*
X100402857Y-101000000D01*
X100460000Y-101057142D01*
X100517142Y-101171428D01*
X100574285Y-101400000D01*
X100574285Y-101685714D01*
X100517142Y-101914285D01*
X100460000Y-102028571D01*
X100402857Y-102085714D01*
X100288571Y-102142857D01*
X100174285Y-102142857D01*
X100060000Y-102085714D01*
X100002857Y-102028571D01*
X99945714Y-101914285D01*
X99888571Y-101685714D01*
X99888571Y-101400000D01*
X99945714Y-101171428D01*
X100002857Y-101057142D01*
X100060000Y-101000000D01*
X100174285Y-100942857D01*
X101088571Y-102028571D02*
X101145714Y-102085714D01*
X101088571Y-102142857D01*
X101031428Y-102085714D01*
X101088571Y-102028571D01*
X101088571Y-102142857D01*
X102288571Y-102142857D02*
X101602857Y-102142857D01*
X101945714Y-102142857D02*
X101945714Y-100942857D01*
X101831428Y-101114285D01*
X101717142Y-101228571D01*
X101602857Y-101285714D01*
D11*
X101715238Y-94740000D02*
X101496190Y-94630476D01*
X101167619Y-94630476D01*
X100839047Y-94740000D01*
X100620000Y-94959047D01*
X100510476Y-95178095D01*
X100400952Y-95616190D01*
X100400952Y-95944761D01*
X100510476Y-96382857D01*
X100620000Y-96601904D01*
X100839047Y-96820952D01*
X101167619Y-96930476D01*
X101386666Y-96930476D01*
X101715238Y-96820952D01*
X101824761Y-96711428D01*
X101824761Y-95944761D01*
X101386666Y-95944761D01*
X103796190Y-96930476D02*
X103796190Y-95725714D01*
X103686666Y-95506666D01*
X103467619Y-95397142D01*
X103029523Y-95397142D01*
X102810476Y-95506666D01*
X103796190Y-96820952D02*
X103577142Y-96930476D01*
X103029523Y-96930476D01*
X102810476Y-96820952D01*
X102700952Y-96601904D01*
X102700952Y-96382857D01*
X102810476Y-96163809D01*
X103029523Y-96054285D01*
X103577142Y-96054285D01*
X103796190Y-95944761D01*
X104891428Y-96930476D02*
X104891428Y-95397142D01*
X104891428Y-95616190D02*
X105000952Y-95506666D01*
X105220000Y-95397142D01*
X105548571Y-95397142D01*
X105767619Y-95506666D01*
X105877142Y-95725714D01*
X105877142Y-96930476D01*
X105877142Y-95725714D02*
X105986666Y-95506666D01*
X106205714Y-95397142D01*
X106534285Y-95397142D01*
X106753333Y-95506666D01*
X106862857Y-95725714D01*
X106862857Y-96930476D01*
X108834285Y-96820952D02*
X108615238Y-96930476D01*
X108177142Y-96930476D01*
X107958095Y-96820952D01*
X107848571Y-96601904D01*
X107848571Y-95725714D01*
X107958095Y-95506666D01*
X108177142Y-95397142D01*
X108615238Y-95397142D01*
X108834285Y-95506666D01*
X108943809Y-95725714D01*
X108943809Y-95944761D01*
X107848571Y-96163809D01*
X109929523Y-96930476D02*
X109929523Y-94630476D01*
X110805714Y-94630476D01*
X111024761Y-94740000D01*
X111134285Y-94849523D01*
X111243809Y-95068571D01*
X111243809Y-95397142D01*
X111134285Y-95616190D01*
X111024761Y-95725714D01*
X110805714Y-95835238D01*
X109929523Y-95835238D01*
X112558095Y-96930476D02*
X112339047Y-96820952D01*
X112229523Y-96711428D01*
X112120000Y-96492380D01*
X112120000Y-95835238D01*
X112229523Y-95616190D01*
X112339047Y-95506666D01*
X112558095Y-95397142D01*
X112886666Y-95397142D01*
X113105714Y-95506666D01*
X113215238Y-95616190D01*
X113324761Y-95835238D01*
X113324761Y-96492380D01*
X113215238Y-96711428D01*
X113105714Y-96820952D01*
X112886666Y-96930476D01*
X112558095Y-96930476D01*
X114310476Y-96930476D02*
X114310476Y-95397142D01*
X114310476Y-95835238D02*
X114420000Y-95616190D01*
X114529523Y-95506666D01*
X114748571Y-95397142D01*
X114967619Y-95397142D01*
X115405714Y-95397142D02*
X116281904Y-95397142D01*
X115734285Y-94630476D02*
X115734285Y-96601904D01*
X115843809Y-96820952D01*
X116062857Y-96930476D01*
X116281904Y-96930476D01*
X118691428Y-96273333D02*
X119786666Y-96273333D01*
X118472380Y-96930476D02*
X119239047Y-94630476D01*
X120005714Y-96930476D01*
X121758095Y-96930476D02*
X121758095Y-94630476D01*
X121758095Y-96820952D02*
X121539047Y-96930476D01*
X121100952Y-96930476D01*
X120881904Y-96820952D01*
X120772380Y-96711428D01*
X120662857Y-96492380D01*
X120662857Y-95835238D01*
X120772380Y-95616190D01*
X120881904Y-95506666D01*
X121100952Y-95397142D01*
X121539047Y-95397142D01*
X121758095Y-95506666D01*
X123839047Y-96930476D02*
X123839047Y-95725714D01*
X123729523Y-95506666D01*
X123510476Y-95397142D01*
X123072380Y-95397142D01*
X122853333Y-95506666D01*
X123839047Y-96820952D02*
X123620000Y-96930476D01*
X123072380Y-96930476D01*
X122853333Y-96820952D01*
X122743809Y-96601904D01*
X122743809Y-96382857D01*
X122853333Y-96163809D01*
X123072380Y-96054285D01*
X123620000Y-96054285D01*
X123839047Y-95944761D01*
X124934285Y-95397142D02*
X124934285Y-97697142D01*
X124934285Y-95506666D02*
X125153333Y-95397142D01*
X125591428Y-95397142D01*
X125810476Y-95506666D01*
X125920000Y-95616190D01*
X126029523Y-95835238D01*
X126029523Y-96492380D01*
X125920000Y-96711428D01*
X125810476Y-96820952D01*
X125591428Y-96930476D01*
X125153333Y-96930476D01*
X124934285Y-96820952D01*
X126686666Y-95397142D02*
X127562857Y-95397142D01*
X127015238Y-94630476D02*
X127015238Y-96601904D01*
X127124761Y-96820952D01*
X127343809Y-96930476D01*
X127562857Y-96930476D01*
X129205714Y-96820952D02*
X128986666Y-96930476D01*
X128548571Y-96930476D01*
X128329523Y-96820952D01*
X128220000Y-96601904D01*
X128220000Y-95725714D01*
X128329523Y-95506666D01*
X128548571Y-95397142D01*
X128986666Y-95397142D01*
X129205714Y-95506666D01*
X129315238Y-95725714D01*
X129315238Y-95944761D01*
X128220000Y-96163809D01*
X130300952Y-96930476D02*
X130300952Y-95397142D01*
X130300952Y-95835238D02*
X130410476Y-95616190D01*
X130520000Y-95506666D01*
X130739047Y-95397142D01*
X130958095Y-95397142D01*
X104453333Y-100730476D02*
X104453333Y-98430476D01*
X104453333Y-99306666D02*
X104672380Y-99197142D01*
X105110476Y-99197142D01*
X105329523Y-99306666D01*
X105439047Y-99416190D01*
X105548571Y-99635238D01*
X105548571Y-100292380D01*
X105439047Y-100511428D01*
X105329523Y-100620952D01*
X105110476Y-100730476D01*
X104672380Y-100730476D01*
X104453333Y-100620952D01*
X106315238Y-99197142D02*
X106862857Y-100730476D01*
X107410476Y-99197142D02*
X106862857Y-100730476D01*
X106643809Y-101278095D01*
X106534285Y-101387619D01*
X106315238Y-101497142D01*
X110039047Y-100730476D02*
X110039047Y-98430476D01*
X111353333Y-100730476D01*
X111353333Y-98430476D01*
X113324761Y-100620952D02*
X113105714Y-100730476D01*
X112667619Y-100730476D01*
X112448571Y-100620952D01*
X112339047Y-100401904D01*
X112339047Y-99525714D01*
X112448571Y-99306666D01*
X112667619Y-99197142D01*
X113105714Y-99197142D01*
X113324761Y-99306666D01*
X113434285Y-99525714D01*
X113434285Y-99744761D01*
X112339047Y-99963809D01*
X115405714Y-100620952D02*
X115186666Y-100730476D01*
X114748571Y-100730476D01*
X114529523Y-100620952D01*
X114420000Y-100511428D01*
X114310476Y-100292380D01*
X114310476Y-99635238D01*
X114420000Y-99416190D01*
X114529523Y-99306666D01*
X114748571Y-99197142D01*
X115186666Y-99197142D01*
X115405714Y-99306666D01*
X116391428Y-100730476D02*
X116391428Y-99197142D01*
X116391428Y-99635238D02*
X116500952Y-99416190D01*
X116610476Y-99306666D01*
X116829523Y-99197142D01*
X117048571Y-99197142D01*
X118143809Y-100730476D02*
X117924761Y-100620952D01*
X117815238Y-100511428D01*
X117705714Y-100292380D01*
X117705714Y-99635238D01*
X117815238Y-99416190D01*
X117924761Y-99306666D01*
X118143809Y-99197142D01*
X118472380Y-99197142D01*
X118691428Y-99306666D01*
X118800952Y-99416190D01*
X118910476Y-99635238D01*
X118910476Y-100292380D01*
X118800952Y-100511428D01*
X118691428Y-100620952D01*
X118472380Y-100730476D01*
X118143809Y-100730476D01*
X119677142Y-99197142D02*
X120115238Y-100730476D01*
X120553333Y-99635238D01*
X120991428Y-100730476D01*
X121429523Y-99197142D01*
X123291428Y-100730476D02*
X123291428Y-99525714D01*
X123181904Y-99306666D01*
X122962857Y-99197142D01*
X122524761Y-99197142D01*
X122305714Y-99306666D01*
X123291428Y-100620952D02*
X123072380Y-100730476D01*
X122524761Y-100730476D01*
X122305714Y-100620952D01*
X122196190Y-100401904D01*
X122196190Y-100182857D01*
X122305714Y-99963809D01*
X122524761Y-99854285D01*
X123072380Y-99854285D01*
X123291428Y-99744761D01*
X124386666Y-100730476D02*
X124386666Y-99197142D01*
X124386666Y-99635238D02*
X124496190Y-99416190D01*
X124605714Y-99306666D01*
X124824761Y-99197142D01*
X125043809Y-99197142D01*
X126686666Y-100620952D02*
X126467619Y-100730476D01*
X126029523Y-100730476D01*
X125810476Y-100620952D01*
X125700952Y-100401904D01*
X125700952Y-99525714D01*
X125810476Y-99306666D01*
X126029523Y-99197142D01*
X126467619Y-99197142D01*
X126686666Y-99306666D01*
X126796190Y-99525714D01*
X126796190Y-99744761D01*
X125700952Y-99963809D01*
D12*
%TO.C,R1*%
X98330000Y-67845000D02*
X98330000Y-68175000D01*
X104870000Y-67845000D02*
X98330000Y-67845000D01*
X104870000Y-68175000D02*
X104870000Y-67845000D01*
X98330000Y-70585000D02*
X98330000Y-70255000D01*
X104870000Y-70585000D02*
X98330000Y-70585000D01*
X104870000Y-70255000D02*
X104870000Y-70585000D01*
%TO.C,C1*%
X124175000Y-69215000D02*
G75*
G03*
X124175000Y-69215000I-2620000J0D01*
G01*
X121555000Y-68175000D02*
X121555000Y-66635000D01*
X121555000Y-71795000D02*
X121555000Y-70255000D01*
X121515000Y-68175000D02*
X121515000Y-66635000D01*
X121515000Y-71795000D02*
X121515000Y-70255000D01*
X121475000Y-71794000D02*
X121475000Y-70255000D01*
X121475000Y-68175000D02*
X121475000Y-66636000D01*
X121435000Y-71793000D02*
X121435000Y-70255000D01*
X121435000Y-68175000D02*
X121435000Y-66637000D01*
X121395000Y-71791000D02*
X121395000Y-70255000D01*
X121395000Y-68175000D02*
X121395000Y-66639000D01*
X121355000Y-71788000D02*
X121355000Y-70255000D01*
X121355000Y-68175000D02*
X121355000Y-66642000D01*
X121315000Y-71784000D02*
X121315000Y-70255000D01*
X121315000Y-68175000D02*
X121315000Y-66646000D01*
X121275000Y-71780000D02*
X121275000Y-70255000D01*
X121275000Y-68175000D02*
X121275000Y-66650000D01*
X121235000Y-71776000D02*
X121235000Y-70255000D01*
X121235000Y-68175000D02*
X121235000Y-66654000D01*
X121195000Y-71771000D02*
X121195000Y-70255000D01*
X121195000Y-68175000D02*
X121195000Y-66659000D01*
X121155000Y-71765000D02*
X121155000Y-70255000D01*
X121155000Y-68175000D02*
X121155000Y-66665000D01*
X121115000Y-71758000D02*
X121115000Y-70255000D01*
X121115000Y-68175000D02*
X121115000Y-66672000D01*
X121075000Y-71751000D02*
X121075000Y-70255000D01*
X121075000Y-68175000D02*
X121075000Y-66679000D01*
X121035000Y-71743000D02*
X121035000Y-70255000D01*
X121035000Y-68175000D02*
X121035000Y-66687000D01*
X120995000Y-71735000D02*
X120995000Y-70255000D01*
X120995000Y-68175000D02*
X120995000Y-66695000D01*
X120955000Y-71726000D02*
X120955000Y-70255000D01*
X120955000Y-68175000D02*
X120955000Y-66704000D01*
X120915000Y-71716000D02*
X120915000Y-70255000D01*
X120915000Y-68175000D02*
X120915000Y-66714000D01*
X120875000Y-71706000D02*
X120875000Y-70255000D01*
X120875000Y-68175000D02*
X120875000Y-66724000D01*
X120834000Y-71695000D02*
X120834000Y-70255000D01*
X120834000Y-68175000D02*
X120834000Y-66735000D01*
X120794000Y-71683000D02*
X120794000Y-70255000D01*
X120794000Y-68175000D02*
X120794000Y-66747000D01*
X120754000Y-71670000D02*
X120754000Y-70255000D01*
X120754000Y-68175000D02*
X120754000Y-66760000D01*
X120714000Y-71657000D02*
X120714000Y-70255000D01*
X120714000Y-68175000D02*
X120714000Y-66773000D01*
X120674000Y-71643000D02*
X120674000Y-70255000D01*
X120674000Y-68175000D02*
X120674000Y-66787000D01*
X120634000Y-71629000D02*
X120634000Y-70255000D01*
X120634000Y-68175000D02*
X120634000Y-66801000D01*
X120594000Y-71613000D02*
X120594000Y-70255000D01*
X120594000Y-68175000D02*
X120594000Y-66817000D01*
X120554000Y-71597000D02*
X120554000Y-70255000D01*
X120554000Y-68175000D02*
X120554000Y-66833000D01*
X120514000Y-71580000D02*
X120514000Y-70255000D01*
X120514000Y-68175000D02*
X120514000Y-66850000D01*
X120474000Y-71563000D02*
X120474000Y-70255000D01*
X120474000Y-68175000D02*
X120474000Y-66867000D01*
X120434000Y-71544000D02*
X120434000Y-70255000D01*
X120434000Y-68175000D02*
X120434000Y-66886000D01*
X120394000Y-71525000D02*
X120394000Y-70255000D01*
X120394000Y-68175000D02*
X120394000Y-66905000D01*
X120354000Y-71505000D02*
X120354000Y-70255000D01*
X120354000Y-68175000D02*
X120354000Y-66925000D01*
X120314000Y-71483000D02*
X120314000Y-70255000D01*
X120314000Y-68175000D02*
X120314000Y-66947000D01*
X120274000Y-71462000D02*
X120274000Y-70255000D01*
X120274000Y-68175000D02*
X120274000Y-66968000D01*
X120234000Y-71439000D02*
X120234000Y-70255000D01*
X120234000Y-68175000D02*
X120234000Y-66991000D01*
X120194000Y-71415000D02*
X120194000Y-70255000D01*
X120194000Y-68175000D02*
X120194000Y-67015000D01*
X120154000Y-71390000D02*
X120154000Y-70255000D01*
X120154000Y-68175000D02*
X120154000Y-67040000D01*
X120114000Y-71364000D02*
X120114000Y-70255000D01*
X120114000Y-68175000D02*
X120114000Y-67066000D01*
X120074000Y-71337000D02*
X120074000Y-70255000D01*
X120074000Y-68175000D02*
X120074000Y-67093000D01*
X120034000Y-71310000D02*
X120034000Y-70255000D01*
X120034000Y-68175000D02*
X120034000Y-67120000D01*
X119994000Y-71280000D02*
X119994000Y-70255000D01*
X119994000Y-68175000D02*
X119994000Y-67150000D01*
X119954000Y-71250000D02*
X119954000Y-70255000D01*
X119954000Y-68175000D02*
X119954000Y-67180000D01*
X119914000Y-71219000D02*
X119914000Y-70255000D01*
X119914000Y-68175000D02*
X119914000Y-67211000D01*
X119874000Y-71186000D02*
X119874000Y-70255000D01*
X119874000Y-68175000D02*
X119874000Y-67244000D01*
X119834000Y-71152000D02*
X119834000Y-70255000D01*
X119834000Y-68175000D02*
X119834000Y-67278000D01*
X119794000Y-71116000D02*
X119794000Y-70255000D01*
X119794000Y-68175000D02*
X119794000Y-67314000D01*
X119754000Y-71079000D02*
X119754000Y-70255000D01*
X119754000Y-68175000D02*
X119754000Y-67351000D01*
X119714000Y-71041000D02*
X119714000Y-70255000D01*
X119714000Y-68175000D02*
X119714000Y-67389000D01*
X119674000Y-71000000D02*
X119674000Y-70255000D01*
X119674000Y-68175000D02*
X119674000Y-67430000D01*
X119634000Y-70958000D02*
X119634000Y-70255000D01*
X119634000Y-68175000D02*
X119634000Y-67472000D01*
X119594000Y-70914000D02*
X119594000Y-70255000D01*
X119594000Y-68175000D02*
X119594000Y-67516000D01*
X119554000Y-70868000D02*
X119554000Y-70255000D01*
X119554000Y-68175000D02*
X119554000Y-67562000D01*
X119514000Y-70820000D02*
X119514000Y-67610000D01*
X119474000Y-70769000D02*
X119474000Y-67661000D01*
X119434000Y-70715000D02*
X119434000Y-67715000D01*
X119394000Y-70658000D02*
X119394000Y-67772000D01*
X119354000Y-70598000D02*
X119354000Y-67832000D01*
X119314000Y-70534000D02*
X119314000Y-67896000D01*
X119274000Y-70466000D02*
X119274000Y-67964000D01*
X119234000Y-70393000D02*
X119234000Y-68037000D01*
X119194000Y-70313000D02*
X119194000Y-68117000D01*
X119154000Y-70226000D02*
X119154000Y-68204000D01*
X119114000Y-70130000D02*
X119114000Y-68300000D01*
X119074000Y-70020000D02*
X119074000Y-68410000D01*
X119034000Y-69892000D02*
X119034000Y-68538000D01*
X118994000Y-69733000D02*
X118994000Y-68697000D01*
X118954000Y-69499000D02*
X118954000Y-68931000D01*
X124359775Y-70690000D02*
X123859775Y-70690000D01*
X124109775Y-70940000D02*
X124109775Y-70440000D01*
%TO.C,JP1*%
X108017000Y-70545000D02*
X108017000Y-69215000D01*
X109347000Y-70545000D02*
X108017000Y-70545000D01*
X110617000Y-70545000D02*
X110617000Y-67885000D01*
X110617000Y-67885000D02*
X115757000Y-67885000D01*
X110617000Y-70545000D02*
X115757000Y-70545000D01*
X115757000Y-70545000D02*
X115757000Y-67885000D01*
%TO.C,A1*%
X97660000Y-74800000D02*
X97660000Y-92840000D01*
X141100000Y-74800000D02*
X97660000Y-74800000D01*
X141100000Y-92840000D02*
X141100000Y-74800000D01*
X138430000Y-90170000D02*
X138430000Y-92840000D01*
X102870000Y-90170000D02*
X138430000Y-90170000D01*
X102870000Y-90170000D02*
X102870000Y-92840000D01*
X138430000Y-77470000D02*
X138430000Y-74800000D01*
X100330000Y-77470000D02*
X138430000Y-77470000D01*
X100330000Y-77470000D02*
X100330000Y-74800000D01*
X97660000Y-92840000D02*
X100330000Y-92840000D01*
X102870000Y-92840000D02*
X141100000Y-92840000D01*
X100330000Y-90170000D02*
X100330000Y-92840000D01*
X102870000Y-90170000D02*
X100330000Y-90170000D01*
%TO.C,CONN1*%
X95031325Y-93345000D02*
X95464338Y-93095000D01*
X95464338Y-93595000D02*
X95031325Y-93345000D01*
X95464338Y-93095000D02*
X95464338Y-93595000D01*
X94570000Y-103310000D02*
X82230000Y-103310000D01*
X94570000Y-63990000D02*
X94570000Y-103310000D01*
X82230000Y-63990000D02*
X94570000Y-63990000D01*
%TO.C,R1*%
D13*
X101433333Y-67127380D02*
X101100000Y-66651190D01*
X100861904Y-67127380D02*
X100861904Y-66127380D01*
X101242857Y-66127380D01*
X101338095Y-66175000D01*
X101385714Y-66222619D01*
X101433333Y-66317857D01*
X101433333Y-66460714D01*
X101385714Y-66555952D01*
X101338095Y-66603571D01*
X101242857Y-66651190D01*
X100861904Y-66651190D01*
X102385714Y-67127380D02*
X101814285Y-67127380D01*
X102100000Y-67127380D02*
X102100000Y-66127380D01*
X102004761Y-66270238D01*
X101909523Y-66365476D01*
X101814285Y-66413095D01*
X100933333Y-69667380D02*
X100361904Y-69667380D01*
X100647619Y-69667380D02*
X100647619Y-68667380D01*
X100552380Y-68810238D01*
X100457142Y-68905476D01*
X100361904Y-68953095D01*
X101552380Y-68667380D02*
X101647619Y-68667380D01*
X101742857Y-68715000D01*
X101790476Y-68762619D01*
X101838095Y-68857857D01*
X101885714Y-69048333D01*
X101885714Y-69286428D01*
X101838095Y-69476904D01*
X101790476Y-69572142D01*
X101742857Y-69619761D01*
X101647619Y-69667380D01*
X101552380Y-69667380D01*
X101457142Y-69619761D01*
X101409523Y-69572142D01*
X101361904Y-69476904D01*
X101314285Y-69286428D01*
X101314285Y-69048333D01*
X101361904Y-68857857D01*
X101409523Y-68762619D01*
X101457142Y-68715000D01*
X101552380Y-68667380D01*
X102504761Y-68667380D02*
X102600000Y-68667380D01*
X102695238Y-68715000D01*
X102742857Y-68762619D01*
X102790476Y-68857857D01*
X102838095Y-69048333D01*
X102838095Y-69286428D01*
X102790476Y-69476904D01*
X102742857Y-69572142D01*
X102695238Y-69619761D01*
X102600000Y-69667380D01*
X102504761Y-69667380D01*
X102409523Y-69619761D01*
X102361904Y-69572142D01*
X102314285Y-69476904D01*
X102266666Y-69286428D01*
X102266666Y-69048333D01*
X102314285Y-68857857D01*
X102361904Y-68762619D01*
X102409523Y-68715000D01*
X102504761Y-68667380D01*
%TO.C,C1*%
X121388333Y-73322142D02*
X121340714Y-73369761D01*
X121197857Y-73417380D01*
X121102619Y-73417380D01*
X120959761Y-73369761D01*
X120864523Y-73274523D01*
X120816904Y-73179285D01*
X120769285Y-72988809D01*
X120769285Y-72845952D01*
X120816904Y-72655476D01*
X120864523Y-72560238D01*
X120959761Y-72465000D01*
X121102619Y-72417380D01*
X121197857Y-72417380D01*
X121340714Y-72465000D01*
X121388333Y-72512619D01*
X122340714Y-73417380D02*
X121769285Y-73417380D01*
X122055000Y-73417380D02*
X122055000Y-72417380D01*
X121959761Y-72560238D01*
X121864523Y-72655476D01*
X121769285Y-72703095D01*
%TO.C,JP1*%
X111053666Y-66127380D02*
X111053666Y-66841666D01*
X111006047Y-66984523D01*
X110910809Y-67079761D01*
X110767952Y-67127380D01*
X110672714Y-67127380D01*
X111529857Y-67127380D02*
X111529857Y-66127380D01*
X111910809Y-66127380D01*
X112006047Y-66175000D01*
X112053666Y-66222619D01*
X112101285Y-66317857D01*
X112101285Y-66460714D01*
X112053666Y-66555952D01*
X112006047Y-66603571D01*
X111910809Y-66651190D01*
X111529857Y-66651190D01*
X113053666Y-67127380D02*
X112482238Y-67127380D01*
X112767952Y-67127380D02*
X112767952Y-66127380D01*
X112672714Y-66270238D01*
X112577476Y-66365476D01*
X112482238Y-66413095D01*
X109045666Y-71826380D02*
X108474238Y-71826380D01*
X108759952Y-71826380D02*
X108759952Y-70826380D01*
X108664714Y-70969238D01*
X108569476Y-71064476D01*
X108474238Y-71112095D01*
X109474238Y-71445428D02*
X110236142Y-71445428D01*
X110664714Y-70921619D02*
X110712333Y-70874000D01*
X110807571Y-70826380D01*
X111045666Y-70826380D01*
X111140904Y-70874000D01*
X111188523Y-70921619D01*
X111236142Y-71016857D01*
X111236142Y-71112095D01*
X111188523Y-71254952D01*
X110617095Y-71826380D01*
X111236142Y-71826380D01*
X111664714Y-71731142D02*
X111712333Y-71778761D01*
X111664714Y-71826380D01*
X111617095Y-71778761D01*
X111664714Y-71731142D01*
X111664714Y-71826380D01*
X111664714Y-71207333D02*
X111712333Y-71254952D01*
X111664714Y-71302571D01*
X111617095Y-71254952D01*
X111664714Y-71207333D01*
X111664714Y-71302571D01*
X113379000Y-70826380D02*
X112902809Y-70826380D01*
X112855190Y-71302571D01*
X112902809Y-71254952D01*
X112998047Y-71207333D01*
X113236142Y-71207333D01*
X113331380Y-71254952D01*
X113379000Y-71302571D01*
X113426619Y-71397809D01*
X113426619Y-71635904D01*
X113379000Y-71731142D01*
X113331380Y-71778761D01*
X113236142Y-71826380D01*
X112998047Y-71826380D01*
X112902809Y-71778761D01*
X112855190Y-71731142D01*
X113712333Y-70826380D02*
X114045666Y-71826380D01*
X114379000Y-70826380D01*
X108521952Y-72191619D02*
X108569571Y-72144000D01*
X108664809Y-72096380D01*
X108902904Y-72096380D01*
X108998142Y-72144000D01*
X109045761Y-72191619D01*
X109093380Y-72286857D01*
X109093380Y-72382095D01*
X109045761Y-72524952D01*
X108474333Y-73096380D01*
X109093380Y-73096380D01*
X109521952Y-72715428D02*
X110283857Y-72715428D01*
X110664809Y-72096380D02*
X111283857Y-72096380D01*
X110950523Y-72477333D01*
X111093380Y-72477333D01*
X111188619Y-72524952D01*
X111236238Y-72572571D01*
X111283857Y-72667809D01*
X111283857Y-72905904D01*
X111236238Y-73001142D01*
X111188619Y-73048761D01*
X111093380Y-73096380D01*
X110807666Y-73096380D01*
X110712428Y-73048761D01*
X110664809Y-73001142D01*
X111712428Y-73001142D02*
X111760047Y-73048761D01*
X111712428Y-73096380D01*
X111664809Y-73048761D01*
X111712428Y-73001142D01*
X111712428Y-73096380D01*
X111712428Y-72477333D02*
X111760047Y-72524952D01*
X111712428Y-72572571D01*
X111664809Y-72524952D01*
X111712428Y-72477333D01*
X111712428Y-72572571D01*
X112855285Y-72096380D02*
X113474333Y-72096380D01*
X113141000Y-72477333D01*
X113283857Y-72477333D01*
X113379095Y-72524952D01*
X113426714Y-72572571D01*
X113474333Y-72667809D01*
X113474333Y-72905904D01*
X113426714Y-73001142D01*
X113379095Y-73048761D01*
X113283857Y-73096380D01*
X112998142Y-73096380D01*
X112902904Y-73048761D01*
X112855285Y-73001142D01*
X113902904Y-73001142D02*
X113950523Y-73048761D01*
X113902904Y-73096380D01*
X113855285Y-73048761D01*
X113902904Y-73001142D01*
X113902904Y-73096380D01*
X114283857Y-72096380D02*
X114902904Y-72096380D01*
X114569571Y-72477333D01*
X114712428Y-72477333D01*
X114807666Y-72524952D01*
X114855285Y-72572571D01*
X114902904Y-72667809D01*
X114902904Y-72905904D01*
X114855285Y-73001142D01*
X114807666Y-73048761D01*
X114712428Y-73096380D01*
X114426714Y-73096380D01*
X114331476Y-73048761D01*
X114283857Y-73001142D01*
X115188619Y-72096380D02*
X115521952Y-73096380D01*
X115855285Y-72096380D01*
%TO.C,A1*%
X114522857Y-83986666D02*
X114999047Y-83986666D01*
X114427619Y-84272380D02*
X114760952Y-83272380D01*
X115094285Y-84272380D01*
X115427619Y-84272380D02*
X115427619Y-83605714D01*
X115427619Y-83796190D02*
X115475238Y-83700952D01*
X115522857Y-83653333D01*
X115618095Y-83605714D01*
X115713333Y-83605714D01*
X116475238Y-84272380D02*
X116475238Y-83272380D01*
X116475238Y-84224761D02*
X116380000Y-84272380D01*
X116189523Y-84272380D01*
X116094285Y-84224761D01*
X116046666Y-84177142D01*
X115999047Y-84081904D01*
X115999047Y-83796190D01*
X116046666Y-83700952D01*
X116094285Y-83653333D01*
X116189523Y-83605714D01*
X116380000Y-83605714D01*
X116475238Y-83653333D01*
X117380000Y-83605714D02*
X117380000Y-84272380D01*
X116951428Y-83605714D02*
X116951428Y-84129523D01*
X116999047Y-84224761D01*
X117094285Y-84272380D01*
X117237142Y-84272380D01*
X117332380Y-84224761D01*
X117380000Y-84177142D01*
X117856190Y-84272380D02*
X117856190Y-83605714D01*
X117856190Y-83272380D02*
X117808571Y-83320000D01*
X117856190Y-83367619D01*
X117903809Y-83320000D01*
X117856190Y-83272380D01*
X117856190Y-83367619D01*
X118332380Y-83605714D02*
X118332380Y-84272380D01*
X118332380Y-83700952D02*
X118380000Y-83653333D01*
X118475238Y-83605714D01*
X118618095Y-83605714D01*
X118713333Y-83653333D01*
X118760952Y-83748571D01*
X118760952Y-84272380D01*
X119380000Y-84272380D02*
X119284761Y-84224761D01*
X119237142Y-84177142D01*
X119189523Y-84081904D01*
X119189523Y-83796190D01*
X119237142Y-83700952D01*
X119284761Y-83653333D01*
X119380000Y-83605714D01*
X119522857Y-83605714D01*
X119618095Y-83653333D01*
X119665714Y-83700952D01*
X119713333Y-83796190D01*
X119713333Y-84081904D01*
X119665714Y-84177142D01*
X119618095Y-84224761D01*
X119522857Y-84272380D01*
X119380000Y-84272380D01*
X120903809Y-84272380D02*
X120903809Y-83272380D01*
X121475238Y-84272380D01*
X121475238Y-83272380D01*
X122380000Y-84272380D02*
X122380000Y-83748571D01*
X122332380Y-83653333D01*
X122237142Y-83605714D01*
X122046666Y-83605714D01*
X121951428Y-83653333D01*
X122380000Y-84224761D02*
X122284761Y-84272380D01*
X122046666Y-84272380D01*
X121951428Y-84224761D01*
X121903809Y-84129523D01*
X121903809Y-84034285D01*
X121951428Y-83939047D01*
X122046666Y-83891428D01*
X122284761Y-83891428D01*
X122380000Y-83843809D01*
X122856190Y-83605714D02*
X122856190Y-84272380D01*
X122856190Y-83700952D02*
X122903809Y-83653333D01*
X122999047Y-83605714D01*
X123141904Y-83605714D01*
X123237142Y-83653333D01*
X123284761Y-83748571D01*
X123284761Y-84272380D01*
X123903809Y-84272380D02*
X123808571Y-84224761D01*
X123760952Y-84177142D01*
X123713333Y-84081904D01*
X123713333Y-83796190D01*
X123760952Y-83700952D01*
X123808571Y-83653333D01*
X123903809Y-83605714D01*
X124046666Y-83605714D01*
X124141904Y-83653333D01*
X124189523Y-83700952D01*
X124237142Y-83796190D01*
X124237142Y-84081904D01*
X124189523Y-84177142D01*
X124141904Y-84224761D01*
X124046666Y-84272380D01*
X123903809Y-84272380D01*
%TO.C,CONN1*%
X95385000Y-86653333D02*
X95337380Y-86748571D01*
X95337380Y-86891428D01*
X95385000Y-87034285D01*
X95480238Y-87129523D01*
X95575476Y-87177142D01*
X95765952Y-87224761D01*
X95908809Y-87224761D01*
X96099285Y-87177142D01*
X96194523Y-87129523D01*
X96289761Y-87034285D01*
X96337380Y-86891428D01*
X96337380Y-86796190D01*
X96289761Y-86653333D01*
X96242142Y-86605714D01*
X95908809Y-86605714D01*
X95908809Y-86796190D01*
X96337380Y-85748571D02*
X95813571Y-85748571D01*
X95718333Y-85796190D01*
X95670714Y-85891428D01*
X95670714Y-86081904D01*
X95718333Y-86177142D01*
X96289761Y-85748571D02*
X96337380Y-85843809D01*
X96337380Y-86081904D01*
X96289761Y-86177142D01*
X96194523Y-86224761D01*
X96099285Y-86224761D01*
X96004047Y-86177142D01*
X95956428Y-86081904D01*
X95956428Y-85843809D01*
X95908809Y-85748571D01*
X96337380Y-85272380D02*
X95670714Y-85272380D01*
X95765952Y-85272380D02*
X95718333Y-85224761D01*
X95670714Y-85129523D01*
X95670714Y-84986666D01*
X95718333Y-84891428D01*
X95813571Y-84843809D01*
X96337380Y-84843809D01*
X95813571Y-84843809D02*
X95718333Y-84796190D01*
X95670714Y-84700952D01*
X95670714Y-84558095D01*
X95718333Y-84462857D01*
X95813571Y-84415238D01*
X96337380Y-84415238D01*
X96289761Y-83558095D02*
X96337380Y-83653333D01*
X96337380Y-83843809D01*
X96289761Y-83939047D01*
X96194523Y-83986666D01*
X95813571Y-83986666D01*
X95718333Y-83939047D01*
X95670714Y-83843809D01*
X95670714Y-83653333D01*
X95718333Y-83558095D01*
X95813571Y-83510476D01*
X95908809Y-83510476D01*
X96004047Y-83986666D01*
X96337380Y-83081904D02*
X95337380Y-83081904D01*
X95337380Y-82700952D01*
X95385000Y-82605714D01*
X95432619Y-82558095D01*
X95527857Y-82510476D01*
X95670714Y-82510476D01*
X95765952Y-82558095D01*
X95813571Y-82605714D01*
X95861190Y-82700952D01*
X95861190Y-83081904D01*
X96337380Y-81939047D02*
X96289761Y-82034285D01*
X96242142Y-82081904D01*
X96146904Y-82129523D01*
X95861190Y-82129523D01*
X95765952Y-82081904D01*
X95718333Y-82034285D01*
X95670714Y-81939047D01*
X95670714Y-81796190D01*
X95718333Y-81700952D01*
X95765952Y-81653333D01*
X95861190Y-81605714D01*
X96146904Y-81605714D01*
X96242142Y-81653333D01*
X96289761Y-81700952D01*
X96337380Y-81796190D01*
X96337380Y-81939047D01*
X96337380Y-81177142D02*
X95670714Y-81177142D01*
X95861190Y-81177142D02*
X95765952Y-81129523D01*
X95718333Y-81081904D01*
X95670714Y-80986666D01*
X95670714Y-80891428D01*
X95670714Y-80700952D02*
X95670714Y-80320000D01*
X95337380Y-80558095D02*
X96194523Y-80558095D01*
X96289761Y-80510476D01*
X96337380Y-80415238D01*
X96337380Y-80320000D01*
%TD*%
M02*
