%TF.GenerationSoftware,KiCad,Pcbnew,5.1.7*%
%TF.CreationDate,2020-11-23T17:15:20+01:00*%
%TF.ProjectId,gameport-adapter,67616d65-706f-4727-942d-616461707465,0.1*%
%TF.SameCoordinates,Original*%
%TF.FileFunction,Copper,L2,Bot*%
%TF.FilePolarity,Positive*%
%FSLAX46Y46*%
G04 Gerber Fmt 4.6, Leading zero omitted, Abs format (unit mm)*
G04 Created by KiCad (PCBNEW 5.1.7) date 2020-11-23 17:15:20*
%MOMM*%
%LPD*%
G01*
G04 APERTURE LIST*
%TA.AperFunction,ComponentPad*%
%ADD10O,1.600000X1.600000*%
%TD*%
%TA.AperFunction,ComponentPad*%
%ADD11C,1.600000*%
%TD*%
%TA.AperFunction,ComponentPad*%
%ADD12R,1.600000X1.600000*%
%TD*%
%TA.AperFunction,ComponentPad*%
%ADD13O,1.700000X1.700000*%
%TD*%
%TA.AperFunction,ComponentPad*%
%ADD14R,1.700000X1.700000*%
%TD*%
%TA.AperFunction,ComponentPad*%
%ADD15C,4.000000*%
%TD*%
%TA.AperFunction,Conductor*%
%ADD16C,0.450000*%
%TD*%
%TA.AperFunction,Conductor*%
%ADD17C,0.254000*%
%TD*%
%TA.AperFunction,Conductor*%
%ADD18C,0.100000*%
%TD*%
G04 APERTURE END LIST*
D10*
%TO.P,R1,2*%
%TO.N,VCC*%
X97790000Y-69215000D03*
D11*
%TO.P,R1,1*%
%TO.N,Net-(JP1-Pad2)*%
X105410000Y-69215000D03*
%TD*%
%TO.P,C1,2*%
%TO.N,GND*%
X120555000Y-69215000D03*
D12*
%TO.P,C1,1*%
%TO.N,Net-(A1-Pad18)*%
X122555000Y-69215000D03*
%TD*%
D13*
%TO.P,JP1,3*%
%TO.N,Net-(A1-Pad17)*%
X114427000Y-69215000D03*
%TO.P,JP1,2*%
%TO.N,Net-(JP1-Pad2)*%
X111887000Y-69215000D03*
D14*
%TO.P,JP1,1*%
%TO.N,Net-(A1-Pad27)*%
X109347000Y-69215000D03*
%TD*%
D10*
%TO.P,A1,16*%
%TO.N,N/C*%
X137160000Y-76200000D03*
%TO.P,A1,15*%
X137160000Y-91440000D03*
%TO.P,A1,30*%
X101600000Y-76200000D03*
%TO.P,A1,14*%
X134620000Y-91440000D03*
%TO.P,A1,29*%
%TO.N,GND*%
X104140000Y-76200000D03*
%TO.P,A1,13*%
%TO.N,N/C*%
X132080000Y-91440000D03*
%TO.P,A1,28*%
X106680000Y-76200000D03*
%TO.P,A1,12*%
X129540000Y-91440000D03*
%TO.P,A1,27*%
%TO.N,Net-(A1-Pad27)*%
X109220000Y-76200000D03*
%TO.P,A1,11*%
%TO.N,N/C*%
X127000000Y-91440000D03*
%TO.P,A1,26*%
X111760000Y-76200000D03*
%TO.P,A1,10*%
%TO.N,MIDI_RXD*%
X124460000Y-91440000D03*
%TO.P,A1,25*%
%TO.N,N/C*%
X114300000Y-76200000D03*
%TO.P,A1,9*%
%TO.N,Button_2*%
X121920000Y-91440000D03*
%TO.P,A1,24*%
%TO.N,N/C*%
X116840000Y-76200000D03*
%TO.P,A1,8*%
%TO.N,Button_4*%
X119380000Y-91440000D03*
%TO.P,A1,23*%
%TO.N,N/C*%
X119380000Y-76200000D03*
%TO.P,A1,7*%
%TO.N,MIDI_TXD*%
X116840000Y-91440000D03*
%TO.P,A1,22*%
%TO.N,AxisY_1*%
X121920000Y-76200000D03*
%TO.P,A1,6*%
%TO.N,Button_3*%
X114300000Y-91440000D03*
%TO.P,A1,21*%
%TO.N,AxisY_2*%
X124460000Y-76200000D03*
%TO.P,A1,5*%
%TO.N,Button_1*%
X111760000Y-91440000D03*
%TO.P,A1,20*%
%TO.N,AxisX_2*%
X127000000Y-76200000D03*
%TO.P,A1,4*%
%TO.N,GND*%
X109220000Y-91440000D03*
%TO.P,A1,19*%
%TO.N,AxisX_1*%
X129540000Y-76200000D03*
%TO.P,A1,3*%
%TO.N,N/C*%
X106680000Y-91440000D03*
%TO.P,A1,18*%
%TO.N,Net-(A1-Pad18)*%
X132080000Y-76200000D03*
%TO.P,A1,2*%
%TO.N,N/C*%
X104140000Y-91440000D03*
%TO.P,A1,17*%
%TO.N,Net-(A1-Pad17)*%
X134620000Y-76200000D03*
D12*
%TO.P,A1,1*%
%TO.N,N/C*%
X101600000Y-91440000D03*
%TD*%
D15*
%TO.P,CONN1,0*%
%TO.N,N/C*%
X91290000Y-100300000D03*
X91290000Y-67000000D03*
D11*
%TO.P,CONN1,15*%
%TO.N,MIDI_RXD*%
X89870000Y-75340000D03*
%TO.P,CONN1,14*%
%TO.N,Button_4*%
X89870000Y-78110000D03*
%TO.P,CONN1,13*%
%TO.N,AxisY_2*%
X89870000Y-80880000D03*
%TO.P,CONN1,12*%
%TO.N,MIDI_TXD*%
X89870000Y-83650000D03*
%TO.P,CONN1,11*%
%TO.N,AxisX_2*%
X89870000Y-86420000D03*
%TO.P,CONN1,10*%
%TO.N,Button_3*%
X89870000Y-89190000D03*
%TO.P,CONN1,9*%
%TO.N,VCC*%
X89870000Y-91960000D03*
%TO.P,CONN1,8*%
X92710000Y-73955000D03*
%TO.P,CONN1,7*%
%TO.N,Button_2*%
X92710000Y-76725000D03*
%TO.P,CONN1,6*%
%TO.N,AxisY_1*%
X92710000Y-79495000D03*
%TO.P,CONN1,5*%
%TO.N,GND*%
X92710000Y-82265000D03*
%TO.P,CONN1,4*%
X92710000Y-85035000D03*
%TO.P,CONN1,3*%
%TO.N,AxisX_1*%
X92710000Y-87805000D03*
%TO.P,CONN1,2*%
%TO.N,Button_1*%
X92710000Y-90575000D03*
D12*
%TO.P,CONN1,1*%
%TO.N,VCC*%
X92710000Y-93345000D03*
%TD*%
D16*
%TO.N,VCC*%
X89870000Y-91960000D02*
X89870000Y-93045000D01*
X90170000Y-93345000D02*
X92710000Y-93345000D01*
X89870000Y-93045000D02*
X90170000Y-93345000D01*
X92710000Y-73955000D02*
X95885000Y-77130000D01*
X95885000Y-90170000D02*
X92710000Y-93345000D01*
X95885000Y-77130000D02*
X95885000Y-90170000D01*
X97790000Y-69215000D02*
X95250000Y-69215000D01*
X92710000Y-71755000D02*
X92710000Y-73955000D01*
X95250000Y-69215000D02*
X92710000Y-71755000D01*
%TO.N,Net-(A1-Pad27)*%
X109220000Y-76200000D02*
X109220000Y-69215000D01*
%TO.N,Net-(A1-Pad17)*%
X132715000Y-74295000D02*
X134620000Y-76200000D01*
X116205000Y-74295000D02*
X132715000Y-74295000D01*
X114300000Y-72390000D02*
X116205000Y-74295000D01*
X114300000Y-72390000D02*
X114300000Y-69215000D01*
%TO.N,Net-(JP1-Pad2)*%
X111760000Y-67310000D02*
X111760000Y-69215000D01*
X111125000Y-66675000D02*
X111760000Y-67310000D01*
X105410000Y-67310000D02*
X106045000Y-66675000D01*
X106045000Y-66675000D02*
X111125000Y-66675000D01*
X105410000Y-69215000D02*
X105410000Y-67310000D01*
%TD*%
D17*
%TO.N,GND*%
X89610285Y-64953262D02*
X89243262Y-65320285D01*
X88954893Y-65751859D01*
X88756261Y-66231399D01*
X88655000Y-66740475D01*
X88655000Y-67259525D01*
X88756261Y-67768601D01*
X88954893Y-68248141D01*
X89243262Y-68679715D01*
X89610285Y-69046738D01*
X90041859Y-69335107D01*
X90521399Y-69533739D01*
X91030475Y-69635000D01*
X91549525Y-69635000D01*
X92058601Y-69533739D01*
X92538141Y-69335107D01*
X92969715Y-69046738D01*
X93336738Y-68679715D01*
X93625107Y-68248141D01*
X93823739Y-67768601D01*
X93925000Y-67259525D01*
X93925000Y-66740475D01*
X93823739Y-66231399D01*
X93625107Y-65751859D01*
X93336738Y-65320285D01*
X92969715Y-64953262D01*
X92807690Y-64845000D01*
X124259041Y-64845000D01*
X140260000Y-74691744D01*
X140260001Y-92948255D01*
X124259041Y-102795000D01*
X92152125Y-102795000D01*
X92538141Y-102635107D01*
X92969715Y-102346738D01*
X93336738Y-101979715D01*
X93625107Y-101548141D01*
X93823739Y-101068601D01*
X93925000Y-100559525D01*
X93925000Y-100040475D01*
X93823739Y-99531399D01*
X93625107Y-99051859D01*
X93336738Y-98620285D01*
X92969715Y-98253262D01*
X92538141Y-97964893D01*
X92058601Y-97766261D01*
X91549525Y-97665000D01*
X91030475Y-97665000D01*
X90521399Y-97766261D01*
X90041859Y-97964893D01*
X89610285Y-98253262D01*
X89243262Y-98620285D01*
X88954893Y-99051859D01*
X88756261Y-99531399D01*
X88655000Y-100040475D01*
X88655000Y-100559525D01*
X88756261Y-101068601D01*
X88954893Y-101548141D01*
X89243262Y-101979715D01*
X89610285Y-102346738D01*
X90041859Y-102635107D01*
X90427875Y-102795000D01*
X82625000Y-102795000D01*
X82625000Y-75198665D01*
X88435000Y-75198665D01*
X88435000Y-75481335D01*
X88490147Y-75758574D01*
X88598320Y-76019727D01*
X88755363Y-76254759D01*
X88955241Y-76454637D01*
X89190273Y-76611680D01*
X89451426Y-76719853D01*
X89477301Y-76725000D01*
X89451426Y-76730147D01*
X89190273Y-76838320D01*
X88955241Y-76995363D01*
X88755363Y-77195241D01*
X88598320Y-77430273D01*
X88490147Y-77691426D01*
X88435000Y-77968665D01*
X88435000Y-78251335D01*
X88490147Y-78528574D01*
X88598320Y-78789727D01*
X88755363Y-79024759D01*
X88955241Y-79224637D01*
X89190273Y-79381680D01*
X89451426Y-79489853D01*
X89477301Y-79495000D01*
X89451426Y-79500147D01*
X89190273Y-79608320D01*
X88955241Y-79765363D01*
X88755363Y-79965241D01*
X88598320Y-80200273D01*
X88490147Y-80461426D01*
X88435000Y-80738665D01*
X88435000Y-81021335D01*
X88490147Y-81298574D01*
X88598320Y-81559727D01*
X88755363Y-81794759D01*
X88955241Y-81994637D01*
X89190273Y-82151680D01*
X89451426Y-82259853D01*
X89477301Y-82265000D01*
X89451426Y-82270147D01*
X89190273Y-82378320D01*
X88955241Y-82535363D01*
X88755363Y-82735241D01*
X88598320Y-82970273D01*
X88490147Y-83231426D01*
X88435000Y-83508665D01*
X88435000Y-83791335D01*
X88490147Y-84068574D01*
X88598320Y-84329727D01*
X88755363Y-84564759D01*
X88955241Y-84764637D01*
X89190273Y-84921680D01*
X89451426Y-85029853D01*
X89477301Y-85035000D01*
X89451426Y-85040147D01*
X89190273Y-85148320D01*
X88955241Y-85305363D01*
X88755363Y-85505241D01*
X88598320Y-85740273D01*
X88490147Y-86001426D01*
X88435000Y-86278665D01*
X88435000Y-86561335D01*
X88490147Y-86838574D01*
X88598320Y-87099727D01*
X88755363Y-87334759D01*
X88955241Y-87534637D01*
X89190273Y-87691680D01*
X89451426Y-87799853D01*
X89477301Y-87805000D01*
X89451426Y-87810147D01*
X89190273Y-87918320D01*
X88955241Y-88075363D01*
X88755363Y-88275241D01*
X88598320Y-88510273D01*
X88490147Y-88771426D01*
X88435000Y-89048665D01*
X88435000Y-89331335D01*
X88490147Y-89608574D01*
X88598320Y-89869727D01*
X88755363Y-90104759D01*
X88955241Y-90304637D01*
X89190273Y-90461680D01*
X89451426Y-90569853D01*
X89477301Y-90575000D01*
X89451426Y-90580147D01*
X89190273Y-90688320D01*
X88955241Y-90845363D01*
X88755363Y-91045241D01*
X88598320Y-91280273D01*
X88490147Y-91541426D01*
X88435000Y-91818665D01*
X88435000Y-92101335D01*
X88490147Y-92378574D01*
X88598320Y-92639727D01*
X88755363Y-92874759D01*
X88955241Y-93074637D01*
X89012529Y-93112915D01*
X89022444Y-93213589D01*
X89060746Y-93339853D01*
X89071620Y-93375700D01*
X89151477Y-93525102D01*
X89258947Y-93656054D01*
X89291760Y-93682983D01*
X89532012Y-93923235D01*
X89558946Y-93956054D01*
X89689898Y-94063524D01*
X89839300Y-94143381D01*
X89963680Y-94181111D01*
X90001410Y-94192556D01*
X90018558Y-94194245D01*
X90127754Y-94205000D01*
X90127760Y-94205000D01*
X90169999Y-94209160D01*
X90212238Y-94205000D01*
X91277837Y-94205000D01*
X91284188Y-94269482D01*
X91320498Y-94389180D01*
X91379463Y-94499494D01*
X91458815Y-94596185D01*
X91555506Y-94675537D01*
X91665820Y-94734502D01*
X91785518Y-94770812D01*
X91910000Y-94783072D01*
X93510000Y-94783072D01*
X93634482Y-94770812D01*
X93754180Y-94734502D01*
X93864494Y-94675537D01*
X93961185Y-94596185D01*
X94040537Y-94499494D01*
X94099502Y-94389180D01*
X94135812Y-94269482D01*
X94148072Y-94145000D01*
X94148072Y-93123151D01*
X96463241Y-90807983D01*
X96496054Y-90781054D01*
X96603524Y-90650102D01*
X96608923Y-90640000D01*
X100161928Y-90640000D01*
X100161928Y-92240000D01*
X100174188Y-92364482D01*
X100210498Y-92484180D01*
X100269463Y-92594494D01*
X100348815Y-92691185D01*
X100445506Y-92770537D01*
X100555820Y-92829502D01*
X100675518Y-92865812D01*
X100800000Y-92878072D01*
X102400000Y-92878072D01*
X102524482Y-92865812D01*
X102644180Y-92829502D01*
X102754494Y-92770537D01*
X102851185Y-92691185D01*
X102930537Y-92594494D01*
X102989502Y-92484180D01*
X103025812Y-92364482D01*
X103026643Y-92356039D01*
X103225241Y-92554637D01*
X103460273Y-92711680D01*
X103721426Y-92819853D01*
X103998665Y-92875000D01*
X104281335Y-92875000D01*
X104558574Y-92819853D01*
X104819727Y-92711680D01*
X105054759Y-92554637D01*
X105254637Y-92354759D01*
X105410000Y-92122241D01*
X105565363Y-92354759D01*
X105765241Y-92554637D01*
X106000273Y-92711680D01*
X106261426Y-92819853D01*
X106538665Y-92875000D01*
X106821335Y-92875000D01*
X107098574Y-92819853D01*
X107359727Y-92711680D01*
X107594759Y-92554637D01*
X107794637Y-92354759D01*
X107951680Y-92119727D01*
X107956067Y-92109135D01*
X108067615Y-92295131D01*
X108256586Y-92503519D01*
X108482580Y-92671037D01*
X108736913Y-92791246D01*
X108870961Y-92831904D01*
X109093000Y-92709915D01*
X109093000Y-91567000D01*
X109073000Y-91567000D01*
X109073000Y-91313000D01*
X109093000Y-91313000D01*
X109093000Y-90170085D01*
X109347000Y-90170085D01*
X109347000Y-91313000D01*
X109367000Y-91313000D01*
X109367000Y-91567000D01*
X109347000Y-91567000D01*
X109347000Y-92709915D01*
X109569039Y-92831904D01*
X109703087Y-92791246D01*
X109957420Y-92671037D01*
X110183414Y-92503519D01*
X110372385Y-92295131D01*
X110483933Y-92109135D01*
X110488320Y-92119727D01*
X110645363Y-92354759D01*
X110845241Y-92554637D01*
X111080273Y-92711680D01*
X111341426Y-92819853D01*
X111618665Y-92875000D01*
X111901335Y-92875000D01*
X112178574Y-92819853D01*
X112439727Y-92711680D01*
X112674759Y-92554637D01*
X112874637Y-92354759D01*
X113030000Y-92122241D01*
X113185363Y-92354759D01*
X113385241Y-92554637D01*
X113620273Y-92711680D01*
X113881426Y-92819853D01*
X114158665Y-92875000D01*
X114441335Y-92875000D01*
X114718574Y-92819853D01*
X114979727Y-92711680D01*
X115214759Y-92554637D01*
X115414637Y-92354759D01*
X115570000Y-92122241D01*
X115725363Y-92354759D01*
X115925241Y-92554637D01*
X116160273Y-92711680D01*
X116421426Y-92819853D01*
X116698665Y-92875000D01*
X116981335Y-92875000D01*
X117258574Y-92819853D01*
X117519727Y-92711680D01*
X117754759Y-92554637D01*
X117954637Y-92354759D01*
X118110000Y-92122241D01*
X118265363Y-92354759D01*
X118465241Y-92554637D01*
X118700273Y-92711680D01*
X118961426Y-92819853D01*
X119238665Y-92875000D01*
X119521335Y-92875000D01*
X119798574Y-92819853D01*
X120059727Y-92711680D01*
X120294759Y-92554637D01*
X120494637Y-92354759D01*
X120650000Y-92122241D01*
X120805363Y-92354759D01*
X121005241Y-92554637D01*
X121240273Y-92711680D01*
X121501426Y-92819853D01*
X121778665Y-92875000D01*
X122061335Y-92875000D01*
X122338574Y-92819853D01*
X122599727Y-92711680D01*
X122834759Y-92554637D01*
X123034637Y-92354759D01*
X123190000Y-92122241D01*
X123345363Y-92354759D01*
X123545241Y-92554637D01*
X123780273Y-92711680D01*
X124041426Y-92819853D01*
X124318665Y-92875000D01*
X124601335Y-92875000D01*
X124878574Y-92819853D01*
X125139727Y-92711680D01*
X125374759Y-92554637D01*
X125574637Y-92354759D01*
X125730000Y-92122241D01*
X125885363Y-92354759D01*
X126085241Y-92554637D01*
X126320273Y-92711680D01*
X126581426Y-92819853D01*
X126858665Y-92875000D01*
X127141335Y-92875000D01*
X127418574Y-92819853D01*
X127679727Y-92711680D01*
X127914759Y-92554637D01*
X128114637Y-92354759D01*
X128270000Y-92122241D01*
X128425363Y-92354759D01*
X128625241Y-92554637D01*
X128860273Y-92711680D01*
X129121426Y-92819853D01*
X129398665Y-92875000D01*
X129681335Y-92875000D01*
X129958574Y-92819853D01*
X130219727Y-92711680D01*
X130454759Y-92554637D01*
X130654637Y-92354759D01*
X130810000Y-92122241D01*
X130965363Y-92354759D01*
X131165241Y-92554637D01*
X131400273Y-92711680D01*
X131661426Y-92819853D01*
X131938665Y-92875000D01*
X132221335Y-92875000D01*
X132498574Y-92819853D01*
X132759727Y-92711680D01*
X132994759Y-92554637D01*
X133194637Y-92354759D01*
X133350000Y-92122241D01*
X133505363Y-92354759D01*
X133705241Y-92554637D01*
X133940273Y-92711680D01*
X134201426Y-92819853D01*
X134478665Y-92875000D01*
X134761335Y-92875000D01*
X135038574Y-92819853D01*
X135299727Y-92711680D01*
X135534759Y-92554637D01*
X135734637Y-92354759D01*
X135890000Y-92122241D01*
X136045363Y-92354759D01*
X136245241Y-92554637D01*
X136480273Y-92711680D01*
X136741426Y-92819853D01*
X137018665Y-92875000D01*
X137301335Y-92875000D01*
X137578574Y-92819853D01*
X137839727Y-92711680D01*
X138074759Y-92554637D01*
X138274637Y-92354759D01*
X138431680Y-92119727D01*
X138539853Y-91858574D01*
X138595000Y-91581335D01*
X138595000Y-91298665D01*
X138539853Y-91021426D01*
X138431680Y-90760273D01*
X138274637Y-90525241D01*
X138074759Y-90325363D01*
X137839727Y-90168320D01*
X137578574Y-90060147D01*
X137301335Y-90005000D01*
X137018665Y-90005000D01*
X136741426Y-90060147D01*
X136480273Y-90168320D01*
X136245241Y-90325363D01*
X136045363Y-90525241D01*
X135890000Y-90757759D01*
X135734637Y-90525241D01*
X135534759Y-90325363D01*
X135299727Y-90168320D01*
X135038574Y-90060147D01*
X134761335Y-90005000D01*
X134478665Y-90005000D01*
X134201426Y-90060147D01*
X133940273Y-90168320D01*
X133705241Y-90325363D01*
X133505363Y-90525241D01*
X133350000Y-90757759D01*
X133194637Y-90525241D01*
X132994759Y-90325363D01*
X132759727Y-90168320D01*
X132498574Y-90060147D01*
X132221335Y-90005000D01*
X131938665Y-90005000D01*
X131661426Y-90060147D01*
X131400273Y-90168320D01*
X131165241Y-90325363D01*
X130965363Y-90525241D01*
X130810000Y-90757759D01*
X130654637Y-90525241D01*
X130454759Y-90325363D01*
X130219727Y-90168320D01*
X129958574Y-90060147D01*
X129681335Y-90005000D01*
X129398665Y-90005000D01*
X129121426Y-90060147D01*
X128860273Y-90168320D01*
X128625241Y-90325363D01*
X128425363Y-90525241D01*
X128270000Y-90757759D01*
X128114637Y-90525241D01*
X127914759Y-90325363D01*
X127679727Y-90168320D01*
X127418574Y-90060147D01*
X127141335Y-90005000D01*
X126858665Y-90005000D01*
X126581426Y-90060147D01*
X126320273Y-90168320D01*
X126085241Y-90325363D01*
X125885363Y-90525241D01*
X125730000Y-90757759D01*
X125574637Y-90525241D01*
X125374759Y-90325363D01*
X125139727Y-90168320D01*
X124878574Y-90060147D01*
X124601335Y-90005000D01*
X124318665Y-90005000D01*
X124041426Y-90060147D01*
X123780273Y-90168320D01*
X123545241Y-90325363D01*
X123345363Y-90525241D01*
X123190000Y-90757759D01*
X123034637Y-90525241D01*
X122834759Y-90325363D01*
X122599727Y-90168320D01*
X122338574Y-90060147D01*
X122061335Y-90005000D01*
X121778665Y-90005000D01*
X121501426Y-90060147D01*
X121240273Y-90168320D01*
X121005241Y-90325363D01*
X120805363Y-90525241D01*
X120650000Y-90757759D01*
X120494637Y-90525241D01*
X120294759Y-90325363D01*
X120059727Y-90168320D01*
X119798574Y-90060147D01*
X119521335Y-90005000D01*
X119238665Y-90005000D01*
X118961426Y-90060147D01*
X118700273Y-90168320D01*
X118465241Y-90325363D01*
X118265363Y-90525241D01*
X118110000Y-90757759D01*
X117954637Y-90525241D01*
X117754759Y-90325363D01*
X117519727Y-90168320D01*
X117258574Y-90060147D01*
X116981335Y-90005000D01*
X116698665Y-90005000D01*
X116421426Y-90060147D01*
X116160273Y-90168320D01*
X115925241Y-90325363D01*
X115725363Y-90525241D01*
X115570000Y-90757759D01*
X115414637Y-90525241D01*
X115214759Y-90325363D01*
X114979727Y-90168320D01*
X114718574Y-90060147D01*
X114441335Y-90005000D01*
X114158665Y-90005000D01*
X113881426Y-90060147D01*
X113620273Y-90168320D01*
X113385241Y-90325363D01*
X113185363Y-90525241D01*
X113030000Y-90757759D01*
X112874637Y-90525241D01*
X112674759Y-90325363D01*
X112439727Y-90168320D01*
X112178574Y-90060147D01*
X111901335Y-90005000D01*
X111618665Y-90005000D01*
X111341426Y-90060147D01*
X111080273Y-90168320D01*
X110845241Y-90325363D01*
X110645363Y-90525241D01*
X110488320Y-90760273D01*
X110483933Y-90770865D01*
X110372385Y-90584869D01*
X110183414Y-90376481D01*
X109957420Y-90208963D01*
X109703087Y-90088754D01*
X109569039Y-90048096D01*
X109347000Y-90170085D01*
X109093000Y-90170085D01*
X108870961Y-90048096D01*
X108736913Y-90088754D01*
X108482580Y-90208963D01*
X108256586Y-90376481D01*
X108067615Y-90584869D01*
X107956067Y-90770865D01*
X107951680Y-90760273D01*
X107794637Y-90525241D01*
X107594759Y-90325363D01*
X107359727Y-90168320D01*
X107098574Y-90060147D01*
X106821335Y-90005000D01*
X106538665Y-90005000D01*
X106261426Y-90060147D01*
X106000273Y-90168320D01*
X105765241Y-90325363D01*
X105565363Y-90525241D01*
X105410000Y-90757759D01*
X105254637Y-90525241D01*
X105054759Y-90325363D01*
X104819727Y-90168320D01*
X104558574Y-90060147D01*
X104281335Y-90005000D01*
X103998665Y-90005000D01*
X103721426Y-90060147D01*
X103460273Y-90168320D01*
X103225241Y-90325363D01*
X103026643Y-90523961D01*
X103025812Y-90515518D01*
X102989502Y-90395820D01*
X102930537Y-90285506D01*
X102851185Y-90188815D01*
X102754494Y-90109463D01*
X102644180Y-90050498D01*
X102524482Y-90014188D01*
X102400000Y-90001928D01*
X100800000Y-90001928D01*
X100675518Y-90014188D01*
X100555820Y-90050498D01*
X100445506Y-90109463D01*
X100348815Y-90188815D01*
X100269463Y-90285506D01*
X100210498Y-90395820D01*
X100174188Y-90515518D01*
X100161928Y-90640000D01*
X96608923Y-90640000D01*
X96683381Y-90500700D01*
X96732556Y-90338589D01*
X96745000Y-90212246D01*
X96745000Y-90212240D01*
X96749160Y-90170001D01*
X96745000Y-90127762D01*
X96745000Y-77172238D01*
X96749160Y-77129999D01*
X96745000Y-77087760D01*
X96745000Y-77087754D01*
X96732556Y-76961411D01*
X96683381Y-76799300D01*
X96603524Y-76649898D01*
X96496054Y-76518946D01*
X96463242Y-76492018D01*
X96029889Y-76058665D01*
X100165000Y-76058665D01*
X100165000Y-76341335D01*
X100220147Y-76618574D01*
X100328320Y-76879727D01*
X100485363Y-77114759D01*
X100685241Y-77314637D01*
X100920273Y-77471680D01*
X101181426Y-77579853D01*
X101458665Y-77635000D01*
X101741335Y-77635000D01*
X102018574Y-77579853D01*
X102279727Y-77471680D01*
X102514759Y-77314637D01*
X102714637Y-77114759D01*
X102871680Y-76879727D01*
X102876067Y-76869135D01*
X102987615Y-77055131D01*
X103176586Y-77263519D01*
X103402580Y-77431037D01*
X103656913Y-77551246D01*
X103790961Y-77591904D01*
X104013000Y-77469915D01*
X104013000Y-76327000D01*
X103993000Y-76327000D01*
X103993000Y-76073000D01*
X104013000Y-76073000D01*
X104013000Y-74930085D01*
X103790961Y-74808096D01*
X103656913Y-74848754D01*
X103402580Y-74968963D01*
X103176586Y-75136481D01*
X102987615Y-75344869D01*
X102876067Y-75530865D01*
X102871680Y-75520273D01*
X102714637Y-75285241D01*
X102514759Y-75085363D01*
X102279727Y-74928320D01*
X102018574Y-74820147D01*
X101741335Y-74765000D01*
X101458665Y-74765000D01*
X101181426Y-74820147D01*
X100920273Y-74928320D01*
X100685241Y-75085363D01*
X100485363Y-75285241D01*
X100328320Y-75520273D01*
X100220147Y-75781426D01*
X100165000Y-76058665D01*
X96029889Y-76058665D01*
X94132151Y-74160928D01*
X94145000Y-74096335D01*
X94145000Y-73813665D01*
X94089853Y-73536426D01*
X93981680Y-73275273D01*
X93824637Y-73040241D01*
X93624759Y-72840363D01*
X93570000Y-72803774D01*
X93570000Y-72111223D01*
X95606223Y-70075000D01*
X96638774Y-70075000D01*
X96675363Y-70129759D01*
X96875241Y-70329637D01*
X97110273Y-70486680D01*
X97371426Y-70594853D01*
X97648665Y-70650000D01*
X97931335Y-70650000D01*
X98208574Y-70594853D01*
X98469727Y-70486680D01*
X98704759Y-70329637D01*
X98904637Y-70129759D01*
X99061680Y-69894727D01*
X99169853Y-69633574D01*
X99225000Y-69356335D01*
X99225000Y-69073665D01*
X103975000Y-69073665D01*
X103975000Y-69356335D01*
X104030147Y-69633574D01*
X104138320Y-69894727D01*
X104295363Y-70129759D01*
X104495241Y-70329637D01*
X104730273Y-70486680D01*
X104991426Y-70594853D01*
X105268665Y-70650000D01*
X105551335Y-70650000D01*
X105828574Y-70594853D01*
X106089727Y-70486680D01*
X106324759Y-70329637D01*
X106524637Y-70129759D01*
X106681680Y-69894727D01*
X106789853Y-69633574D01*
X106845000Y-69356335D01*
X106845000Y-69073665D01*
X106789853Y-68796426D01*
X106681680Y-68535273D01*
X106524637Y-68300241D01*
X106324759Y-68100363D01*
X106270000Y-68063774D01*
X106270000Y-67666223D01*
X106401224Y-67535000D01*
X110768777Y-67535000D01*
X110900000Y-67666224D01*
X110900000Y-68101893D01*
X110808513Y-68193380D01*
X110786502Y-68120820D01*
X110727537Y-68010506D01*
X110648185Y-67913815D01*
X110551494Y-67834463D01*
X110441180Y-67775498D01*
X110321482Y-67739188D01*
X110197000Y-67726928D01*
X108497000Y-67726928D01*
X108372518Y-67739188D01*
X108252820Y-67775498D01*
X108142506Y-67834463D01*
X108045815Y-67913815D01*
X107966463Y-68010506D01*
X107907498Y-68120820D01*
X107871188Y-68240518D01*
X107858928Y-68365000D01*
X107858928Y-70065000D01*
X107871188Y-70189482D01*
X107907498Y-70309180D01*
X107966463Y-70419494D01*
X108045815Y-70516185D01*
X108142506Y-70595537D01*
X108252820Y-70654502D01*
X108360001Y-70687015D01*
X108360000Y-75048774D01*
X108305241Y-75085363D01*
X108105363Y-75285241D01*
X107950000Y-75517759D01*
X107794637Y-75285241D01*
X107594759Y-75085363D01*
X107359727Y-74928320D01*
X107098574Y-74820147D01*
X106821335Y-74765000D01*
X106538665Y-74765000D01*
X106261426Y-74820147D01*
X106000273Y-74928320D01*
X105765241Y-75085363D01*
X105565363Y-75285241D01*
X105408320Y-75520273D01*
X105403933Y-75530865D01*
X105292385Y-75344869D01*
X105103414Y-75136481D01*
X104877420Y-74968963D01*
X104623087Y-74848754D01*
X104489039Y-74808096D01*
X104267000Y-74930085D01*
X104267000Y-76073000D01*
X104287000Y-76073000D01*
X104287000Y-76327000D01*
X104267000Y-76327000D01*
X104267000Y-77469915D01*
X104489039Y-77591904D01*
X104623087Y-77551246D01*
X104877420Y-77431037D01*
X105103414Y-77263519D01*
X105292385Y-77055131D01*
X105403933Y-76869135D01*
X105408320Y-76879727D01*
X105565363Y-77114759D01*
X105765241Y-77314637D01*
X106000273Y-77471680D01*
X106261426Y-77579853D01*
X106538665Y-77635000D01*
X106821335Y-77635000D01*
X107098574Y-77579853D01*
X107359727Y-77471680D01*
X107594759Y-77314637D01*
X107794637Y-77114759D01*
X107950000Y-76882241D01*
X108105363Y-77114759D01*
X108305241Y-77314637D01*
X108540273Y-77471680D01*
X108801426Y-77579853D01*
X109078665Y-77635000D01*
X109361335Y-77635000D01*
X109638574Y-77579853D01*
X109899727Y-77471680D01*
X110134759Y-77314637D01*
X110334637Y-77114759D01*
X110490000Y-76882241D01*
X110645363Y-77114759D01*
X110845241Y-77314637D01*
X111080273Y-77471680D01*
X111341426Y-77579853D01*
X111618665Y-77635000D01*
X111901335Y-77635000D01*
X112178574Y-77579853D01*
X112439727Y-77471680D01*
X112674759Y-77314637D01*
X112874637Y-77114759D01*
X113030000Y-76882241D01*
X113185363Y-77114759D01*
X113385241Y-77314637D01*
X113620273Y-77471680D01*
X113881426Y-77579853D01*
X114158665Y-77635000D01*
X114441335Y-77635000D01*
X114718574Y-77579853D01*
X114979727Y-77471680D01*
X115214759Y-77314637D01*
X115414637Y-77114759D01*
X115570000Y-76882241D01*
X115725363Y-77114759D01*
X115925241Y-77314637D01*
X116160273Y-77471680D01*
X116421426Y-77579853D01*
X116698665Y-77635000D01*
X116981335Y-77635000D01*
X117258574Y-77579853D01*
X117519727Y-77471680D01*
X117754759Y-77314637D01*
X117954637Y-77114759D01*
X118110000Y-76882241D01*
X118265363Y-77114759D01*
X118465241Y-77314637D01*
X118700273Y-77471680D01*
X118961426Y-77579853D01*
X119238665Y-77635000D01*
X119521335Y-77635000D01*
X119798574Y-77579853D01*
X120059727Y-77471680D01*
X120294759Y-77314637D01*
X120494637Y-77114759D01*
X120650000Y-76882241D01*
X120805363Y-77114759D01*
X121005241Y-77314637D01*
X121240273Y-77471680D01*
X121501426Y-77579853D01*
X121778665Y-77635000D01*
X122061335Y-77635000D01*
X122338574Y-77579853D01*
X122599727Y-77471680D01*
X122834759Y-77314637D01*
X123034637Y-77114759D01*
X123190000Y-76882241D01*
X123345363Y-77114759D01*
X123545241Y-77314637D01*
X123780273Y-77471680D01*
X124041426Y-77579853D01*
X124318665Y-77635000D01*
X124601335Y-77635000D01*
X124878574Y-77579853D01*
X125139727Y-77471680D01*
X125374759Y-77314637D01*
X125574637Y-77114759D01*
X125730000Y-76882241D01*
X125885363Y-77114759D01*
X126085241Y-77314637D01*
X126320273Y-77471680D01*
X126581426Y-77579853D01*
X126858665Y-77635000D01*
X127141335Y-77635000D01*
X127418574Y-77579853D01*
X127679727Y-77471680D01*
X127914759Y-77314637D01*
X128114637Y-77114759D01*
X128270000Y-76882241D01*
X128425363Y-77114759D01*
X128625241Y-77314637D01*
X128860273Y-77471680D01*
X129121426Y-77579853D01*
X129398665Y-77635000D01*
X129681335Y-77635000D01*
X129958574Y-77579853D01*
X130219727Y-77471680D01*
X130454759Y-77314637D01*
X130654637Y-77114759D01*
X130810000Y-76882241D01*
X130965363Y-77114759D01*
X131165241Y-77314637D01*
X131400273Y-77471680D01*
X131661426Y-77579853D01*
X131938665Y-77635000D01*
X132221335Y-77635000D01*
X132498574Y-77579853D01*
X132759727Y-77471680D01*
X132994759Y-77314637D01*
X133194637Y-77114759D01*
X133350000Y-76882241D01*
X133505363Y-77114759D01*
X133705241Y-77314637D01*
X133940273Y-77471680D01*
X134201426Y-77579853D01*
X134478665Y-77635000D01*
X134761335Y-77635000D01*
X135038574Y-77579853D01*
X135299727Y-77471680D01*
X135534759Y-77314637D01*
X135734637Y-77114759D01*
X135890000Y-76882241D01*
X136045363Y-77114759D01*
X136245241Y-77314637D01*
X136480273Y-77471680D01*
X136741426Y-77579853D01*
X137018665Y-77635000D01*
X137301335Y-77635000D01*
X137578574Y-77579853D01*
X137839727Y-77471680D01*
X138074759Y-77314637D01*
X138274637Y-77114759D01*
X138431680Y-76879727D01*
X138539853Y-76618574D01*
X138595000Y-76341335D01*
X138595000Y-76058665D01*
X138539853Y-75781426D01*
X138431680Y-75520273D01*
X138274637Y-75285241D01*
X138074759Y-75085363D01*
X137839727Y-74928320D01*
X137578574Y-74820147D01*
X137301335Y-74765000D01*
X137018665Y-74765000D01*
X136741426Y-74820147D01*
X136480273Y-74928320D01*
X136245241Y-75085363D01*
X136045363Y-75285241D01*
X135890000Y-75517759D01*
X135734637Y-75285241D01*
X135534759Y-75085363D01*
X135299727Y-74928320D01*
X135038574Y-74820147D01*
X134761335Y-74765000D01*
X134478665Y-74765000D01*
X134414072Y-74777849D01*
X133352988Y-73716765D01*
X133326054Y-73683946D01*
X133195102Y-73576476D01*
X133045700Y-73496619D01*
X132883589Y-73447444D01*
X132757246Y-73435000D01*
X132757239Y-73435000D01*
X132715000Y-73430840D01*
X132672761Y-73435000D01*
X116561224Y-73435000D01*
X115160000Y-72033777D01*
X115160000Y-70511219D01*
X115373632Y-70368475D01*
X115580475Y-70161632D01*
X115742990Y-69918411D01*
X115854932Y-69648158D01*
X115912000Y-69361260D01*
X115912000Y-69285512D01*
X119114783Y-69285512D01*
X119156213Y-69565130D01*
X119251397Y-69831292D01*
X119318329Y-69956514D01*
X119562298Y-70028097D01*
X120375395Y-69215000D01*
X119562298Y-68401903D01*
X119318329Y-68473486D01*
X119197429Y-68728996D01*
X119128700Y-69003184D01*
X119114783Y-69285512D01*
X115912000Y-69285512D01*
X115912000Y-69068740D01*
X115854932Y-68781842D01*
X115742990Y-68511589D01*
X115580475Y-68268368D01*
X115534405Y-68222298D01*
X119741903Y-68222298D01*
X120555000Y-69035395D01*
X120569143Y-69021253D01*
X120748748Y-69200858D01*
X120734605Y-69215000D01*
X120748748Y-69229143D01*
X120569143Y-69408748D01*
X120555000Y-69394605D01*
X119741903Y-70207702D01*
X119813486Y-70451671D01*
X120068996Y-70572571D01*
X120343184Y-70641300D01*
X120625512Y-70655217D01*
X120905130Y-70613787D01*
X121171292Y-70518603D01*
X121293309Y-70453384D01*
X121303815Y-70466185D01*
X121400506Y-70545537D01*
X121510820Y-70604502D01*
X121630518Y-70640812D01*
X121755000Y-70653072D01*
X123355000Y-70653072D01*
X123479482Y-70640812D01*
X123599180Y-70604502D01*
X123709494Y-70545537D01*
X123806185Y-70466185D01*
X123885537Y-70369494D01*
X123944502Y-70259180D01*
X123980812Y-70139482D01*
X123993072Y-70015000D01*
X123993072Y-68415000D01*
X123980812Y-68290518D01*
X123944502Y-68170820D01*
X123885537Y-68060506D01*
X123806185Y-67963815D01*
X123709494Y-67884463D01*
X123599180Y-67825498D01*
X123479482Y-67789188D01*
X123355000Y-67776928D01*
X121755000Y-67776928D01*
X121630518Y-67789188D01*
X121510820Y-67825498D01*
X121400506Y-67884463D01*
X121303815Y-67963815D01*
X121293193Y-67976758D01*
X121041004Y-67857429D01*
X120766816Y-67788700D01*
X120484488Y-67774783D01*
X120204870Y-67816213D01*
X119938708Y-67911397D01*
X119813486Y-67978329D01*
X119741903Y-68222298D01*
X115534405Y-68222298D01*
X115373632Y-68061525D01*
X115130411Y-67899010D01*
X114860158Y-67787068D01*
X114573260Y-67730000D01*
X114280740Y-67730000D01*
X113993842Y-67787068D01*
X113723589Y-67899010D01*
X113480368Y-68061525D01*
X113273525Y-68268368D01*
X113157000Y-68442760D01*
X113040475Y-68268368D01*
X112833632Y-68061525D01*
X112620000Y-67918781D01*
X112620000Y-67352246D01*
X112624161Y-67310000D01*
X112607556Y-67141410D01*
X112558381Y-66979299D01*
X112530564Y-66927259D01*
X112478524Y-66829898D01*
X112371054Y-66698946D01*
X112338241Y-66672017D01*
X111762987Y-66096764D01*
X111736054Y-66063946D01*
X111605102Y-65956476D01*
X111455700Y-65876619D01*
X111293589Y-65827444D01*
X111167246Y-65815000D01*
X111167239Y-65815000D01*
X111125000Y-65810840D01*
X111082761Y-65815000D01*
X106087246Y-65815000D01*
X106045000Y-65810839D01*
X105876410Y-65827444D01*
X105714299Y-65876619D01*
X105662259Y-65904436D01*
X105564898Y-65956476D01*
X105433946Y-66063946D01*
X105407016Y-66096760D01*
X104831760Y-66672017D01*
X104798947Y-66698946D01*
X104772018Y-66731759D01*
X104772016Y-66731761D01*
X104691477Y-66829898D01*
X104611620Y-66979300D01*
X104562444Y-67141411D01*
X104545840Y-67310000D01*
X104550001Y-67352248D01*
X104550001Y-68063774D01*
X104495241Y-68100363D01*
X104295363Y-68300241D01*
X104138320Y-68535273D01*
X104030147Y-68796426D01*
X103975000Y-69073665D01*
X99225000Y-69073665D01*
X99169853Y-68796426D01*
X99061680Y-68535273D01*
X98904637Y-68300241D01*
X98704759Y-68100363D01*
X98469727Y-67943320D01*
X98208574Y-67835147D01*
X97931335Y-67780000D01*
X97648665Y-67780000D01*
X97371426Y-67835147D01*
X97110273Y-67943320D01*
X96875241Y-68100363D01*
X96675363Y-68300241D01*
X96638774Y-68355000D01*
X95292238Y-68355000D01*
X95249999Y-68350840D01*
X95207760Y-68355000D01*
X95207754Y-68355000D01*
X95112538Y-68364378D01*
X95081409Y-68367444D01*
X95005950Y-68390335D01*
X94919300Y-68416619D01*
X94769898Y-68496476D01*
X94638946Y-68603946D01*
X94612012Y-68636765D01*
X92131765Y-71117012D01*
X92098946Y-71143946D01*
X91991476Y-71274899D01*
X91911619Y-71424301D01*
X91862444Y-71586412D01*
X91850000Y-71712755D01*
X91850000Y-71712761D01*
X91845840Y-71755000D01*
X91850000Y-71797239D01*
X91850000Y-72803774D01*
X91795241Y-72840363D01*
X91595363Y-73040241D01*
X91438320Y-73275273D01*
X91330147Y-73536426D01*
X91275000Y-73813665D01*
X91275000Y-74096335D01*
X91330147Y-74373574D01*
X91438320Y-74634727D01*
X91595363Y-74869759D01*
X91795241Y-75069637D01*
X92030273Y-75226680D01*
X92291426Y-75334853D01*
X92317301Y-75340000D01*
X92291426Y-75345147D01*
X92030273Y-75453320D01*
X91795241Y-75610363D01*
X91595363Y-75810241D01*
X91438320Y-76045273D01*
X91330147Y-76306426D01*
X91275000Y-76583665D01*
X91275000Y-76866335D01*
X91330147Y-77143574D01*
X91438320Y-77404727D01*
X91595363Y-77639759D01*
X91795241Y-77839637D01*
X92030273Y-77996680D01*
X92291426Y-78104853D01*
X92317301Y-78110000D01*
X92291426Y-78115147D01*
X92030273Y-78223320D01*
X91795241Y-78380363D01*
X91595363Y-78580241D01*
X91438320Y-78815273D01*
X91330147Y-79076426D01*
X91275000Y-79353665D01*
X91275000Y-79636335D01*
X91330147Y-79913574D01*
X91438320Y-80174727D01*
X91595363Y-80409759D01*
X91795241Y-80609637D01*
X92030273Y-80766680D01*
X92291426Y-80874853D01*
X92319882Y-80880513D01*
X92093708Y-80961397D01*
X91968486Y-81028329D01*
X91896903Y-81272298D01*
X92710000Y-82085395D01*
X93523097Y-81272298D01*
X93451514Y-81028329D01*
X93196004Y-80907429D01*
X93093711Y-80881788D01*
X93128574Y-80874853D01*
X93389727Y-80766680D01*
X93624759Y-80609637D01*
X93824637Y-80409759D01*
X93981680Y-80174727D01*
X94089853Y-79913574D01*
X94145000Y-79636335D01*
X94145000Y-79353665D01*
X94089853Y-79076426D01*
X93981680Y-78815273D01*
X93824637Y-78580241D01*
X93624759Y-78380363D01*
X93389727Y-78223320D01*
X93128574Y-78115147D01*
X93102699Y-78110000D01*
X93128574Y-78104853D01*
X93389727Y-77996680D01*
X93624759Y-77839637D01*
X93824637Y-77639759D01*
X93981680Y-77404727D01*
X94089853Y-77143574D01*
X94145000Y-76866335D01*
X94145000Y-76606224D01*
X95025000Y-77486224D01*
X95025001Y-89813775D01*
X94145000Y-90693776D01*
X94145000Y-90433665D01*
X94089853Y-90156426D01*
X93981680Y-89895273D01*
X93824637Y-89660241D01*
X93624759Y-89460363D01*
X93389727Y-89303320D01*
X93128574Y-89195147D01*
X93102699Y-89190000D01*
X93128574Y-89184853D01*
X93389727Y-89076680D01*
X93624759Y-88919637D01*
X93824637Y-88719759D01*
X93981680Y-88484727D01*
X94089853Y-88223574D01*
X94145000Y-87946335D01*
X94145000Y-87663665D01*
X94089853Y-87386426D01*
X93981680Y-87125273D01*
X93824637Y-86890241D01*
X93624759Y-86690363D01*
X93389727Y-86533320D01*
X93128574Y-86425147D01*
X93100118Y-86419487D01*
X93326292Y-86338603D01*
X93451514Y-86271671D01*
X93523097Y-86027702D01*
X92710000Y-85214605D01*
X91896903Y-86027702D01*
X91968486Y-86271671D01*
X92223996Y-86392571D01*
X92326289Y-86418212D01*
X92291426Y-86425147D01*
X92030273Y-86533320D01*
X91795241Y-86690363D01*
X91595363Y-86890241D01*
X91438320Y-87125273D01*
X91330147Y-87386426D01*
X91275000Y-87663665D01*
X91275000Y-87946335D01*
X91330147Y-88223574D01*
X91438320Y-88484727D01*
X91595363Y-88719759D01*
X91795241Y-88919637D01*
X92030273Y-89076680D01*
X92291426Y-89184853D01*
X92317301Y-89190000D01*
X92291426Y-89195147D01*
X92030273Y-89303320D01*
X91795241Y-89460363D01*
X91595363Y-89660241D01*
X91438320Y-89895273D01*
X91330147Y-90156426D01*
X91275000Y-90433665D01*
X91275000Y-90716335D01*
X91330147Y-90993574D01*
X91438320Y-91254727D01*
X91595363Y-91489759D01*
X91795241Y-91689637D01*
X92030273Y-91846680D01*
X92175725Y-91906928D01*
X91910000Y-91906928D01*
X91785518Y-91919188D01*
X91665820Y-91955498D01*
X91555506Y-92014463D01*
X91458815Y-92093815D01*
X91379463Y-92190506D01*
X91320498Y-92300820D01*
X91284188Y-92420518D01*
X91277837Y-92485000D01*
X91205770Y-92485000D01*
X91249853Y-92378574D01*
X91305000Y-92101335D01*
X91305000Y-91818665D01*
X91249853Y-91541426D01*
X91141680Y-91280273D01*
X90984637Y-91045241D01*
X90784759Y-90845363D01*
X90549727Y-90688320D01*
X90288574Y-90580147D01*
X90262699Y-90575000D01*
X90288574Y-90569853D01*
X90549727Y-90461680D01*
X90784759Y-90304637D01*
X90984637Y-90104759D01*
X91141680Y-89869727D01*
X91249853Y-89608574D01*
X91305000Y-89331335D01*
X91305000Y-89048665D01*
X91249853Y-88771426D01*
X91141680Y-88510273D01*
X90984637Y-88275241D01*
X90784759Y-88075363D01*
X90549727Y-87918320D01*
X90288574Y-87810147D01*
X90262699Y-87805000D01*
X90288574Y-87799853D01*
X90549727Y-87691680D01*
X90784759Y-87534637D01*
X90984637Y-87334759D01*
X91141680Y-87099727D01*
X91249853Y-86838574D01*
X91305000Y-86561335D01*
X91305000Y-86278665D01*
X91249853Y-86001426D01*
X91141680Y-85740273D01*
X90984637Y-85505241D01*
X90784759Y-85305363D01*
X90549727Y-85148320D01*
X90446380Y-85105512D01*
X91269783Y-85105512D01*
X91311213Y-85385130D01*
X91406397Y-85651292D01*
X91473329Y-85776514D01*
X91717298Y-85848097D01*
X92530395Y-85035000D01*
X92889605Y-85035000D01*
X93702702Y-85848097D01*
X93946671Y-85776514D01*
X94067571Y-85521004D01*
X94136300Y-85246816D01*
X94150217Y-84964488D01*
X94108787Y-84684870D01*
X94013603Y-84418708D01*
X93946671Y-84293486D01*
X93702702Y-84221903D01*
X92889605Y-85035000D01*
X92530395Y-85035000D01*
X91717298Y-84221903D01*
X91473329Y-84293486D01*
X91352429Y-84548996D01*
X91283700Y-84823184D01*
X91269783Y-85105512D01*
X90446380Y-85105512D01*
X90288574Y-85040147D01*
X90262699Y-85035000D01*
X90288574Y-85029853D01*
X90549727Y-84921680D01*
X90784759Y-84764637D01*
X90984637Y-84564759D01*
X91141680Y-84329727D01*
X91249853Y-84068574D01*
X91305000Y-83791335D01*
X91305000Y-83508665D01*
X91255080Y-83257702D01*
X91896903Y-83257702D01*
X91968486Y-83501671D01*
X92223996Y-83622571D01*
X92326305Y-83648216D01*
X92093708Y-83731397D01*
X91968486Y-83798329D01*
X91896903Y-84042298D01*
X92710000Y-84855395D01*
X93523097Y-84042298D01*
X93451514Y-83798329D01*
X93196004Y-83677429D01*
X93093695Y-83651784D01*
X93326292Y-83568603D01*
X93451514Y-83501671D01*
X93523097Y-83257702D01*
X92710000Y-82444605D01*
X91896903Y-83257702D01*
X91255080Y-83257702D01*
X91249853Y-83231426D01*
X91141680Y-82970273D01*
X90984637Y-82735241D01*
X90784759Y-82535363D01*
X90549727Y-82378320D01*
X90446380Y-82335512D01*
X91269783Y-82335512D01*
X91311213Y-82615130D01*
X91406397Y-82881292D01*
X91473329Y-83006514D01*
X91717298Y-83078097D01*
X92530395Y-82265000D01*
X92889605Y-82265000D01*
X93702702Y-83078097D01*
X93946671Y-83006514D01*
X94067571Y-82751004D01*
X94136300Y-82476816D01*
X94150217Y-82194488D01*
X94108787Y-81914870D01*
X94013603Y-81648708D01*
X93946671Y-81523486D01*
X93702702Y-81451903D01*
X92889605Y-82265000D01*
X92530395Y-82265000D01*
X91717298Y-81451903D01*
X91473329Y-81523486D01*
X91352429Y-81778996D01*
X91283700Y-82053184D01*
X91269783Y-82335512D01*
X90446380Y-82335512D01*
X90288574Y-82270147D01*
X90262699Y-82265000D01*
X90288574Y-82259853D01*
X90549727Y-82151680D01*
X90784759Y-81994637D01*
X90984637Y-81794759D01*
X91141680Y-81559727D01*
X91249853Y-81298574D01*
X91305000Y-81021335D01*
X91305000Y-80738665D01*
X91249853Y-80461426D01*
X91141680Y-80200273D01*
X90984637Y-79965241D01*
X90784759Y-79765363D01*
X90549727Y-79608320D01*
X90288574Y-79500147D01*
X90262699Y-79495000D01*
X90288574Y-79489853D01*
X90549727Y-79381680D01*
X90784759Y-79224637D01*
X90984637Y-79024759D01*
X91141680Y-78789727D01*
X91249853Y-78528574D01*
X91305000Y-78251335D01*
X91305000Y-77968665D01*
X91249853Y-77691426D01*
X91141680Y-77430273D01*
X90984637Y-77195241D01*
X90784759Y-76995363D01*
X90549727Y-76838320D01*
X90288574Y-76730147D01*
X90262699Y-76725000D01*
X90288574Y-76719853D01*
X90549727Y-76611680D01*
X90784759Y-76454637D01*
X90984637Y-76254759D01*
X91141680Y-76019727D01*
X91249853Y-75758574D01*
X91305000Y-75481335D01*
X91305000Y-75198665D01*
X91249853Y-74921426D01*
X91141680Y-74660273D01*
X90984637Y-74425241D01*
X90784759Y-74225363D01*
X90549727Y-74068320D01*
X90288574Y-73960147D01*
X90011335Y-73905000D01*
X89728665Y-73905000D01*
X89451426Y-73960147D01*
X89190273Y-74068320D01*
X88955241Y-74225363D01*
X88755363Y-74425241D01*
X88598320Y-74660273D01*
X88490147Y-74921426D01*
X88435000Y-75198665D01*
X82625000Y-75198665D01*
X82625000Y-64845000D01*
X89772310Y-64845000D01*
X89610285Y-64953262D01*
%TA.AperFunction,Conductor*%
D18*
G36*
X89610285Y-64953262D02*
G01*
X89243262Y-65320285D01*
X88954893Y-65751859D01*
X88756261Y-66231399D01*
X88655000Y-66740475D01*
X88655000Y-67259525D01*
X88756261Y-67768601D01*
X88954893Y-68248141D01*
X89243262Y-68679715D01*
X89610285Y-69046738D01*
X90041859Y-69335107D01*
X90521399Y-69533739D01*
X91030475Y-69635000D01*
X91549525Y-69635000D01*
X92058601Y-69533739D01*
X92538141Y-69335107D01*
X92969715Y-69046738D01*
X93336738Y-68679715D01*
X93625107Y-68248141D01*
X93823739Y-67768601D01*
X93925000Y-67259525D01*
X93925000Y-66740475D01*
X93823739Y-66231399D01*
X93625107Y-65751859D01*
X93336738Y-65320285D01*
X92969715Y-64953262D01*
X92807690Y-64845000D01*
X124259041Y-64845000D01*
X140260000Y-74691744D01*
X140260001Y-92948255D01*
X124259041Y-102795000D01*
X92152125Y-102795000D01*
X92538141Y-102635107D01*
X92969715Y-102346738D01*
X93336738Y-101979715D01*
X93625107Y-101548141D01*
X93823739Y-101068601D01*
X93925000Y-100559525D01*
X93925000Y-100040475D01*
X93823739Y-99531399D01*
X93625107Y-99051859D01*
X93336738Y-98620285D01*
X92969715Y-98253262D01*
X92538141Y-97964893D01*
X92058601Y-97766261D01*
X91549525Y-97665000D01*
X91030475Y-97665000D01*
X90521399Y-97766261D01*
X90041859Y-97964893D01*
X89610285Y-98253262D01*
X89243262Y-98620285D01*
X88954893Y-99051859D01*
X88756261Y-99531399D01*
X88655000Y-100040475D01*
X88655000Y-100559525D01*
X88756261Y-101068601D01*
X88954893Y-101548141D01*
X89243262Y-101979715D01*
X89610285Y-102346738D01*
X90041859Y-102635107D01*
X90427875Y-102795000D01*
X82625000Y-102795000D01*
X82625000Y-75198665D01*
X88435000Y-75198665D01*
X88435000Y-75481335D01*
X88490147Y-75758574D01*
X88598320Y-76019727D01*
X88755363Y-76254759D01*
X88955241Y-76454637D01*
X89190273Y-76611680D01*
X89451426Y-76719853D01*
X89477301Y-76725000D01*
X89451426Y-76730147D01*
X89190273Y-76838320D01*
X88955241Y-76995363D01*
X88755363Y-77195241D01*
X88598320Y-77430273D01*
X88490147Y-77691426D01*
X88435000Y-77968665D01*
X88435000Y-78251335D01*
X88490147Y-78528574D01*
X88598320Y-78789727D01*
X88755363Y-79024759D01*
X88955241Y-79224637D01*
X89190273Y-79381680D01*
X89451426Y-79489853D01*
X89477301Y-79495000D01*
X89451426Y-79500147D01*
X89190273Y-79608320D01*
X88955241Y-79765363D01*
X88755363Y-79965241D01*
X88598320Y-80200273D01*
X88490147Y-80461426D01*
X88435000Y-80738665D01*
X88435000Y-81021335D01*
X88490147Y-81298574D01*
X88598320Y-81559727D01*
X88755363Y-81794759D01*
X88955241Y-81994637D01*
X89190273Y-82151680D01*
X89451426Y-82259853D01*
X89477301Y-82265000D01*
X89451426Y-82270147D01*
X89190273Y-82378320D01*
X88955241Y-82535363D01*
X88755363Y-82735241D01*
X88598320Y-82970273D01*
X88490147Y-83231426D01*
X88435000Y-83508665D01*
X88435000Y-83791335D01*
X88490147Y-84068574D01*
X88598320Y-84329727D01*
X88755363Y-84564759D01*
X88955241Y-84764637D01*
X89190273Y-84921680D01*
X89451426Y-85029853D01*
X89477301Y-85035000D01*
X89451426Y-85040147D01*
X89190273Y-85148320D01*
X88955241Y-85305363D01*
X88755363Y-85505241D01*
X88598320Y-85740273D01*
X88490147Y-86001426D01*
X88435000Y-86278665D01*
X88435000Y-86561335D01*
X88490147Y-86838574D01*
X88598320Y-87099727D01*
X88755363Y-87334759D01*
X88955241Y-87534637D01*
X89190273Y-87691680D01*
X89451426Y-87799853D01*
X89477301Y-87805000D01*
X89451426Y-87810147D01*
X89190273Y-87918320D01*
X88955241Y-88075363D01*
X88755363Y-88275241D01*
X88598320Y-88510273D01*
X88490147Y-88771426D01*
X88435000Y-89048665D01*
X88435000Y-89331335D01*
X88490147Y-89608574D01*
X88598320Y-89869727D01*
X88755363Y-90104759D01*
X88955241Y-90304637D01*
X89190273Y-90461680D01*
X89451426Y-90569853D01*
X89477301Y-90575000D01*
X89451426Y-90580147D01*
X89190273Y-90688320D01*
X88955241Y-90845363D01*
X88755363Y-91045241D01*
X88598320Y-91280273D01*
X88490147Y-91541426D01*
X88435000Y-91818665D01*
X88435000Y-92101335D01*
X88490147Y-92378574D01*
X88598320Y-92639727D01*
X88755363Y-92874759D01*
X88955241Y-93074637D01*
X89012529Y-93112915D01*
X89022444Y-93213589D01*
X89060746Y-93339853D01*
X89071620Y-93375700D01*
X89151477Y-93525102D01*
X89258947Y-93656054D01*
X89291760Y-93682983D01*
X89532012Y-93923235D01*
X89558946Y-93956054D01*
X89689898Y-94063524D01*
X89839300Y-94143381D01*
X89963680Y-94181111D01*
X90001410Y-94192556D01*
X90018558Y-94194245D01*
X90127754Y-94205000D01*
X90127760Y-94205000D01*
X90169999Y-94209160D01*
X90212238Y-94205000D01*
X91277837Y-94205000D01*
X91284188Y-94269482D01*
X91320498Y-94389180D01*
X91379463Y-94499494D01*
X91458815Y-94596185D01*
X91555506Y-94675537D01*
X91665820Y-94734502D01*
X91785518Y-94770812D01*
X91910000Y-94783072D01*
X93510000Y-94783072D01*
X93634482Y-94770812D01*
X93754180Y-94734502D01*
X93864494Y-94675537D01*
X93961185Y-94596185D01*
X94040537Y-94499494D01*
X94099502Y-94389180D01*
X94135812Y-94269482D01*
X94148072Y-94145000D01*
X94148072Y-93123151D01*
X96463241Y-90807983D01*
X96496054Y-90781054D01*
X96603524Y-90650102D01*
X96608923Y-90640000D01*
X100161928Y-90640000D01*
X100161928Y-92240000D01*
X100174188Y-92364482D01*
X100210498Y-92484180D01*
X100269463Y-92594494D01*
X100348815Y-92691185D01*
X100445506Y-92770537D01*
X100555820Y-92829502D01*
X100675518Y-92865812D01*
X100800000Y-92878072D01*
X102400000Y-92878072D01*
X102524482Y-92865812D01*
X102644180Y-92829502D01*
X102754494Y-92770537D01*
X102851185Y-92691185D01*
X102930537Y-92594494D01*
X102989502Y-92484180D01*
X103025812Y-92364482D01*
X103026643Y-92356039D01*
X103225241Y-92554637D01*
X103460273Y-92711680D01*
X103721426Y-92819853D01*
X103998665Y-92875000D01*
X104281335Y-92875000D01*
X104558574Y-92819853D01*
X104819727Y-92711680D01*
X105054759Y-92554637D01*
X105254637Y-92354759D01*
X105410000Y-92122241D01*
X105565363Y-92354759D01*
X105765241Y-92554637D01*
X106000273Y-92711680D01*
X106261426Y-92819853D01*
X106538665Y-92875000D01*
X106821335Y-92875000D01*
X107098574Y-92819853D01*
X107359727Y-92711680D01*
X107594759Y-92554637D01*
X107794637Y-92354759D01*
X107951680Y-92119727D01*
X107956067Y-92109135D01*
X108067615Y-92295131D01*
X108256586Y-92503519D01*
X108482580Y-92671037D01*
X108736913Y-92791246D01*
X108870961Y-92831904D01*
X109093000Y-92709915D01*
X109093000Y-91567000D01*
X109073000Y-91567000D01*
X109073000Y-91313000D01*
X109093000Y-91313000D01*
X109093000Y-90170085D01*
X109347000Y-90170085D01*
X109347000Y-91313000D01*
X109367000Y-91313000D01*
X109367000Y-91567000D01*
X109347000Y-91567000D01*
X109347000Y-92709915D01*
X109569039Y-92831904D01*
X109703087Y-92791246D01*
X109957420Y-92671037D01*
X110183414Y-92503519D01*
X110372385Y-92295131D01*
X110483933Y-92109135D01*
X110488320Y-92119727D01*
X110645363Y-92354759D01*
X110845241Y-92554637D01*
X111080273Y-92711680D01*
X111341426Y-92819853D01*
X111618665Y-92875000D01*
X111901335Y-92875000D01*
X112178574Y-92819853D01*
X112439727Y-92711680D01*
X112674759Y-92554637D01*
X112874637Y-92354759D01*
X113030000Y-92122241D01*
X113185363Y-92354759D01*
X113385241Y-92554637D01*
X113620273Y-92711680D01*
X113881426Y-92819853D01*
X114158665Y-92875000D01*
X114441335Y-92875000D01*
X114718574Y-92819853D01*
X114979727Y-92711680D01*
X115214759Y-92554637D01*
X115414637Y-92354759D01*
X115570000Y-92122241D01*
X115725363Y-92354759D01*
X115925241Y-92554637D01*
X116160273Y-92711680D01*
X116421426Y-92819853D01*
X116698665Y-92875000D01*
X116981335Y-92875000D01*
X117258574Y-92819853D01*
X117519727Y-92711680D01*
X117754759Y-92554637D01*
X117954637Y-92354759D01*
X118110000Y-92122241D01*
X118265363Y-92354759D01*
X118465241Y-92554637D01*
X118700273Y-92711680D01*
X118961426Y-92819853D01*
X119238665Y-92875000D01*
X119521335Y-92875000D01*
X119798574Y-92819853D01*
X120059727Y-92711680D01*
X120294759Y-92554637D01*
X120494637Y-92354759D01*
X120650000Y-92122241D01*
X120805363Y-92354759D01*
X121005241Y-92554637D01*
X121240273Y-92711680D01*
X121501426Y-92819853D01*
X121778665Y-92875000D01*
X122061335Y-92875000D01*
X122338574Y-92819853D01*
X122599727Y-92711680D01*
X122834759Y-92554637D01*
X123034637Y-92354759D01*
X123190000Y-92122241D01*
X123345363Y-92354759D01*
X123545241Y-92554637D01*
X123780273Y-92711680D01*
X124041426Y-92819853D01*
X124318665Y-92875000D01*
X124601335Y-92875000D01*
X124878574Y-92819853D01*
X125139727Y-92711680D01*
X125374759Y-92554637D01*
X125574637Y-92354759D01*
X125730000Y-92122241D01*
X125885363Y-92354759D01*
X126085241Y-92554637D01*
X126320273Y-92711680D01*
X126581426Y-92819853D01*
X126858665Y-92875000D01*
X127141335Y-92875000D01*
X127418574Y-92819853D01*
X127679727Y-92711680D01*
X127914759Y-92554637D01*
X128114637Y-92354759D01*
X128270000Y-92122241D01*
X128425363Y-92354759D01*
X128625241Y-92554637D01*
X128860273Y-92711680D01*
X129121426Y-92819853D01*
X129398665Y-92875000D01*
X129681335Y-92875000D01*
X129958574Y-92819853D01*
X130219727Y-92711680D01*
X130454759Y-92554637D01*
X130654637Y-92354759D01*
X130810000Y-92122241D01*
X130965363Y-92354759D01*
X131165241Y-92554637D01*
X131400273Y-92711680D01*
X131661426Y-92819853D01*
X131938665Y-92875000D01*
X132221335Y-92875000D01*
X132498574Y-92819853D01*
X132759727Y-92711680D01*
X132994759Y-92554637D01*
X133194637Y-92354759D01*
X133350000Y-92122241D01*
X133505363Y-92354759D01*
X133705241Y-92554637D01*
X133940273Y-92711680D01*
X134201426Y-92819853D01*
X134478665Y-92875000D01*
X134761335Y-92875000D01*
X135038574Y-92819853D01*
X135299727Y-92711680D01*
X135534759Y-92554637D01*
X135734637Y-92354759D01*
X135890000Y-92122241D01*
X136045363Y-92354759D01*
X136245241Y-92554637D01*
X136480273Y-92711680D01*
X136741426Y-92819853D01*
X137018665Y-92875000D01*
X137301335Y-92875000D01*
X137578574Y-92819853D01*
X137839727Y-92711680D01*
X138074759Y-92554637D01*
X138274637Y-92354759D01*
X138431680Y-92119727D01*
X138539853Y-91858574D01*
X138595000Y-91581335D01*
X138595000Y-91298665D01*
X138539853Y-91021426D01*
X138431680Y-90760273D01*
X138274637Y-90525241D01*
X138074759Y-90325363D01*
X137839727Y-90168320D01*
X137578574Y-90060147D01*
X137301335Y-90005000D01*
X137018665Y-90005000D01*
X136741426Y-90060147D01*
X136480273Y-90168320D01*
X136245241Y-90325363D01*
X136045363Y-90525241D01*
X135890000Y-90757759D01*
X135734637Y-90525241D01*
X135534759Y-90325363D01*
X135299727Y-90168320D01*
X135038574Y-90060147D01*
X134761335Y-90005000D01*
X134478665Y-90005000D01*
X134201426Y-90060147D01*
X133940273Y-90168320D01*
X133705241Y-90325363D01*
X133505363Y-90525241D01*
X133350000Y-90757759D01*
X133194637Y-90525241D01*
X132994759Y-90325363D01*
X132759727Y-90168320D01*
X132498574Y-90060147D01*
X132221335Y-90005000D01*
X131938665Y-90005000D01*
X131661426Y-90060147D01*
X131400273Y-90168320D01*
X131165241Y-90325363D01*
X130965363Y-90525241D01*
X130810000Y-90757759D01*
X130654637Y-90525241D01*
X130454759Y-90325363D01*
X130219727Y-90168320D01*
X129958574Y-90060147D01*
X129681335Y-90005000D01*
X129398665Y-90005000D01*
X129121426Y-90060147D01*
X128860273Y-90168320D01*
X128625241Y-90325363D01*
X128425363Y-90525241D01*
X128270000Y-90757759D01*
X128114637Y-90525241D01*
X127914759Y-90325363D01*
X127679727Y-90168320D01*
X127418574Y-90060147D01*
X127141335Y-90005000D01*
X126858665Y-90005000D01*
X126581426Y-90060147D01*
X126320273Y-90168320D01*
X126085241Y-90325363D01*
X125885363Y-90525241D01*
X125730000Y-90757759D01*
X125574637Y-90525241D01*
X125374759Y-90325363D01*
X125139727Y-90168320D01*
X124878574Y-90060147D01*
X124601335Y-90005000D01*
X124318665Y-90005000D01*
X124041426Y-90060147D01*
X123780273Y-90168320D01*
X123545241Y-90325363D01*
X123345363Y-90525241D01*
X123190000Y-90757759D01*
X123034637Y-90525241D01*
X122834759Y-90325363D01*
X122599727Y-90168320D01*
X122338574Y-90060147D01*
X122061335Y-90005000D01*
X121778665Y-90005000D01*
X121501426Y-90060147D01*
X121240273Y-90168320D01*
X121005241Y-90325363D01*
X120805363Y-90525241D01*
X120650000Y-90757759D01*
X120494637Y-90525241D01*
X120294759Y-90325363D01*
X120059727Y-90168320D01*
X119798574Y-90060147D01*
X119521335Y-90005000D01*
X119238665Y-90005000D01*
X118961426Y-90060147D01*
X118700273Y-90168320D01*
X118465241Y-90325363D01*
X118265363Y-90525241D01*
X118110000Y-90757759D01*
X117954637Y-90525241D01*
X117754759Y-90325363D01*
X117519727Y-90168320D01*
X117258574Y-90060147D01*
X116981335Y-90005000D01*
X116698665Y-90005000D01*
X116421426Y-90060147D01*
X116160273Y-90168320D01*
X115925241Y-90325363D01*
X115725363Y-90525241D01*
X115570000Y-90757759D01*
X115414637Y-90525241D01*
X115214759Y-90325363D01*
X114979727Y-90168320D01*
X114718574Y-90060147D01*
X114441335Y-90005000D01*
X114158665Y-90005000D01*
X113881426Y-90060147D01*
X113620273Y-90168320D01*
X113385241Y-90325363D01*
X113185363Y-90525241D01*
X113030000Y-90757759D01*
X112874637Y-90525241D01*
X112674759Y-90325363D01*
X112439727Y-90168320D01*
X112178574Y-90060147D01*
X111901335Y-90005000D01*
X111618665Y-90005000D01*
X111341426Y-90060147D01*
X111080273Y-90168320D01*
X110845241Y-90325363D01*
X110645363Y-90525241D01*
X110488320Y-90760273D01*
X110483933Y-90770865D01*
X110372385Y-90584869D01*
X110183414Y-90376481D01*
X109957420Y-90208963D01*
X109703087Y-90088754D01*
X109569039Y-90048096D01*
X109347000Y-90170085D01*
X109093000Y-90170085D01*
X108870961Y-90048096D01*
X108736913Y-90088754D01*
X108482580Y-90208963D01*
X108256586Y-90376481D01*
X108067615Y-90584869D01*
X107956067Y-90770865D01*
X107951680Y-90760273D01*
X107794637Y-90525241D01*
X107594759Y-90325363D01*
X107359727Y-90168320D01*
X107098574Y-90060147D01*
X106821335Y-90005000D01*
X106538665Y-90005000D01*
X106261426Y-90060147D01*
X106000273Y-90168320D01*
X105765241Y-90325363D01*
X105565363Y-90525241D01*
X105410000Y-90757759D01*
X105254637Y-90525241D01*
X105054759Y-90325363D01*
X104819727Y-90168320D01*
X104558574Y-90060147D01*
X104281335Y-90005000D01*
X103998665Y-90005000D01*
X103721426Y-90060147D01*
X103460273Y-90168320D01*
X103225241Y-90325363D01*
X103026643Y-90523961D01*
X103025812Y-90515518D01*
X102989502Y-90395820D01*
X102930537Y-90285506D01*
X102851185Y-90188815D01*
X102754494Y-90109463D01*
X102644180Y-90050498D01*
X102524482Y-90014188D01*
X102400000Y-90001928D01*
X100800000Y-90001928D01*
X100675518Y-90014188D01*
X100555820Y-90050498D01*
X100445506Y-90109463D01*
X100348815Y-90188815D01*
X100269463Y-90285506D01*
X100210498Y-90395820D01*
X100174188Y-90515518D01*
X100161928Y-90640000D01*
X96608923Y-90640000D01*
X96683381Y-90500700D01*
X96732556Y-90338589D01*
X96745000Y-90212246D01*
X96745000Y-90212240D01*
X96749160Y-90170001D01*
X96745000Y-90127762D01*
X96745000Y-77172238D01*
X96749160Y-77129999D01*
X96745000Y-77087760D01*
X96745000Y-77087754D01*
X96732556Y-76961411D01*
X96683381Y-76799300D01*
X96603524Y-76649898D01*
X96496054Y-76518946D01*
X96463242Y-76492018D01*
X96029889Y-76058665D01*
X100165000Y-76058665D01*
X100165000Y-76341335D01*
X100220147Y-76618574D01*
X100328320Y-76879727D01*
X100485363Y-77114759D01*
X100685241Y-77314637D01*
X100920273Y-77471680D01*
X101181426Y-77579853D01*
X101458665Y-77635000D01*
X101741335Y-77635000D01*
X102018574Y-77579853D01*
X102279727Y-77471680D01*
X102514759Y-77314637D01*
X102714637Y-77114759D01*
X102871680Y-76879727D01*
X102876067Y-76869135D01*
X102987615Y-77055131D01*
X103176586Y-77263519D01*
X103402580Y-77431037D01*
X103656913Y-77551246D01*
X103790961Y-77591904D01*
X104013000Y-77469915D01*
X104013000Y-76327000D01*
X103993000Y-76327000D01*
X103993000Y-76073000D01*
X104013000Y-76073000D01*
X104013000Y-74930085D01*
X103790961Y-74808096D01*
X103656913Y-74848754D01*
X103402580Y-74968963D01*
X103176586Y-75136481D01*
X102987615Y-75344869D01*
X102876067Y-75530865D01*
X102871680Y-75520273D01*
X102714637Y-75285241D01*
X102514759Y-75085363D01*
X102279727Y-74928320D01*
X102018574Y-74820147D01*
X101741335Y-74765000D01*
X101458665Y-74765000D01*
X101181426Y-74820147D01*
X100920273Y-74928320D01*
X100685241Y-75085363D01*
X100485363Y-75285241D01*
X100328320Y-75520273D01*
X100220147Y-75781426D01*
X100165000Y-76058665D01*
X96029889Y-76058665D01*
X94132151Y-74160928D01*
X94145000Y-74096335D01*
X94145000Y-73813665D01*
X94089853Y-73536426D01*
X93981680Y-73275273D01*
X93824637Y-73040241D01*
X93624759Y-72840363D01*
X93570000Y-72803774D01*
X93570000Y-72111223D01*
X95606223Y-70075000D01*
X96638774Y-70075000D01*
X96675363Y-70129759D01*
X96875241Y-70329637D01*
X97110273Y-70486680D01*
X97371426Y-70594853D01*
X97648665Y-70650000D01*
X97931335Y-70650000D01*
X98208574Y-70594853D01*
X98469727Y-70486680D01*
X98704759Y-70329637D01*
X98904637Y-70129759D01*
X99061680Y-69894727D01*
X99169853Y-69633574D01*
X99225000Y-69356335D01*
X99225000Y-69073665D01*
X103975000Y-69073665D01*
X103975000Y-69356335D01*
X104030147Y-69633574D01*
X104138320Y-69894727D01*
X104295363Y-70129759D01*
X104495241Y-70329637D01*
X104730273Y-70486680D01*
X104991426Y-70594853D01*
X105268665Y-70650000D01*
X105551335Y-70650000D01*
X105828574Y-70594853D01*
X106089727Y-70486680D01*
X106324759Y-70329637D01*
X106524637Y-70129759D01*
X106681680Y-69894727D01*
X106789853Y-69633574D01*
X106845000Y-69356335D01*
X106845000Y-69073665D01*
X106789853Y-68796426D01*
X106681680Y-68535273D01*
X106524637Y-68300241D01*
X106324759Y-68100363D01*
X106270000Y-68063774D01*
X106270000Y-67666223D01*
X106401224Y-67535000D01*
X110768777Y-67535000D01*
X110900000Y-67666224D01*
X110900000Y-68101893D01*
X110808513Y-68193380D01*
X110786502Y-68120820D01*
X110727537Y-68010506D01*
X110648185Y-67913815D01*
X110551494Y-67834463D01*
X110441180Y-67775498D01*
X110321482Y-67739188D01*
X110197000Y-67726928D01*
X108497000Y-67726928D01*
X108372518Y-67739188D01*
X108252820Y-67775498D01*
X108142506Y-67834463D01*
X108045815Y-67913815D01*
X107966463Y-68010506D01*
X107907498Y-68120820D01*
X107871188Y-68240518D01*
X107858928Y-68365000D01*
X107858928Y-70065000D01*
X107871188Y-70189482D01*
X107907498Y-70309180D01*
X107966463Y-70419494D01*
X108045815Y-70516185D01*
X108142506Y-70595537D01*
X108252820Y-70654502D01*
X108360001Y-70687015D01*
X108360000Y-75048774D01*
X108305241Y-75085363D01*
X108105363Y-75285241D01*
X107950000Y-75517759D01*
X107794637Y-75285241D01*
X107594759Y-75085363D01*
X107359727Y-74928320D01*
X107098574Y-74820147D01*
X106821335Y-74765000D01*
X106538665Y-74765000D01*
X106261426Y-74820147D01*
X106000273Y-74928320D01*
X105765241Y-75085363D01*
X105565363Y-75285241D01*
X105408320Y-75520273D01*
X105403933Y-75530865D01*
X105292385Y-75344869D01*
X105103414Y-75136481D01*
X104877420Y-74968963D01*
X104623087Y-74848754D01*
X104489039Y-74808096D01*
X104267000Y-74930085D01*
X104267000Y-76073000D01*
X104287000Y-76073000D01*
X104287000Y-76327000D01*
X104267000Y-76327000D01*
X104267000Y-77469915D01*
X104489039Y-77591904D01*
X104623087Y-77551246D01*
X104877420Y-77431037D01*
X105103414Y-77263519D01*
X105292385Y-77055131D01*
X105403933Y-76869135D01*
X105408320Y-76879727D01*
X105565363Y-77114759D01*
X105765241Y-77314637D01*
X106000273Y-77471680D01*
X106261426Y-77579853D01*
X106538665Y-77635000D01*
X106821335Y-77635000D01*
X107098574Y-77579853D01*
X107359727Y-77471680D01*
X107594759Y-77314637D01*
X107794637Y-77114759D01*
X107950000Y-76882241D01*
X108105363Y-77114759D01*
X108305241Y-77314637D01*
X108540273Y-77471680D01*
X108801426Y-77579853D01*
X109078665Y-77635000D01*
X109361335Y-77635000D01*
X109638574Y-77579853D01*
X109899727Y-77471680D01*
X110134759Y-77314637D01*
X110334637Y-77114759D01*
X110490000Y-76882241D01*
X110645363Y-77114759D01*
X110845241Y-77314637D01*
X111080273Y-77471680D01*
X111341426Y-77579853D01*
X111618665Y-77635000D01*
X111901335Y-77635000D01*
X112178574Y-77579853D01*
X112439727Y-77471680D01*
X112674759Y-77314637D01*
X112874637Y-77114759D01*
X113030000Y-76882241D01*
X113185363Y-77114759D01*
X113385241Y-77314637D01*
X113620273Y-77471680D01*
X113881426Y-77579853D01*
X114158665Y-77635000D01*
X114441335Y-77635000D01*
X114718574Y-77579853D01*
X114979727Y-77471680D01*
X115214759Y-77314637D01*
X115414637Y-77114759D01*
X115570000Y-76882241D01*
X115725363Y-77114759D01*
X115925241Y-77314637D01*
X116160273Y-77471680D01*
X116421426Y-77579853D01*
X116698665Y-77635000D01*
X116981335Y-77635000D01*
X117258574Y-77579853D01*
X117519727Y-77471680D01*
X117754759Y-77314637D01*
X117954637Y-77114759D01*
X118110000Y-76882241D01*
X118265363Y-77114759D01*
X118465241Y-77314637D01*
X118700273Y-77471680D01*
X118961426Y-77579853D01*
X119238665Y-77635000D01*
X119521335Y-77635000D01*
X119798574Y-77579853D01*
X120059727Y-77471680D01*
X120294759Y-77314637D01*
X120494637Y-77114759D01*
X120650000Y-76882241D01*
X120805363Y-77114759D01*
X121005241Y-77314637D01*
X121240273Y-77471680D01*
X121501426Y-77579853D01*
X121778665Y-77635000D01*
X122061335Y-77635000D01*
X122338574Y-77579853D01*
X122599727Y-77471680D01*
X122834759Y-77314637D01*
X123034637Y-77114759D01*
X123190000Y-76882241D01*
X123345363Y-77114759D01*
X123545241Y-77314637D01*
X123780273Y-77471680D01*
X124041426Y-77579853D01*
X124318665Y-77635000D01*
X124601335Y-77635000D01*
X124878574Y-77579853D01*
X125139727Y-77471680D01*
X125374759Y-77314637D01*
X125574637Y-77114759D01*
X125730000Y-76882241D01*
X125885363Y-77114759D01*
X126085241Y-77314637D01*
X126320273Y-77471680D01*
X126581426Y-77579853D01*
X126858665Y-77635000D01*
X127141335Y-77635000D01*
X127418574Y-77579853D01*
X127679727Y-77471680D01*
X127914759Y-77314637D01*
X128114637Y-77114759D01*
X128270000Y-76882241D01*
X128425363Y-77114759D01*
X128625241Y-77314637D01*
X128860273Y-77471680D01*
X129121426Y-77579853D01*
X129398665Y-77635000D01*
X129681335Y-77635000D01*
X129958574Y-77579853D01*
X130219727Y-77471680D01*
X130454759Y-77314637D01*
X130654637Y-77114759D01*
X130810000Y-76882241D01*
X130965363Y-77114759D01*
X131165241Y-77314637D01*
X131400273Y-77471680D01*
X131661426Y-77579853D01*
X131938665Y-77635000D01*
X132221335Y-77635000D01*
X132498574Y-77579853D01*
X132759727Y-77471680D01*
X132994759Y-77314637D01*
X133194637Y-77114759D01*
X133350000Y-76882241D01*
X133505363Y-77114759D01*
X133705241Y-77314637D01*
X133940273Y-77471680D01*
X134201426Y-77579853D01*
X134478665Y-77635000D01*
X134761335Y-77635000D01*
X135038574Y-77579853D01*
X135299727Y-77471680D01*
X135534759Y-77314637D01*
X135734637Y-77114759D01*
X135890000Y-76882241D01*
X136045363Y-77114759D01*
X136245241Y-77314637D01*
X136480273Y-77471680D01*
X136741426Y-77579853D01*
X137018665Y-77635000D01*
X137301335Y-77635000D01*
X137578574Y-77579853D01*
X137839727Y-77471680D01*
X138074759Y-77314637D01*
X138274637Y-77114759D01*
X138431680Y-76879727D01*
X138539853Y-76618574D01*
X138595000Y-76341335D01*
X138595000Y-76058665D01*
X138539853Y-75781426D01*
X138431680Y-75520273D01*
X138274637Y-75285241D01*
X138074759Y-75085363D01*
X137839727Y-74928320D01*
X137578574Y-74820147D01*
X137301335Y-74765000D01*
X137018665Y-74765000D01*
X136741426Y-74820147D01*
X136480273Y-74928320D01*
X136245241Y-75085363D01*
X136045363Y-75285241D01*
X135890000Y-75517759D01*
X135734637Y-75285241D01*
X135534759Y-75085363D01*
X135299727Y-74928320D01*
X135038574Y-74820147D01*
X134761335Y-74765000D01*
X134478665Y-74765000D01*
X134414072Y-74777849D01*
X133352988Y-73716765D01*
X133326054Y-73683946D01*
X133195102Y-73576476D01*
X133045700Y-73496619D01*
X132883589Y-73447444D01*
X132757246Y-73435000D01*
X132757239Y-73435000D01*
X132715000Y-73430840D01*
X132672761Y-73435000D01*
X116561224Y-73435000D01*
X115160000Y-72033777D01*
X115160000Y-70511219D01*
X115373632Y-70368475D01*
X115580475Y-70161632D01*
X115742990Y-69918411D01*
X115854932Y-69648158D01*
X115912000Y-69361260D01*
X115912000Y-69285512D01*
X119114783Y-69285512D01*
X119156213Y-69565130D01*
X119251397Y-69831292D01*
X119318329Y-69956514D01*
X119562298Y-70028097D01*
X120375395Y-69215000D01*
X119562298Y-68401903D01*
X119318329Y-68473486D01*
X119197429Y-68728996D01*
X119128700Y-69003184D01*
X119114783Y-69285512D01*
X115912000Y-69285512D01*
X115912000Y-69068740D01*
X115854932Y-68781842D01*
X115742990Y-68511589D01*
X115580475Y-68268368D01*
X115534405Y-68222298D01*
X119741903Y-68222298D01*
X120555000Y-69035395D01*
X120569143Y-69021253D01*
X120748748Y-69200858D01*
X120734605Y-69215000D01*
X120748748Y-69229143D01*
X120569143Y-69408748D01*
X120555000Y-69394605D01*
X119741903Y-70207702D01*
X119813486Y-70451671D01*
X120068996Y-70572571D01*
X120343184Y-70641300D01*
X120625512Y-70655217D01*
X120905130Y-70613787D01*
X121171292Y-70518603D01*
X121293309Y-70453384D01*
X121303815Y-70466185D01*
X121400506Y-70545537D01*
X121510820Y-70604502D01*
X121630518Y-70640812D01*
X121755000Y-70653072D01*
X123355000Y-70653072D01*
X123479482Y-70640812D01*
X123599180Y-70604502D01*
X123709494Y-70545537D01*
X123806185Y-70466185D01*
X123885537Y-70369494D01*
X123944502Y-70259180D01*
X123980812Y-70139482D01*
X123993072Y-70015000D01*
X123993072Y-68415000D01*
X123980812Y-68290518D01*
X123944502Y-68170820D01*
X123885537Y-68060506D01*
X123806185Y-67963815D01*
X123709494Y-67884463D01*
X123599180Y-67825498D01*
X123479482Y-67789188D01*
X123355000Y-67776928D01*
X121755000Y-67776928D01*
X121630518Y-67789188D01*
X121510820Y-67825498D01*
X121400506Y-67884463D01*
X121303815Y-67963815D01*
X121293193Y-67976758D01*
X121041004Y-67857429D01*
X120766816Y-67788700D01*
X120484488Y-67774783D01*
X120204870Y-67816213D01*
X119938708Y-67911397D01*
X119813486Y-67978329D01*
X119741903Y-68222298D01*
X115534405Y-68222298D01*
X115373632Y-68061525D01*
X115130411Y-67899010D01*
X114860158Y-67787068D01*
X114573260Y-67730000D01*
X114280740Y-67730000D01*
X113993842Y-67787068D01*
X113723589Y-67899010D01*
X113480368Y-68061525D01*
X113273525Y-68268368D01*
X113157000Y-68442760D01*
X113040475Y-68268368D01*
X112833632Y-68061525D01*
X112620000Y-67918781D01*
X112620000Y-67352246D01*
X112624161Y-67310000D01*
X112607556Y-67141410D01*
X112558381Y-66979299D01*
X112530564Y-66927259D01*
X112478524Y-66829898D01*
X112371054Y-66698946D01*
X112338241Y-66672017D01*
X111762987Y-66096764D01*
X111736054Y-66063946D01*
X111605102Y-65956476D01*
X111455700Y-65876619D01*
X111293589Y-65827444D01*
X111167246Y-65815000D01*
X111167239Y-65815000D01*
X111125000Y-65810840D01*
X111082761Y-65815000D01*
X106087246Y-65815000D01*
X106045000Y-65810839D01*
X105876410Y-65827444D01*
X105714299Y-65876619D01*
X105662259Y-65904436D01*
X105564898Y-65956476D01*
X105433946Y-66063946D01*
X105407016Y-66096760D01*
X104831760Y-66672017D01*
X104798947Y-66698946D01*
X104772018Y-66731759D01*
X104772016Y-66731761D01*
X104691477Y-66829898D01*
X104611620Y-66979300D01*
X104562444Y-67141411D01*
X104545840Y-67310000D01*
X104550001Y-67352248D01*
X104550001Y-68063774D01*
X104495241Y-68100363D01*
X104295363Y-68300241D01*
X104138320Y-68535273D01*
X104030147Y-68796426D01*
X103975000Y-69073665D01*
X99225000Y-69073665D01*
X99169853Y-68796426D01*
X99061680Y-68535273D01*
X98904637Y-68300241D01*
X98704759Y-68100363D01*
X98469727Y-67943320D01*
X98208574Y-67835147D01*
X97931335Y-67780000D01*
X97648665Y-67780000D01*
X97371426Y-67835147D01*
X97110273Y-67943320D01*
X96875241Y-68100363D01*
X96675363Y-68300241D01*
X96638774Y-68355000D01*
X95292238Y-68355000D01*
X95249999Y-68350840D01*
X95207760Y-68355000D01*
X95207754Y-68355000D01*
X95112538Y-68364378D01*
X95081409Y-68367444D01*
X95005950Y-68390335D01*
X94919300Y-68416619D01*
X94769898Y-68496476D01*
X94638946Y-68603946D01*
X94612012Y-68636765D01*
X92131765Y-71117012D01*
X92098946Y-71143946D01*
X91991476Y-71274899D01*
X91911619Y-71424301D01*
X91862444Y-71586412D01*
X91850000Y-71712755D01*
X91850000Y-71712761D01*
X91845840Y-71755000D01*
X91850000Y-71797239D01*
X91850000Y-72803774D01*
X91795241Y-72840363D01*
X91595363Y-73040241D01*
X91438320Y-73275273D01*
X91330147Y-73536426D01*
X91275000Y-73813665D01*
X91275000Y-74096335D01*
X91330147Y-74373574D01*
X91438320Y-74634727D01*
X91595363Y-74869759D01*
X91795241Y-75069637D01*
X92030273Y-75226680D01*
X92291426Y-75334853D01*
X92317301Y-75340000D01*
X92291426Y-75345147D01*
X92030273Y-75453320D01*
X91795241Y-75610363D01*
X91595363Y-75810241D01*
X91438320Y-76045273D01*
X91330147Y-76306426D01*
X91275000Y-76583665D01*
X91275000Y-76866335D01*
X91330147Y-77143574D01*
X91438320Y-77404727D01*
X91595363Y-77639759D01*
X91795241Y-77839637D01*
X92030273Y-77996680D01*
X92291426Y-78104853D01*
X92317301Y-78110000D01*
X92291426Y-78115147D01*
X92030273Y-78223320D01*
X91795241Y-78380363D01*
X91595363Y-78580241D01*
X91438320Y-78815273D01*
X91330147Y-79076426D01*
X91275000Y-79353665D01*
X91275000Y-79636335D01*
X91330147Y-79913574D01*
X91438320Y-80174727D01*
X91595363Y-80409759D01*
X91795241Y-80609637D01*
X92030273Y-80766680D01*
X92291426Y-80874853D01*
X92319882Y-80880513D01*
X92093708Y-80961397D01*
X91968486Y-81028329D01*
X91896903Y-81272298D01*
X92710000Y-82085395D01*
X93523097Y-81272298D01*
X93451514Y-81028329D01*
X93196004Y-80907429D01*
X93093711Y-80881788D01*
X93128574Y-80874853D01*
X93389727Y-80766680D01*
X93624759Y-80609637D01*
X93824637Y-80409759D01*
X93981680Y-80174727D01*
X94089853Y-79913574D01*
X94145000Y-79636335D01*
X94145000Y-79353665D01*
X94089853Y-79076426D01*
X93981680Y-78815273D01*
X93824637Y-78580241D01*
X93624759Y-78380363D01*
X93389727Y-78223320D01*
X93128574Y-78115147D01*
X93102699Y-78110000D01*
X93128574Y-78104853D01*
X93389727Y-77996680D01*
X93624759Y-77839637D01*
X93824637Y-77639759D01*
X93981680Y-77404727D01*
X94089853Y-77143574D01*
X94145000Y-76866335D01*
X94145000Y-76606224D01*
X95025000Y-77486224D01*
X95025001Y-89813775D01*
X94145000Y-90693776D01*
X94145000Y-90433665D01*
X94089853Y-90156426D01*
X93981680Y-89895273D01*
X93824637Y-89660241D01*
X93624759Y-89460363D01*
X93389727Y-89303320D01*
X93128574Y-89195147D01*
X93102699Y-89190000D01*
X93128574Y-89184853D01*
X93389727Y-89076680D01*
X93624759Y-88919637D01*
X93824637Y-88719759D01*
X93981680Y-88484727D01*
X94089853Y-88223574D01*
X94145000Y-87946335D01*
X94145000Y-87663665D01*
X94089853Y-87386426D01*
X93981680Y-87125273D01*
X93824637Y-86890241D01*
X93624759Y-86690363D01*
X93389727Y-86533320D01*
X93128574Y-86425147D01*
X93100118Y-86419487D01*
X93326292Y-86338603D01*
X93451514Y-86271671D01*
X93523097Y-86027702D01*
X92710000Y-85214605D01*
X91896903Y-86027702D01*
X91968486Y-86271671D01*
X92223996Y-86392571D01*
X92326289Y-86418212D01*
X92291426Y-86425147D01*
X92030273Y-86533320D01*
X91795241Y-86690363D01*
X91595363Y-86890241D01*
X91438320Y-87125273D01*
X91330147Y-87386426D01*
X91275000Y-87663665D01*
X91275000Y-87946335D01*
X91330147Y-88223574D01*
X91438320Y-88484727D01*
X91595363Y-88719759D01*
X91795241Y-88919637D01*
X92030273Y-89076680D01*
X92291426Y-89184853D01*
X92317301Y-89190000D01*
X92291426Y-89195147D01*
X92030273Y-89303320D01*
X91795241Y-89460363D01*
X91595363Y-89660241D01*
X91438320Y-89895273D01*
X91330147Y-90156426D01*
X91275000Y-90433665D01*
X91275000Y-90716335D01*
X91330147Y-90993574D01*
X91438320Y-91254727D01*
X91595363Y-91489759D01*
X91795241Y-91689637D01*
X92030273Y-91846680D01*
X92175725Y-91906928D01*
X91910000Y-91906928D01*
X91785518Y-91919188D01*
X91665820Y-91955498D01*
X91555506Y-92014463D01*
X91458815Y-92093815D01*
X91379463Y-92190506D01*
X91320498Y-92300820D01*
X91284188Y-92420518D01*
X91277837Y-92485000D01*
X91205770Y-92485000D01*
X91249853Y-92378574D01*
X91305000Y-92101335D01*
X91305000Y-91818665D01*
X91249853Y-91541426D01*
X91141680Y-91280273D01*
X90984637Y-91045241D01*
X90784759Y-90845363D01*
X90549727Y-90688320D01*
X90288574Y-90580147D01*
X90262699Y-90575000D01*
X90288574Y-90569853D01*
X90549727Y-90461680D01*
X90784759Y-90304637D01*
X90984637Y-90104759D01*
X91141680Y-89869727D01*
X91249853Y-89608574D01*
X91305000Y-89331335D01*
X91305000Y-89048665D01*
X91249853Y-88771426D01*
X91141680Y-88510273D01*
X90984637Y-88275241D01*
X90784759Y-88075363D01*
X90549727Y-87918320D01*
X90288574Y-87810147D01*
X90262699Y-87805000D01*
X90288574Y-87799853D01*
X90549727Y-87691680D01*
X90784759Y-87534637D01*
X90984637Y-87334759D01*
X91141680Y-87099727D01*
X91249853Y-86838574D01*
X91305000Y-86561335D01*
X91305000Y-86278665D01*
X91249853Y-86001426D01*
X91141680Y-85740273D01*
X90984637Y-85505241D01*
X90784759Y-85305363D01*
X90549727Y-85148320D01*
X90446380Y-85105512D01*
X91269783Y-85105512D01*
X91311213Y-85385130D01*
X91406397Y-85651292D01*
X91473329Y-85776514D01*
X91717298Y-85848097D01*
X92530395Y-85035000D01*
X92889605Y-85035000D01*
X93702702Y-85848097D01*
X93946671Y-85776514D01*
X94067571Y-85521004D01*
X94136300Y-85246816D01*
X94150217Y-84964488D01*
X94108787Y-84684870D01*
X94013603Y-84418708D01*
X93946671Y-84293486D01*
X93702702Y-84221903D01*
X92889605Y-85035000D01*
X92530395Y-85035000D01*
X91717298Y-84221903D01*
X91473329Y-84293486D01*
X91352429Y-84548996D01*
X91283700Y-84823184D01*
X91269783Y-85105512D01*
X90446380Y-85105512D01*
X90288574Y-85040147D01*
X90262699Y-85035000D01*
X90288574Y-85029853D01*
X90549727Y-84921680D01*
X90784759Y-84764637D01*
X90984637Y-84564759D01*
X91141680Y-84329727D01*
X91249853Y-84068574D01*
X91305000Y-83791335D01*
X91305000Y-83508665D01*
X91255080Y-83257702D01*
X91896903Y-83257702D01*
X91968486Y-83501671D01*
X92223996Y-83622571D01*
X92326305Y-83648216D01*
X92093708Y-83731397D01*
X91968486Y-83798329D01*
X91896903Y-84042298D01*
X92710000Y-84855395D01*
X93523097Y-84042298D01*
X93451514Y-83798329D01*
X93196004Y-83677429D01*
X93093695Y-83651784D01*
X93326292Y-83568603D01*
X93451514Y-83501671D01*
X93523097Y-83257702D01*
X92710000Y-82444605D01*
X91896903Y-83257702D01*
X91255080Y-83257702D01*
X91249853Y-83231426D01*
X91141680Y-82970273D01*
X90984637Y-82735241D01*
X90784759Y-82535363D01*
X90549727Y-82378320D01*
X90446380Y-82335512D01*
X91269783Y-82335512D01*
X91311213Y-82615130D01*
X91406397Y-82881292D01*
X91473329Y-83006514D01*
X91717298Y-83078097D01*
X92530395Y-82265000D01*
X92889605Y-82265000D01*
X93702702Y-83078097D01*
X93946671Y-83006514D01*
X94067571Y-82751004D01*
X94136300Y-82476816D01*
X94150217Y-82194488D01*
X94108787Y-81914870D01*
X94013603Y-81648708D01*
X93946671Y-81523486D01*
X93702702Y-81451903D01*
X92889605Y-82265000D01*
X92530395Y-82265000D01*
X91717298Y-81451903D01*
X91473329Y-81523486D01*
X91352429Y-81778996D01*
X91283700Y-82053184D01*
X91269783Y-82335512D01*
X90446380Y-82335512D01*
X90288574Y-82270147D01*
X90262699Y-82265000D01*
X90288574Y-82259853D01*
X90549727Y-82151680D01*
X90784759Y-81994637D01*
X90984637Y-81794759D01*
X91141680Y-81559727D01*
X91249853Y-81298574D01*
X91305000Y-81021335D01*
X91305000Y-80738665D01*
X91249853Y-80461426D01*
X91141680Y-80200273D01*
X90984637Y-79965241D01*
X90784759Y-79765363D01*
X90549727Y-79608320D01*
X90288574Y-79500147D01*
X90262699Y-79495000D01*
X90288574Y-79489853D01*
X90549727Y-79381680D01*
X90784759Y-79224637D01*
X90984637Y-79024759D01*
X91141680Y-78789727D01*
X91249853Y-78528574D01*
X91305000Y-78251335D01*
X91305000Y-77968665D01*
X91249853Y-77691426D01*
X91141680Y-77430273D01*
X90984637Y-77195241D01*
X90784759Y-76995363D01*
X90549727Y-76838320D01*
X90288574Y-76730147D01*
X90262699Y-76725000D01*
X90288574Y-76719853D01*
X90549727Y-76611680D01*
X90784759Y-76454637D01*
X90984637Y-76254759D01*
X91141680Y-76019727D01*
X91249853Y-75758574D01*
X91305000Y-75481335D01*
X91305000Y-75198665D01*
X91249853Y-74921426D01*
X91141680Y-74660273D01*
X90984637Y-74425241D01*
X90784759Y-74225363D01*
X90549727Y-74068320D01*
X90288574Y-73960147D01*
X90011335Y-73905000D01*
X89728665Y-73905000D01*
X89451426Y-73960147D01*
X89190273Y-74068320D01*
X88955241Y-74225363D01*
X88755363Y-74425241D01*
X88598320Y-74660273D01*
X88490147Y-74921426D01*
X88435000Y-75198665D01*
X82625000Y-75198665D01*
X82625000Y-64845000D01*
X89772310Y-64845000D01*
X89610285Y-64953262D01*
G37*
%TD.AperFunction*%
%TD*%
M02*
