M48
; DRILL file {KiCad 5.1.7} date Mon Nov 23 17:15:24 2020
; FORMAT={-:-/ absolute / metric / decimal}
; #@! TF.CreationDate,2020-11-23T17:15:24+01:00
; #@! TF.GenerationSoftware,Kicad,Pcbnew,5.1.7
; #@! TF.FileFunction,Plated,1,2,PTH
FMAT,2
METRIC
T1C0.800
T2C1.000
T3C3.200
%
G90
G05
T1
X97.79Y-69.215
X105.41Y-69.215
X120.555Y-69.215
X122.555Y-69.215
T2
X109.347Y-69.215
X111.887Y-69.215
X114.427Y-69.215
X89.87Y-75.34
X89.87Y-78.11
X89.87Y-80.88
X89.87Y-83.65
X89.87Y-86.42
X89.87Y-89.19
X89.87Y-91.96
X92.71Y-73.955
X92.71Y-76.725
X92.71Y-79.495
X92.71Y-82.265
X92.71Y-85.035
X92.71Y-87.805
X92.71Y-90.575
X92.71Y-93.345
X101.6Y-76.2
X101.6Y-91.44
X104.14Y-76.2
X104.14Y-91.44
X106.68Y-76.2
X106.68Y-91.44
X109.22Y-76.2
X109.22Y-91.44
X111.76Y-76.2
X111.76Y-91.44
X114.3Y-76.2
X114.3Y-91.44
X116.84Y-76.2
X116.84Y-91.44
X119.38Y-76.2
X119.38Y-91.44
X121.92Y-76.2
X121.92Y-91.44
X124.46Y-76.2
X124.46Y-91.44
X127.0Y-76.2
X127.0Y-91.44
X129.54Y-76.2
X129.54Y-91.44
X132.08Y-76.2
X132.08Y-91.44
X134.62Y-76.2
X134.62Y-91.44
X137.16Y-76.2
X137.16Y-91.44
T3
X91.29Y-67.0
X91.29Y-100.3
T0
M30
