%TF.GenerationSoftware,KiCad,Pcbnew,5.1.7*%
%TF.CreationDate,2020-11-23T17:15:20+01:00*%
%TF.ProjectId,gameport-adapter,67616d65-706f-4727-942d-616461707465,0.1*%
%TF.SameCoordinates,Original*%
%TF.FileFunction,Soldermask,Top*%
%TF.FilePolarity,Negative*%
%FSLAX46Y46*%
G04 Gerber Fmt 4.6, Leading zero omitted, Abs format (unit mm)*
G04 Created by KiCad (PCBNEW 5.1.7) date 2020-11-23 17:15:20*
%MOMM*%
%LPD*%
G01*
G04 APERTURE LIST*
%ADD10O,1.600000X1.600000*%
%ADD11C,1.600000*%
%ADD12R,1.600000X1.600000*%
%ADD13O,1.700000X1.700000*%
%ADD14R,1.700000X1.700000*%
%ADD15C,4.000000*%
G04 APERTURE END LIST*
D10*
%TO.C,R1*%
X97790000Y-69215000D03*
D11*
X105410000Y-69215000D03*
%TD*%
%TO.C,C1*%
X120555000Y-69215000D03*
D12*
X122555000Y-69215000D03*
%TD*%
D13*
%TO.C,JP1*%
X114427000Y-69215000D03*
X111887000Y-69215000D03*
D14*
X109347000Y-69215000D03*
%TD*%
D10*
%TO.C,A1*%
X137160000Y-76200000D03*
X137160000Y-91440000D03*
X101600000Y-76200000D03*
X134620000Y-91440000D03*
X104140000Y-76200000D03*
X132080000Y-91440000D03*
X106680000Y-76200000D03*
X129540000Y-91440000D03*
X109220000Y-76200000D03*
X127000000Y-91440000D03*
X111760000Y-76200000D03*
X124460000Y-91440000D03*
X114300000Y-76200000D03*
X121920000Y-91440000D03*
X116840000Y-76200000D03*
X119380000Y-91440000D03*
X119380000Y-76200000D03*
X116840000Y-91440000D03*
X121920000Y-76200000D03*
X114300000Y-91440000D03*
X124460000Y-76200000D03*
X111760000Y-91440000D03*
X127000000Y-76200000D03*
X109220000Y-91440000D03*
X129540000Y-76200000D03*
X106680000Y-91440000D03*
X132080000Y-76200000D03*
X104140000Y-91440000D03*
X134620000Y-76200000D03*
D12*
X101600000Y-91440000D03*
%TD*%
D15*
%TO.C,CONN1*%
X91290000Y-100300000D03*
X91290000Y-67000000D03*
D11*
X89870000Y-75340000D03*
X89870000Y-78110000D03*
X89870000Y-80880000D03*
X89870000Y-83650000D03*
X89870000Y-86420000D03*
X89870000Y-89190000D03*
X89870000Y-91960000D03*
X92710000Y-73955000D03*
X92710000Y-76725000D03*
X92710000Y-79495000D03*
X92710000Y-82265000D03*
X92710000Y-85035000D03*
X92710000Y-87805000D03*
X92710000Y-90575000D03*
D12*
X92710000Y-93345000D03*
%TD*%
M02*
